<svg width="33" height="33" viewBox="0 0 33 33" fill="none" xmlns="http://www.w3.org/2000/svg">
<path d="M15.1084 3.9834C15.1037 4.02277 15.1016 4.06288 15.1016 4.10352V16.9658C15.1016 16.9795 15.1031 16.9933 15.1035 17.0068C15.1029 17.0208 15.1016 17.0347 15.1016 17.0488C15.1016 17.3391 15.2263 17.5995 15.4238 17.7822C15.4337 17.7928 15.4428 17.8042 15.4531 17.8145L24.0244 26.3857L24.4102 26.8145C22.1617 28.6993 19.265 29.8368 16.1016 29.8369C8.95233 29.8369 3.15625 24.0408 3.15625 16.8916C3.15625 10.0763 8.42295 4.49034 15.1084 3.9834ZM28.9941 18.0488C28.7449 20.8625 27.5928 23.4146 25.833 25.4209L25.4385 24.9717L18.5156 18.0488H28.9941ZM17.0938 3.9834C23.5014 4.46928 28.6045 9.62108 29.0176 16.0488H17.1016V4.10352C17.1016 4.06284 17.0985 4.0228 17.0938 3.9834Z" fill="#00CCC4"/>
</svg>
