<svg width="24" height="24" viewBox="0 0 24 24" fill="none" xmlns="http://www.w3.org/2000/svg">
<path d="M14.1894 10.3677C14.0206 10.5365 13.9258 10.7655 13.9258 11.0042C13.9258 11.243 14.0206 11.4719 14.1894 11.6408L16.3287 13.781C16.4975 13.9497 16.7265 14.0446 16.9652 14.0446C17.204 14.0446 17.4329 13.9497 17.6018 13.781L19.742 11.6408C19.9108 11.4719 20.0056 11.243 20.0056 11.0042C20.0056 10.7655 19.9108 10.5365 19.742 10.3677L17.6018 8.22748C17.4329 8.05869 17.204 7.96387 16.9652 7.96387C16.7265 7.96387 16.4975 8.05869 16.3287 8.22748L14.1894 10.3677Z" stroke="white" stroke-width="1.5" stroke-linecap="round" stroke-linejoin="round"/>
<path d="M2.26752 10.3677C2.09873 10.5365 2.00391 10.7655 2.00391 11.0042C2.00391 11.243 2.09873 11.4719 2.26752 11.6408L4.4077 13.781C4.57654 13.9497 4.80551 14.0446 5.04426 14.0446C5.283 14.0446 5.51197 13.9497 5.68082 13.781L7.82099 11.6408C7.98978 11.4719 8.08461 11.243 8.08461 11.0042C8.08461 10.7655 7.98978 10.5365 7.82099 10.3677L5.68082 8.22748C5.51197 8.05869 5.283 7.96387 5.04426 7.96387C4.80551 7.96387 4.57654 8.05869 4.4077 8.22748L2.26752 10.3677Z" stroke="white" stroke-width="1.5" stroke-linecap="round" stroke-linejoin="round"/>
<path d="M8.225 16.3267C8.14129 16.4103 8.07488 16.5096 8.02957 16.6189C7.98426 16.7282 7.96094 16.8454 7.96094 16.9637C7.96094 17.082 7.98426 17.1992 8.02957 17.3085C8.07488 17.4178 8.14129 17.5171 8.225 17.6007L10.3652 19.74C10.534 19.9088 10.763 20.0036 11.0017 20.0036C11.2405 20.0036 11.4695 19.9088 11.6383 19.74L13.7785 17.6007C13.8622 17.5171 13.9286 17.4178 13.9739 17.3085C14.0192 17.1992 14.0425 17.082 14.0425 16.9637C14.0425 16.8454 14.0192 16.7282 13.9739 16.6189C13.9286 16.5096 13.8622 16.4103 13.7785 16.3267L11.6383 14.1874C11.4695 14.0187 11.2405 13.9238 11.0017 13.9238C10.763 13.9238 10.534 14.0187 10.3652 14.1874L8.225 16.3267Z" stroke="white" stroke-width="1.5" stroke-linecap="round" stroke-linejoin="round"/>
<path d="M8.22846 4.4077C8.05967 4.57654 7.96484 4.80551 7.96484 5.04426C7.96484 5.283 8.05967 5.51197 8.22846 5.68082L10.3686 7.82009C10.5375 7.98888 10.7664 8.08371 11.0052 8.08371C11.2439 8.08371 11.4729 7.98888 11.6418 7.82009L13.7819 5.68082C13.9507 5.51197 14.0455 5.283 14.0455 5.04426C14.0455 4.80551 13.9507 4.57654 13.7819 4.4077L11.6418 2.26752C11.4729 2.09873 11.2439 2.00391 11.0052 2.00391C10.7664 2.00391 10.5375 2.09873 10.3686 2.26752L8.22846 4.4077Z" stroke="white" stroke-width="1.5" stroke-linecap="round" stroke-linejoin="round"/>
</svg>
