<svg width="25" height="24" viewBox="0 0 25 24" fill="none" xmlns="http://www.w3.org/2000/svg">
<path d="M2.5 21.0004C2.49992 19.4608 2.94413 17.9538 3.77935 16.6603C4.61456 15.3669 5.80527 14.3419 7.2086 13.7085C8.61193 13.075 10.1682 12.8599 11.6908 13.0891C13.2133 13.3183 14.6373 13.9819 15.792 15.0004" stroke="white" stroke-width="1.5" stroke-linecap="round" stroke-linejoin="round"/>
<path d="M10.5 13C13.2614 13 15.5 10.7614 15.5 8C15.5 5.23858 13.2614 3 10.5 3C7.73858 3 5.5 5.23858 5.5 8C5.5 10.7614 7.73858 13 10.5 13Z" stroke="white" stroke-width="1.5" stroke-linecap="round" stroke-linejoin="round"/>
<path d="M16.5 19L18.5 21L22.5 17" stroke="white" stroke-width="1.5" stroke-linecap="round" stroke-linejoin="round"/>
</svg>
