<svg width="33" height="33" viewBox="0 0 33 33" fill="none" xmlns="http://www.w3.org/2000/svg">
<path d="M18.6472 14.3464C20.0531 15.7523 20.0531 18.0317 18.6472 19.4376C17.2413 20.8435 14.9619 20.8435 13.556 19.4376C12.1501 18.0317 12.1501 15.7523 13.556 14.3464C14.9619 12.9405 17.2413 12.9405 18.6472 14.3464" stroke="#FAFBFC" stroke-width="1.5" stroke-linecap="round" stroke-linejoin="round"/>
<path fill-rule="evenodd" clip-rule="evenodd" d="M7.10155 16.8916C7.10155 17.2876 7.13755 17.6836 7.18555 18.0676L5.06822 19.7236C4.59889 20.0916 4.47089 20.7489 4.76955 21.2649L6.65222 24.5223C6.94955 25.0383 7.58155 25.2556 8.13489 25.0343L10.0309 24.2729C10.4056 24.1223 10.8229 24.1823 11.1589 24.4049C11.4522 24.5996 11.7562 24.7783 12.0709 24.9383C12.4309 25.1209 12.6922 25.4476 12.7496 25.8476L13.0389 27.8649C13.1229 28.4543 13.6282 28.8916 14.2229 28.8916H17.9789C18.5736 28.8916 19.0789 28.4543 19.1629 27.8649L19.4522 25.8489C19.5096 25.4489 19.7736 25.1196 20.1349 24.9383C20.4482 24.7809 20.7509 24.6036 21.0429 24.4103C21.3816 24.1863 21.8002 24.1223 22.1762 24.2743L24.0682 25.0343C24.6202 25.2556 25.2522 25.0383 25.5509 24.5223L27.4336 21.2649C27.7322 20.7489 27.6042 20.0903 27.1349 19.7236L25.0176 18.0676C25.0656 17.6836 25.1016 17.2876 25.1016 16.8916C25.1016 16.4956 25.0656 16.0996 25.0176 15.7156L27.1349 14.0596C27.6042 13.6916 27.7322 13.0343 27.4336 12.5183L25.5509 9.26093C25.2536 8.74493 24.6216 8.5276 24.0682 8.74894L22.1762 9.50894C21.8002 9.6596 21.3816 9.59694 21.0429 9.37294C20.7509 9.1796 20.4482 9.00227 20.1349 8.84493C19.7736 8.6636 19.5096 8.33427 19.4522 7.93427L19.1642 5.91827C19.0802 5.32893 18.5749 4.8916 17.9802 4.8916H14.2242C13.6296 4.8916 13.1242 5.32893 13.0402 5.91827L12.7496 7.93693C12.6922 8.3356 12.4296 8.6636 12.0709 8.84627C11.7562 9.00627 11.4522 9.18627 11.1589 9.3796C10.8216 9.60093 10.4042 9.66094 10.0296 9.51027L8.13489 8.74894C7.58155 8.5276 6.94955 8.74493 6.65222 9.26093L4.76955 12.5183C4.47089 13.0343 4.59889 13.6929 5.06822 14.0596L7.18555 15.7156C7.13755 16.0996 7.10155 16.4956 7.10155 16.8916V16.8916Z" stroke="#FAFBFC" stroke-width="1.5" stroke-linecap="round" stroke-linejoin="round"/>
</svg>
