<svg width="52" height="52" viewBox="0 0 52 52" fill="none" xmlns="http://www.w3.org/2000/svg">
<rect width="52" height="52" rx="26" fill="#00CCC4"/>
<g clip-path="url(#clip0_1_2113)">
<path d="M34.7746 12.8543L26.4213 10.0689C26.1478 9.97784 25.8521 9.97784 25.5786 10.0689L17.2253 12.8543C15.8972 13.2954 14.7418 14.1439 13.9235 15.2792C13.1051 16.4145 12.6653 17.7788 12.6666 19.1783V26.0009C12.6666 36.0849 24.9333 41.6543 25.4586 41.8863C25.6291 41.962 25.8135 42.0011 26 42.0011C26.1865 42.0011 26.3709 41.962 26.5413 41.8863C27.0666 41.6543 39.3333 36.0849 39.3333 26.0009V19.1783C39.3346 17.7788 38.8948 16.4145 38.0764 15.2792C37.2581 14.1439 36.1028 13.2954 34.7746 12.8543ZM32.2906 22.9569L26.5946 28.6529C26.3615 28.8876 26.0842 29.0736 25.7786 29.2002C25.473 29.3267 25.1454 29.3914 24.8146 29.3903H24.7706C24.4331 29.3851 24.1002 29.3115 23.792 29.174C23.4837 29.0365 23.2066 28.8379 22.9773 28.5903L19.9026 25.3903C19.7695 25.2667 19.663 25.1173 19.5896 24.9511C19.5163 24.7849 19.4777 24.6055 19.4762 24.4239C19.4747 24.2422 19.5103 24.0622 19.5809 23.8948C19.6515 23.7274 19.7555 23.5763 19.8866 23.4505C20.0177 23.3248 20.1731 23.2272 20.3433 23.1637C20.5134 23.1002 20.6948 23.0721 20.8762 23.0812C21.0576 23.0903 21.2353 23.1363 21.3982 23.2165C21.5612 23.2967 21.7061 23.4094 21.824 23.5476L24.816 26.6676L30.4 21.0676C30.6514 20.8247 30.9882 20.6903 31.3378 20.6934C31.6874 20.6964 32.0218 20.8366 32.2691 21.0838C32.5163 21.3311 32.6565 21.6655 32.6595 22.0151C32.6626 22.3647 32.5282 22.7015 32.2853 22.9529L32.2906 22.9569Z" fill="white"/>
</g>
<defs>
<clipPath id="clip0_1_2113">
<rect width="32" height="32" fill="white" transform="translate(10 10)"/>
</clipPath>
</defs>
</svg>
