<svg width="32" height="33" viewBox="0 0 32 33" fill="none" xmlns="http://www.w3.org/2000/svg">
<path d="M22.0076 20.7243H10.0079" stroke="#FAFBFC" stroke-width="1.5" stroke-linecap="round" stroke-linejoin="round"/>
<path d="M22.0077 11.3913H19.3411" stroke="#FAFBFC" stroke-width="1.5" stroke-linecap="round" stroke-linejoin="round"/>
<path d="M22.0077 16.0583H19.3411" stroke="#FAFBFC" stroke-width="1.5" stroke-linecap="round" stroke-linejoin="round"/>
<path fill-rule="evenodd" clip-rule="evenodd" d="M12.3607 16.0267V16.0267C10.9927 15.7531 10.0079 14.5519 10.0079 13.1568V12.2579C10.0079 11.8512 10.1695 11.4613 10.457 11.1737C10.7446 10.8862 11.1346 10.7246 11.5412 10.7246H13.8078C14.6547 10.7246 15.3411 11.4111 15.3411 12.2579V13.1568C15.3411 14.5519 14.3564 15.7531 12.9884 16.0267V16.0267C12.7812 16.0682 12.5679 16.0682 12.3607 16.0267Z" stroke="#FAFBFC" stroke-width="1.5" stroke-linecap="round" stroke-linejoin="round"/>
<path fill-rule="evenodd" clip-rule="evenodd" d="M23.0074 4.0585C25.7689 4.0585 28.0074 6.29707 28.0074 9.0585V23.0579C28.0074 25.8193 25.7689 28.0579 23.0074 28.0579H9.00804C6.24662 28.0579 4.00804 25.8193 4.00804 23.0579V9.0585C4.00804 6.29708 6.24661 4.0585 9.00804 4.0585L23.0074 4.0585Z" stroke="#FAFBFC" stroke-width="1.5" stroke-linecap="round" stroke-linejoin="round"/>
</svg>
