<svg width="32" height="33" viewBox="0 0 32 33" fill="none" xmlns="http://www.w3.org/2000/svg">
<path d="M24.0002 3.27344C26.7615 3.27344 29 5.51219 29.0002 8.27344V24.2744C29 27.0356 26.7615 29.2734 24.0002 29.2734H8.00024C5.23882 29.2734 3.00024 27.0349 3.00024 24.2734V8.27344C3.00045 5.51219 5.23895 3.27344 8.00024 3.27344H24.0002ZM10.0002 20.1914C9.58611 20.1914 9.25038 20.5273 9.25024 20.9414C9.25043 21.3555 9.58614 21.6914 10.0002 21.6914H22.0002L22.0764 21.6875C22.4546 21.6492 22.7501 21.3297 22.7502 20.9414C22.7501 20.5531 22.4546 20.2336 22.0764 20.1953L22.0002 20.1914H10.0002ZM19.3362 15.5254C18.922 15.5254 18.5862 15.8612 18.5862 16.2754C18.5865 16.6893 18.9222 17.0254 19.3362 17.0254H22.0032L22.0793 17.0215C22.4574 16.9832 22.7529 16.6635 22.7532 16.2754C22.7532 15.887 22.4576 15.5677 22.0793 15.5293L22.0032 15.5254H19.3362ZM11.5334 10.1914C10.928 10.1914 10.3474 10.4322 9.91919 10.8604C9.49107 11.2885 9.25033 11.8692 9.25024 12.4746V13.374L9.26489 13.6992C9.40715 15.3103 10.5952 16.6563 12.2063 16.9785L12.4358 17.0137C12.6665 17.0365 12.9 17.0242 13.1282 16.9785L13.4446 16.9014C14.8929 16.4762 15.9368 15.2028 16.0696 13.6992L16.0833 13.374V12.4746C16.0831 11.2137 15.061 10.1914 13.8 10.1914H11.5334ZM13.8 11.6914C14.2325 11.6914 14.5831 12.0422 14.5833 12.4746V13.374L14.5754 13.5664C14.4968 14.4567 13.8783 15.2103 13.0208 15.4619L12.8333 15.5078C12.7508 15.5243 12.6666 15.5287 12.5833 15.5205L12.5002 15.5078C11.5464 15.317 10.8433 14.5202 10.759 13.5664L10.7502 13.374V12.4746C10.7503 12.267 10.8329 12.0677 10.9797 11.9209C11.1266 11.7741 11.3258 11.6914 11.5334 11.6914H13.8ZM19.3362 10.8584C18.922 10.8584 18.5863 11.1943 18.5862 11.6084C18.5864 12.0225 18.9221 12.3584 19.3362 12.3584H22.0032L22.0793 12.3545C22.4575 12.3162 22.753 11.9966 22.7532 11.6084C22.753 11.2202 22.4575 10.9007 22.0793 10.8623L22.0032 10.8584H19.3362Z" fill="#00CCC4"/>
</svg>
