<svg width="18" height="19" viewBox="0 0 18 19" fill="none" xmlns="http://www.w3.org/2000/svg">
<path d="M6.11953 5.5293H3.80761C3.09625 5.5293 2.51953 6.10602 2.51953 6.81738C2.51953 7.24434 2.73121 7.64394 3.08473 7.8837L7.37377 10.7903C8.35585 11.4556 9.64393 11.4556 10.626 10.7903L14.9136 7.88442C15.2679 7.64466 15.4795 7.24506 15.4795 6.8181V6.81738C15.4795 6.10602 14.9028 5.5293 14.1915 5.5293H11.8795" stroke="#00CCC4" stroke-linecap="round" stroke-linejoin="round"/>
<path d="M2.51953 6.83008V13.4505C2.51953 14.2461 3.16393 14.8905 3.95953 14.8905H14.0395C14.8351 14.8905 15.4795 14.2461 15.4795 13.4505V6.83008" stroke="#00CCC4" stroke-linecap="round" stroke-linejoin="round"/>
<path d="M2.92188 14.448L6.89915 10.4707" stroke="#00CCC4" stroke-linecap="round" stroke-linejoin="round"/>
<path d="M11.1016 10.4707L15.0788 14.448" stroke="#00CCC4" stroke-linecap="round" stroke-linejoin="round"/>
<path d="M9.78063 7.29102L9.78063 2.2899" stroke="#00CCC4" stroke-linecap="round" stroke-linejoin="round"/>
<path d="M6.90125 7.32953V7.32953C7.69654 8.12482 8.98596 8.12482 9.78125 7.32953V7.32953" stroke="#00CCC4" stroke-linecap="round" stroke-linejoin="round"/>
</svg>
