<svg width="29" height="31" viewBox="0 0 29 31" fill="none" xmlns="http://www.w3.org/2000/svg">
<path d="M11.0919 5.28076H4.71391C3.53876 5.28076 2.58612 6.23766 2.58612 7.41805C2.58612 8.59844 3.53876 9.55534 4.71391 9.55534H11.0919C12.267 9.55534 13.2196 8.59844 13.2196 7.41805C13.2196 6.23766 12.267 5.28076 11.0919 5.28076Z" fill="url(#paint0_linear_114_5878)"/>
<path d="M14.449 26.5739L11.26 21.0223C10.6724 19.9994 9.37162 19.6486 8.35456 20.2388C7.3375 20.829 6.98934 22.1367 7.57691 23.1596L10.7659 28.7112C11.3535 29.7341 12.6543 30.0849 13.6713 29.4947C14.6884 28.9045 15.0365 27.5968 14.449 26.5739Z" fill="url(#paint1_linear_114_5878)"/>
<path d="M21.1863 7.40378L17.9974 1.85213C17.4098 0.829225 16.109 0.478448 15.0919 1.06864C14.0749 1.65884 13.7267 2.96651 14.3143 3.98941L17.5032 9.54107C18.0908 10.564 19.3916 10.9147 20.4087 10.3245C21.4257 9.73435 21.7739 8.42668 21.1863 7.40378Z" fill="url(#paint2_linear_114_5878)"/>
<path d="M4.74983 20.8861L7.87788 15.2996C8.45423 14.2702 8.09178 12.9665 7.06832 12.3876C6.04487 11.8086 4.74798 12.1738 4.17163 13.2031L1.04358 18.7897C0.467236 19.819 0.829685 21.1227 1.85314 21.7017C2.87659 22.2806 4.17348 21.9155 4.74983 20.8861Z" fill="url(#paint3_linear_114_5878)"/>
<path d="M24.5944 17.1559L27.7225 11.5693C28.2988 10.54 27.9364 9.23626 26.9129 8.65734C25.8895 8.07842 24.5926 8.44355 24.0162 9.47289L20.8882 15.0594C20.3118 16.0888 20.6743 17.3925 21.6977 17.9714C22.7212 18.5504 24.0181 18.1852 24.5944 17.1559Z" fill="url(#paint4_linear_114_5878)"/>
<path d="M24.0893 20.7205H17.7113C16.5362 20.7205 15.5836 21.6774 15.5836 22.8577C15.5836 24.0381 16.5362 24.995 17.7113 24.995H24.0893C25.2644 24.995 26.2171 24.0381 26.2171 22.8577C26.2171 21.6774 25.2644 20.7205 24.0893 20.7205Z" fill="url(#paint5_linear_114_5878)"/>
<path d="M14.4409 19.0127C16.4899 19.0127 18.151 17.3432 18.151 15.2837C18.151 13.2242 16.4899 11.5547 14.4409 11.5547C12.3919 11.5547 10.7308 13.2242 10.7308 15.2837C10.7308 17.3432 12.3919 19.0127 14.4409 19.0127Z" fill="url(#paint6_linear_114_5878)"/>
<defs>
<linearGradient id="paint0_linear_114_5878" x1="23.6822" y1="28.6941" x2="13.4079" y2="14.9848" gradientUnits="userSpaceOnUse">
<stop stop-color="#1A79CC"/>
<stop offset="0.01" stop-color="#0166FF"/>
<stop offset="1" stop-color="#66CAFE"/>
</linearGradient>
<linearGradient id="paint1_linear_114_5878" x1="17.3638" y1="33.4284" x2="7.0895" y2="19.7164" gradientUnits="userSpaceOnUse">
<stop stop-color="#1A79CC"/>
<stop offset="0.01" stop-color="#0166FF"/>
<stop offset="1" stop-color="#66CAFE"/>
</linearGradient>
<linearGradient id="paint2_linear_114_5878" x1="30.8325" y1="23.3376" x2="20.5609" y2="9.62563" gradientUnits="userSpaceOnUse">
<stop stop-color="#1A79CC"/>
<stop offset="0.01" stop-color="#0166FF"/>
<stop offset="1" stop-color="#66CAFE"/>
</linearGradient>
<linearGradient id="paint3_linear_114_5878" x1="16.8813" y1="33.7923" x2="6.60694" y2="20.0804" gradientUnits="userSpaceOnUse">
<stop stop-color="#1A79CC"/>
<stop offset="0.01" stop-color="#0166FF"/>
<stop offset="1" stop-color="#66CAFE"/>
</linearGradient>
<linearGradient id="paint4_linear_114_5878" x1="31.4156" y1="22.901" x2="21.144" y2="9.19177" gradientUnits="userSpaceOnUse">
<stop stop-color="#1A79CC"/>
<stop offset="0.01" stop-color="#0166FF"/>
<stop offset="1" stop-color="#66CAFE"/>
</linearGradient>
<linearGradient id="paint5_linear_114_5878" x1="24.6755" y1="27.9493" x2="14.4039" y2="14.2401" gradientUnits="userSpaceOnUse">
<stop stop-color="#1A79CC"/>
<stop offset="0.01" stop-color="#0166FF"/>
<stop offset="1" stop-color="#66CAFE"/>
</linearGradient>
<linearGradient id="paint6_linear_114_5878" x1="24.1354" y1="28.3556" x2="13.8638" y2="14.6437" gradientUnits="userSpaceOnUse">
<stop stop-color="#1A79CC"/>
<stop offset="0.01" stop-color="#0166FF"/>
<stop offset="1" stop-color="#66CAFE"/>
</linearGradient>
</defs>
</svg>
