<svg width="180" height="45" viewBox="0 0 180 45" fill="none" xmlns="http://www.w3.org/2000/svg">
<path d="M23.9437 14.3878C23.6643 15.8134 24.95 17.052 26.3641 16.7195L28.6692 16.1775C29.9245 15.8823 31.127 16.8348 31.127 18.1244V27.4243C31.127 28.6833 29.9776 29.6292 28.7422 29.3869L26.1339 28.8755C24.7082 28.596 23.4696 29.8818 23.8022 31.296L24.3458 33.6076C24.641 34.8629 23.6885 36.0654 22.3989 36.0654H13.0983C11.8396 36.0654 10.8938 34.9166 11.1356 33.6813L11.648 31.063C11.9271 29.6375 10.6413 28.3993 9.22727 28.732L6.91408 29.2762C5.65868 29.5716 4.45605 28.619 4.45605 27.3294V18.029C4.45605 16.7703 5.60492 15.8245 6.84022 16.0663L9.45878 16.5788C10.8843 16.8578 12.1224 15.5721 11.7898 14.1582L11.246 11.8455C10.9508 10.5902 11.9033 9.3877 13.1929 9.3877H22.4937C23.7527 9.3877 24.6986 10.537 24.4564 11.7724L23.9437 14.3878ZM13.667 24.8555C13.667 25.96 14.5624 26.8555 15.667 26.8555H19.917C21.0216 26.8555 21.917 25.96 21.917 24.8555V20.5986C21.917 19.4941 21.0216 18.5986 19.917 18.5986H15.667C14.5624 18.5986 13.667 19.4941 13.667 20.5986V24.8555Z" fill="#00CCC4"/>
<path d="M159.992 27.3431C159.188 27.3431 158.414 27.2411 157.67 27.0371C156.938 26.8211 156.356 26.5631 155.924 26.2631L156.788 24.5531C157.22 24.8291 157.736 25.0571 158.336 25.2371C158.936 25.4171 159.536 25.5071 160.136 25.5071C160.844 25.5071 161.354 25.4111 161.666 25.2191C161.99 25.0271 162.152 24.7691 162.152 24.4451C162.152 24.1811 162.044 23.9831 161.828 23.8511C161.612 23.7071 161.33 23.5991 160.982 23.5271C160.634 23.4551 160.244 23.3891 159.812 23.3291C159.392 23.2691 158.966 23.1911 158.534 23.0951C158.114 22.9871 157.73 22.8371 157.382 22.6451C157.034 22.4411 156.752 22.1711 156.536 21.8351C156.32 21.4991 156.212 21.0551 156.212 20.5031C156.212 19.8911 156.386 19.3631 156.734 18.9191C157.082 18.4631 157.568 18.1151 158.192 17.8751C158.828 17.6231 159.578 17.4971 160.442 17.4971C161.09 17.4971 161.744 17.5691 162.404 17.7131C163.064 17.8571 163.61 18.0611 164.042 18.3251L163.178 20.0351C162.722 19.7591 162.26 19.5731 161.792 19.4771C161.336 19.3691 160.88 19.3151 160.424 19.3151C159.74 19.3151 159.23 19.4171 158.894 19.6211C158.57 19.8251 158.408 20.0831 158.408 20.3951C158.408 20.6831 158.516 20.8991 158.732 21.0431C158.948 21.1871 159.23 21.3011 159.578 21.3851C159.926 21.4691 160.31 21.5411 160.73 21.6011C161.162 21.6491 161.588 21.7271 162.008 21.8351C162.428 21.9431 162.812 22.0931 163.16 22.2851C163.52 22.4651 163.808 22.7231 164.024 23.0591C164.24 23.3951 164.348 23.8331 164.348 24.3731C164.348 24.9731 164.168 25.4951 163.808 25.9391C163.46 26.3831 162.962 26.7311 162.314 26.9831C161.666 27.2231 160.892 27.3431 159.992 27.3431Z" fill="#051226"/>
<path d="M149.556 27.3435C148.74 27.3435 148.02 27.1935 147.396 26.8935C146.772 26.5815 146.286 26.1135 145.938 25.4895C145.59 24.8535 145.416 24.0555 145.416 23.0955V17.6055H147.666V22.7895C147.666 23.6535 147.858 24.3015 148.242 24.7335C148.638 25.1535 149.196 25.3635 149.916 25.3635C150.444 25.3635 150.9 25.2555 151.284 25.0395C151.68 24.8235 151.986 24.4995 152.202 24.0675C152.43 23.6355 152.544 23.1015 152.544 22.4655V17.6055H154.794V27.2175H152.652V24.6255L153.03 25.4175C152.706 26.0415 152.232 26.5215 151.608 26.8575C150.984 27.1815 150.3 27.3435 149.556 27.3435Z" fill="#051226"/>
<path d="M139.339 17.4971C140.107 17.4971 140.791 17.6471 141.391 17.9471C142.003 18.2471 142.483 18.7091 142.831 19.3331C143.179 19.9451 143.353 20.7371 143.353 21.7091V27.2171H141.103V21.9971C141.103 21.1451 140.899 20.5091 140.491 20.0891C140.095 19.6691 139.537 19.4591 138.817 19.4591C138.289 19.4591 137.821 19.5671 137.413 19.7831C137.005 19.9991 136.687 20.3231 136.459 20.7551C136.243 21.1751 136.135 21.7091 136.135 22.3571V27.2171H133.885V17.6051H136.027V20.1971L135.649 19.4051C135.985 18.7931 136.471 18.3251 137.107 18.0011C137.755 17.6651 138.499 17.4971 139.339 17.4971Z" fill="#051226"/>
<path d="M126.462 30.8351C125.574 30.8351 124.704 30.7151 123.852 30.4751C123.012 30.2471 122.322 29.9111 121.782 29.4671L122.79 27.7751C123.21 28.1231 123.738 28.3991 124.374 28.6031C125.022 28.8191 125.676 28.9271 126.336 28.9271C127.392 28.9271 128.166 28.6811 128.658 28.1891C129.15 27.7091 129.396 26.9831 129.396 26.0111V24.3011L129.576 22.1231L129.504 19.9451V17.6051H131.646V25.7591C131.646 27.4991 131.202 28.7771 130.314 29.5931C129.426 30.4211 128.142 30.8351 126.462 30.8351ZM126.174 26.7851C125.262 26.7851 124.434 26.5931 123.69 26.2091C122.958 25.8131 122.376 25.2671 121.944 24.5711C121.524 23.8751 121.314 23.0591 121.314 22.1231C121.314 21.1991 121.524 20.3891 121.944 19.6931C122.376 18.9971 122.958 18.4571 123.69 18.0731C124.434 17.6891 125.262 17.4971 126.174 17.4971C126.99 17.4971 127.722 17.6591 128.37 17.9831C129.018 18.3071 129.534 18.8111 129.918 19.4951C130.314 20.1791 130.512 21.0551 130.512 22.1231C130.512 23.1911 130.314 24.0731 129.918 24.7691C129.534 25.4531 129.018 25.9631 128.37 26.2991C127.722 26.6231 126.99 26.7851 126.174 26.7851ZM126.516 24.8771C127.08 24.8771 127.584 24.7631 128.028 24.5351C128.472 24.2951 128.814 23.9711 129.054 23.5631C129.306 23.1431 129.432 22.6631 129.432 22.1231C129.432 21.5831 129.306 21.1091 129.054 20.7011C128.814 20.2811 128.472 19.9631 128.028 19.7471C127.584 19.5191 127.08 19.4051 126.516 19.4051C125.952 19.4051 125.442 19.5191 124.986 19.7471C124.542 19.9631 124.194 20.2811 123.942 20.7011C123.702 21.1091 123.582 21.5831 123.582 22.1231C123.582 22.6631 123.702 23.1431 123.942 23.5631C124.194 23.9711 124.542 24.2951 124.986 24.5351C125.442 24.7631 125.952 24.8771 126.516 24.8771Z" fill="#051226"/>
<path d="M117.803 27.2171V25.2731L117.677 24.8591V21.4571C117.677 20.7971 117.479 20.2871 117.083 19.9271C116.687 19.5551 116.087 19.3691 115.283 19.3691C114.743 19.3691 114.209 19.4531 113.681 19.6211C113.165 19.7891 112.727 20.0231 112.367 20.3231L111.485 18.6851C112.001 18.2891 112.613 17.9951 113.321 17.8031C114.041 17.5991 114.785 17.4971 115.553 17.4971C116.945 17.4971 118.019 17.8331 118.775 18.5051C119.543 19.1651 119.927 20.1911 119.927 21.5831V27.2171H117.803ZM114.779 27.3431C114.059 27.3431 113.429 27.2231 112.889 26.9831C112.349 26.7311 111.929 26.3891 111.629 25.9571C111.341 25.5131 111.197 25.0151 111.197 24.4631C111.197 23.9231 111.323 23.4371 111.575 23.0051C111.839 22.5731 112.265 22.2311 112.853 21.9791C113.441 21.7271 114.221 21.6011 115.193 21.6011H117.983V23.0951H115.355C114.587 23.0951 114.071 23.2211 113.807 23.4731C113.543 23.7131 113.411 24.0131 113.411 24.3731C113.411 24.7811 113.573 25.1051 113.897 25.3451C114.221 25.5851 114.671 25.7051 115.247 25.7051C115.799 25.7051 116.291 25.5791 116.723 25.3271C117.167 25.0751 117.485 24.7031 117.677 24.2111L118.055 25.5611C117.839 26.1251 117.449 26.5631 116.885 26.8751C116.333 27.1871 115.631 27.3431 114.779 27.3431Z" fill="#051226"/>
<path d="M95.627 27.2172V14.6172H97.553L103.061 23.8152H102.053L107.471 14.6172H109.397L109.415 27.2172H107.201L107.183 18.0912H107.651L103.043 25.7772H101.999L97.319 18.0912H97.859V27.2172H95.627Z" fill="#051226"/>
<path d="M89.5871 27.3077C88.6031 27.3077 87.7391 27.1037 86.9951 26.6957C86.2511 26.2757 85.6691 25.7057 85.2491 24.9857C84.8291 24.2537 84.6191 23.4197 84.6191 22.4837C84.6191 21.5477 84.8171 20.7197 85.2131 19.9997C85.6211 19.2797 86.1731 18.7157 86.8691 18.3077C87.5771 17.8877 88.3691 17.6777 89.2451 17.6777C90.1331 17.6777 90.9191 17.8817 91.6031 18.2897C92.2991 18.6857 92.8451 19.2497 93.2411 19.9817C93.6371 20.7017 93.8351 21.5357 93.8351 22.4837C93.8351 22.5437 93.8291 22.6097 93.8171 22.6817C93.8171 22.7417 93.8171 22.8077 93.8171 22.8797H85.5911V21.9257H93.1331L92.6291 22.3037C92.6291 21.6197 92.4791 21.0137 92.1791 20.4857C91.8911 19.9457 91.4951 19.5257 90.9911 19.2257C90.4871 18.9257 89.9051 18.7757 89.2451 18.7757C88.5971 18.7757 88.0151 18.9257 87.4991 19.2257C86.9831 19.5257 86.5811 19.9457 86.2931 20.4857C86.0051 21.0257 85.8611 21.6437 85.8611 22.3397V22.5377C85.8611 23.2577 86.0171 23.8937 86.3291 24.4457C86.6531 24.9857 87.0971 25.4117 87.6611 25.7237C88.2371 26.0237 88.8911 26.1737 89.6231 26.1737C90.1991 26.1737 90.7331 26.0717 91.2251 25.8677C91.7291 25.6637 92.1611 25.3517 92.5211 24.9317L93.2411 25.7597C92.8211 26.2637 92.2931 26.6477 91.6571 26.9117C91.0331 27.1757 90.3431 27.3077 89.5871 27.3077Z" fill="#051226"/>
<path d="M79.291 27.2177V17.7677H80.515V20.3417L80.389 19.8917C80.653 19.1717 81.097 18.6257 81.721 18.2537C82.345 17.8697 83.119 17.6777 84.043 17.6777V18.9197C83.995 18.9197 83.947 18.9197 83.899 18.9197C83.851 18.9077 83.803 18.9017 83.755 18.9017C82.759 18.9017 81.979 19.2077 81.415 19.8197C80.851 20.4197 80.569 21.2777 80.569 22.3937V27.2177H79.291Z" fill="#051226"/>
<path d="M75.3175 27.2177V25.1297L75.2635 24.7877V21.2957C75.2635 20.4917 75.0355 19.8737 74.5795 19.4417C74.1355 19.0097 73.4695 18.7937 72.5815 18.7937C71.9695 18.7937 71.3875 18.8957 70.8355 19.0997C70.2835 19.3037 69.8155 19.5737 69.4315 19.9097L68.8555 18.9557C69.3355 18.5477 69.9115 18.2357 70.5835 18.0197C71.2555 17.7917 71.9635 17.6777 72.7075 17.6777C73.9315 17.6777 74.8735 17.9837 75.5335 18.5957C76.2055 19.1957 76.5415 20.1137 76.5415 21.3497V27.2177H75.3175ZM72.0595 27.3077C71.3515 27.3077 70.7335 27.1937 70.2055 26.9657C69.6895 26.7257 69.2935 26.4017 69.0175 25.9937C68.7415 25.5737 68.6035 25.0937 68.6035 24.5537C68.6035 24.0617 68.7175 23.6177 68.9455 23.2217C69.1855 22.8137 69.5695 22.4897 70.0975 22.2497C70.6375 21.9977 71.3575 21.8717 72.2575 21.8717H75.5155V22.8257H72.2935C71.3815 22.8257 70.7455 22.9877 70.3855 23.3117C70.0375 23.6357 69.8635 24.0377 69.8635 24.5177C69.8635 25.0577 70.0735 25.4897 70.4935 25.8137C70.9135 26.1377 71.5015 26.2997 72.2575 26.2997C72.9775 26.2997 73.5955 26.1377 74.1115 25.8137C74.6395 25.4777 75.0235 24.9977 75.2635 24.3737L75.5515 25.2557C75.3115 25.8797 74.8915 26.3777 74.2915 26.7497C73.7035 27.1217 72.9595 27.3077 72.0595 27.3077Z" fill="#051226"/>
<path d="M56.5035 27.2176L52.9395 17.7676H54.1635L57.4035 26.5336H56.8455L60.1755 17.7676H61.2735L64.5675 26.5336H64.0095L67.3035 17.7676H68.4735L64.8915 27.2176H63.6855L60.5175 18.9736H60.8955L57.7095 27.2176H56.5035Z" fill="#051226"/>
<path d="M41.127 27.2172L46.887 14.6172H48.201L53.961 27.2172H52.557L47.265 15.3912H47.805L42.513 27.2172H41.127ZM43.395 23.8512L43.791 22.7712H51.117L51.513 23.8512H43.395Z" fill="#051226"/>
</svg>
