<svg width="114" height="15" viewBox="0 0 114 15" fill="none" xmlns="http://www.w3.org/2000/svg">
<path d="M0 11.5225L5.24077 0H6.43494L11.6757 11.5225H10.4001L5.58545 0.709247H6.07669L1.26202 11.5225H0ZM2.06265 8.44549L2.42362 7.458H9.08382L9.44478 8.44549H2.06265Z" fill="#0C1836"/>
<path d="M14.6584 11.5225L11.4152 2.88062H12.5279L15.4753 10.8978H14.9678L17.9994 2.88062H18.9981L21.9835 10.8978H21.4869L24.4723 2.88062H25.5362L22.2794 11.5225H21.1938L18.3115 3.98267H18.6562L15.7549 11.5225H14.6584Z" fill="#0C1836"/>
<path d="M29.4607 11.6044C28.8855 11.6177 28.314 11.5089 27.7834 11.2852C27.3449 11.0984 26.9683 10.79 26.6978 10.3959C26.4433 10.0078 26.3117 9.55131 26.3205 9.08656C26.315 8.65582 26.4257 8.23161 26.6408 7.85902C26.8894 7.4609 27.2558 7.15091 27.6884 6.97246C28.3094 6.72136 28.9765 6.60605 29.6452 6.63421H32.6089V7.50712H29.6778C28.8473 7.50712 28.271 7.65534 27.949 7.95177C27.7895 8.09903 27.6638 8.27941 27.5807 8.48038C27.4975 8.68134 27.4588 8.89809 27.4674 9.11558C27.4759 9.33307 27.5314 9.54609 27.63 9.73986C27.7286 9.93364 27.868 10.1035 28.0385 10.2377C28.5101 10.5612 29.0754 10.7176 29.6452 10.6824C30.2414 10.6986 30.8295 10.5414 31.3388 10.2295C31.8203 9.9194 32.1851 9.45671 32.3755 8.91471L32.6469 9.73307C32.4291 10.3021 32.029 10.7819 31.5098 11.097C30.8886 11.4585 30.1778 11.6345 29.4607 11.6044ZM32.4271 11.5226V9.61304L32.3755 9.29934V6.10773C32.396 5.79761 32.3521 5.4866 32.2465 5.19449C32.1409 4.90238 31.9759 4.63555 31.7622 4.41099C31.3532 4.01454 30.7444 3.81722 29.9356 3.81904C29.3944 3.81337 28.8565 3.90578 28.3479 4.09183C27.8806 4.25797 27.4474 4.5085 27.0696 4.83108L26.5458 3.95816C27.01 3.57097 27.5446 3.2782 28.1199 3.09616C28.7434 2.88991 29.396 2.78673 30.0523 2.79063C31.1651 2.79063 32.0245 3.06797 32.6306 3.62263C33.2368 4.1773 33.5398 5.01931 33.5398 6.14864V11.5226H32.4271Z" fill="#0C1836"/>
<path d="M36.699 11.5226V2.88074H37.8144V5.2349L37.7004 4.82299C37.9166 4.1944 38.3449 3.66167 38.9109 3.3172C39.5537 2.95202 40.2845 2.77264 41.0224 2.79891V3.9337H40.8921C40.8488 3.93099 40.8052 3.93099 40.7619 3.9337C40.3693 3.91035 39.9763 3.97125 39.609 4.11235C39.2416 4.25345 38.9084 4.47152 38.6314 4.75206C38.1193 5.29764 37.8633 6.08508 37.8633 7.1144V11.5226H36.699Z" fill="#0C1836"/>
<path d="M46.7056 11.6043C45.8839 11.6226 45.0715 11.4271 44.3471 11.0369C43.6855 10.6718 43.1363 10.1311 42.7594 9.47381C42.3721 8.77788 42.1772 7.99048 42.1949 7.1933C42.1773 6.40143 42.3643 5.61851 42.7377 4.92099C43.0914 4.27587 43.6118 3.73868 44.2439 3.3661C44.9017 2.99675 45.642 2.80148 46.3954 2.79862C47.1488 2.79575 47.8906 2.98539 48.5511 3.34973C49.1778 3.71776 49.6907 4.25314 50.0329 4.89644C50.4047 5.60343 50.5915 6.39381 50.5758 7.1933C50.5758 7.24786 50.5758 7.30515 50.5758 7.36516C50.5758 7.4279 50.5758 7.49064 50.5758 7.55611H43.0715V6.68319H49.9325L49.4739 7.02963C49.4832 6.45049 49.3449 5.87859 49.0722 5.36836C48.8208 4.89495 48.4454 4.49968 47.9866 4.22538C47.505 3.94423 46.9557 3.80172 46.3989 3.81347C45.8415 3.80413 45.292 3.94645 44.8085 4.22538C44.3456 4.49827 43.9692 4.89741 43.7229 5.37654C43.4541 5.90071 43.3189 6.48369 43.3293 7.07328V7.25332C43.316 7.86124 43.4661 8.46151 43.7636 8.99097C44.0505 9.48722 44.471 9.89193 44.9767 10.1585C45.524 10.446 46.1344 10.5904 46.7517 10.5786C47.2534 10.5858 47.7515 10.4931 48.2173 10.3058C48.6704 10.1195 49.0725 9.82672 49.3897 9.45198L50.0438 10.2076C49.6588 10.6709 49.1668 11.0324 48.6108 11.2606C48.0054 11.5036 47.3572 11.6205 46.7056 11.6043Z" fill="#0C1836"/>
<path d="M53.0509 11.5225V0H54.3943L59.5374 8.70737H58.8155L63.8934 0H65.2368L65.2531 11.5225H63.679L63.6627 2.48509H64.04L59.5211 10.1231H58.7503L54.1989 2.48509H54.6087V11.5225H53.0509Z" fill="#0C1836"/>
<path d="M70.3365 11.6207C69.755 11.6335 69.1775 11.521 68.6429 11.2906C68.1907 11.099 67.8013 10.7832 67.5193 10.3795C67.2583 9.98769 67.122 9.5253 67.1285 9.05377C67.123 8.60314 67.2383 8.15933 67.4623 7.76894C67.7202 7.35577 68.0996 7.03351 68.548 6.84692C69.203 6.59167 69.9032 6.47467 70.6052 6.50321H73.3572V7.63801H70.692C69.905 7.63801 69.3757 7.76985 69.1043 8.03355C68.9728 8.15456 68.8682 8.30221 68.7976 8.46678C68.727 8.63135 68.6918 8.80909 68.6945 8.9883C68.6896 9.18557 68.7322 9.38111 68.8187 9.55826C68.9052 9.73542 69.033 9.88896 69.1912 10.0058C69.606 10.2861 70.1007 10.4222 70.5998 10.3932C71.1416 10.4049 71.6764 10.2681 72.1467 9.99762C72.5882 9.73469 72.9264 9.32734 73.1048 8.84373L73.4169 9.93487C73.2043 10.461 72.8168 10.8967 72.3204 11.1679C71.7102 11.4914 71.0259 11.6475 70.3365 11.6207ZM73.1862 11.5225V9.67846L73.1048 9.33201V6.18678C73.1217 5.90118 73.0787 5.61519 72.9787 5.34734C72.8786 5.07949 72.7237 4.83575 72.524 4.63189C72.1368 4.26818 71.5551 4.08632 70.7789 4.08632C70.2663 4.08619 69.7572 4.17193 69.2726 4.34001C68.8188 4.48884 68.3964 4.721 68.0269 5.02471L67.3728 3.83808C67.8523 3.45966 68.3995 3.17723 68.9849 3.00608C69.6257 2.8181 70.2905 2.72618 70.958 2.73329C72.1486 2.73329 73.0659 3.02427 73.71 3.60621C74.3541 4.18816 74.6762 5.07654 74.6762 6.27134V11.5225H73.1862Z" fill="#0C1836"/>
<path d="M80.5385 11.1598C79.7549 11.1705 78.9812 10.9829 78.2886 10.6142C77.6399 10.2694 77.096 9.75477 76.7145 9.12478C76.3199 8.45799 76.1187 7.69359 76.1337 6.91793C76.1168 6.14032 76.3181 5.37366 76.7145 4.70563C77.0968 4.08045 77.6409 3.57132 78.2886 3.23258C78.9837 2.87279 79.7568 2.6919 80.5385 2.7061C81.2419 2.69674 81.9378 2.85176 82.5713 3.15892C83.187 3.46409 83.6975 3.94773 84.0369 4.54741C84.4245 5.27496 84.6118 6.09329 84.5797 6.91793C84.6105 7.73723 84.4231 8.54993 84.0369 9.27208C83.6959 9.87527 83.1863 10.3647 82.5713 10.6797C81.9417 11.001 81.2446 11.1656 80.5385 11.1598ZM80.7366 14.8151C79.9518 14.8162 79.171 14.7022 78.4189 14.4769C77.7473 14.2939 77.1238 13.9652 76.5923 13.5139L77.3468 12.2973C77.7866 12.6637 78.2925 12.9415 78.8368 13.1157C79.4324 13.321 80.0581 13.4243 80.6878 13.4212C81.7137 13.4212 82.4664 13.1793 82.9459 12.6956C83.4253 12.2118 83.666 11.4771 83.6678 10.4914V8.65831L83.8306 6.92884L83.7492 5.18573V2.79885H85.2392V10.336C85.2392 11.8745 84.8574 13.0056 84.0939 13.7294C83.3303 14.4532 82.2104 14.8151 80.7339 14.8151H80.7366ZM80.7339 9.77674C81.2687 9.78708 81.7976 9.66332 82.2728 9.41666C82.7098 9.18467 83.075 8.83647 83.3285 8.41008C83.5813 7.95772 83.714 7.44764 83.714 6.92884C83.714 6.41004 83.5813 5.89996 83.3285 5.44761C83.0752 5.0238 82.7097 4.67909 82.2728 4.45194C81.796 4.21055 81.2677 4.08976 80.7339 4.10004C80.1967 4.09006 79.665 4.21079 79.1842 4.45194C78.7444 4.67797 78.376 5.02277 78.1203 5.44761C77.8676 5.89996 77.7349 6.41004 77.7349 6.92884C77.7349 7.44764 77.8676 7.95772 78.1203 8.41008C78.3767 8.83705 78.7447 9.18519 79.1842 9.41666C79.6634 9.66304 80.1957 9.78673 80.7339 9.77674Z" fill="#0C1836"/>
<path d="M91.8885 2.71687C92.5364 2.70334 93.1782 2.84451 93.7612 3.12878C94.3025 3.4028 94.7455 3.83948 95.0287 4.37815C95.3575 5.03625 95.5152 5.76727 95.4873 6.50316V11.5224H93.9159V6.6832C93.9159 5.83756 93.7114 5.20105 93.3025 4.77369C93.0763 4.55416 92.8075 4.38392 92.5128 4.27361C92.2181 4.16331 91.904 4.11532 91.59 4.13264C91.0849 4.12084 90.5846 4.23321 90.1326 4.45998C89.7214 4.67684 89.3868 5.01598 89.1745 5.43111C88.9356 5.92884 88.8201 6.4773 88.838 7.02964V11.5224H87.2476V2.79325H88.7538V5.14741L88.5096 4.52C88.7943 3.94562 89.2547 3.4781 89.8232 3.18607C90.4619 2.85893 91.1719 2.69763 91.8885 2.71687Z" fill="#0C1836"/>
<path d="M100.747 11.6208C100.072 11.6356 99.4027 11.4947 98.7903 11.2089C98.2323 10.9392 97.7734 10.499 97.4795 9.95131C97.1502 9.29232 96.9915 8.56052 97.0181 7.82357V2.79883H98.5895V7.63807C98.5895 8.49462 98.7939 9.13658 99.2028 9.56395C99.431 9.78557 99.7025 9.95702 100 10.0674C100.298 10.1778 100.615 10.2246 100.932 10.205C101.427 10.217 101.918 10.1015 102.357 9.86947C102.76 9.64164 103.085 9.29645 103.29 8.87925C103.52 8.38854 103.632 7.85021 103.616 7.308V2.79883H105.187V11.528H103.695V9.16841L103.942 9.79309C103.669 10.3715 103.221 10.8488 102.663 11.157C102.075 11.476 101.415 11.6358 100.747 11.6208Z" fill="#0C1836"/>
<path d="M110.015 11.6207C109.32 11.6243 108.628 11.525 107.961 11.3261C107.412 11.1763 106.894 10.9307 106.43 10.6005L107.084 9.34842C107.51 9.63174 107.973 9.85308 108.46 10.0058C109 10.1834 109.564 10.2754 110.132 10.2786C110.856 10.2786 111.382 10.175 111.712 9.96765C111.862 9.87866 111.987 9.7508 112.072 9.59732C112.156 9.44383 112.199 9.27031 112.195 9.09473C112.201 8.97176 112.177 8.84914 112.126 8.73745C112.074 8.62576 111.996 8.52837 111.899 8.45368C111.672 8.28012 111.41 8.1582 111.131 8.09633C110.808 8.01995 110.45 7.95175 110.045 7.88901C109.641 7.82627 109.261 7.75261 108.867 7.65987C108.491 7.57366 108.126 7.4408 107.782 7.26432C107.463 7.10182 107.191 6.85826 106.995 6.55781C106.783 6.19095 106.681 5.77032 106.702 5.34663C106.692 4.84949 106.847 4.36322 107.141 3.9636C107.47 3.5391 107.913 3.21743 108.417 3.03612C109.025 2.81317 109.669 2.70497 110.317 2.71696C110.899 2.71876 111.479 2.7874 112.046 2.92155C112.554 3.02784 113.04 3.2256 113.479 3.50532L112.805 4.75741C112.433 4.50128 112.018 4.31632 111.579 4.21184C111.16 4.11439 110.731 4.06498 110.3 4.06453C109.766 4.02799 109.233 4.14433 108.762 4.40006C108.609 4.48674 108.482 4.61228 108.393 4.76408C108.303 4.91587 108.256 5.08856 108.254 5.2648C108.247 5.39433 108.27 5.52372 108.323 5.6423C108.375 5.76087 108.455 5.86523 108.555 5.94676C108.79 6.12249 109.058 6.24868 109.342 6.31775C109.695 6.41243 110.053 6.48711 110.414 6.54144C110.809 6.60145 111.202 6.67783 111.595 6.77058C111.971 6.85594 112.335 6.98598 112.681 7.15794C112.997 7.31742 113.268 7.55487 113.468 7.84809C113.684 8.20425 113.789 8.61774 113.769 9.03471C113.779 9.52926 113.617 10.0118 113.31 10.3986C112.968 10.8092 112.522 11.1185 112.018 11.2934C111.376 11.5246 110.697 11.6356 110.015 11.6207Z" fill="#0C1836"/>
</svg>
