<svg width="30" height="31" viewBox="0 0 30 31" fill="none" xmlns="http://www.w3.org/2000/svg">
<rect y="0.839844" width="30" height="30" rx="15" fill="#FCF8FF"/>
<path d="M15.8604 12.0898C16.7747 13.1229 17.2701 14.4604 17.2494 15.8398C17.2701 17.2193 16.7747 18.5567 15.8604 19.5898" stroke="#9E3BE9" stroke-linecap="round" stroke-linejoin="round"/>
<path d="M14.3743 13.3398C14.9311 14.0526 15.2253 14.9353 15.2075 15.8396C15.2253 16.7438 14.9311 17.6266 14.3743 18.3393" stroke="#9E3BE9" stroke-linecap="round" stroke-linejoin="round"/>
<path fill-rule="evenodd" clip-rule="evenodd" d="M9.12868 11.9612L11.1213 9.96852C11.6839 9.40591 12.447 9.08984 13.2426 9.08984H16.7566C17.5523 9.08984 18.3153 9.40591 18.8779 9.96852L20.8713 11.9619C21.4339 12.5245 21.75 13.2876 21.75 14.0832V17.5957C21.75 18.3913 21.4339 19.1544 20.8713 19.717L18.8772 21.7112C18.3146 22.2738 17.5515 22.5898 16.7559 22.5898H13.2434C12.448 22.5898 11.6851 22.2739 11.1225 21.7116L9.12907 19.7189C8.56622 19.1563 8.25 18.393 8.25 17.5972V14.0825C8.25 13.2868 8.56607 12.5238 9.12868 11.9612Z" stroke="#9E3BE9" stroke-linecap="round" stroke-linejoin="round"/>
<path d="M12.75 14.5898C13.306 15.3306 13.306 16.3496 12.75 17.0903" stroke="#9E3BE9" stroke-linecap="round" stroke-linejoin="round"/>
</svg>
