<svg width="30" height="31" viewBox="0 0 30 31" fill="none" xmlns="http://www.w3.org/2000/svg">
<rect y="0.839844" width="30" height="30" rx="15" fill="#F0FAF8"/>
<path fill-rule="evenodd" clip-rule="evenodd" d="M19.6531 11.1611C18.4186 9.92589 16.7769 9.24489 15.0279 9.24414C11.4226 9.24414 8.48936 12.1759 8.48861 15.7796C8.48711 16.9264 8.78786 18.0536 9.36086 19.0474L8.43311 22.4344L11.8996 21.5254C12.8589 22.0474 13.9329 22.3211 15.0249 22.3211H15.0279C18.6316 22.3211 21.5649 19.3886 21.5664 15.7849C21.5671 14.0389 20.8876 12.3971 19.6531 11.1611Z" stroke="#47E7C5" stroke-linecap="round" stroke-linejoin="round"/>
<path d="M15.8213 17.0098L16.1258 16.7075C16.4055 16.43 16.848 16.3948 17.1705 16.6213C17.4825 16.8403 17.7645 17.0368 18.027 17.2198C18.444 17.5093 18.4943 18.1033 18.135 18.4618L17.8658 18.731" stroke="#47E7C5" stroke-linecap="round" stroke-linejoin="round"/>
<path d="M12.1089 12.9746L12.3781 12.7054C12.7366 12.3469 13.3306 12.3971 13.6201 12.8134C13.8024 13.0759 13.9989 13.3579 14.2186 13.6699C14.4451 13.9924 14.4106 14.4349 14.1324 14.7146L13.8301 15.0191" stroke="#47E7C5" stroke-linecap="round" stroke-linejoin="round"/>
<path d="M17.8658 18.7318C16.7551 19.8373 14.8883 18.8983 13.4146 17.4238" stroke="#47E7C5" stroke-linecap="round" stroke-linejoin="round"/>
<path d="M13.416 17.4259C11.9423 15.9514 11.0033 14.0854 12.1088 12.9746" stroke="#47E7C5" stroke-linecap="round" stroke-linejoin="round"/>
<path d="M13.8301 15.0186C14.0693 15.3958 14.3761 15.7693 14.7226 16.1158L14.7241 16.1173C15.0706 16.4638 15.4441 16.7706 15.8213 17.0098" stroke="#47E7C5" stroke-linecap="round" stroke-linejoin="round"/>
</svg>
