<svg width="17" height="16" viewBox="0 0 17 16" fill="none" xmlns="http://www.w3.org/2000/svg">
<path fill-rule="evenodd" clip-rule="evenodd" d="M9.44267 9.33301H10.776C11.144 9.33301 11.4427 9.63167 11.4427 9.99967V12.6663C11.4427 13.0343 11.144 13.333 10.776 13.333H9.44267C9.07467 13.333 8.776 13.0343 8.776 12.6663V9.99967C8.776 9.63167 9.07467 9.33301 9.44267 9.33301Z" stroke="#051226" stroke-linecap="round" stroke-linejoin="round"/>
<path d="M14.1094 11.3333H11.4427" stroke="#051226" stroke-linecap="round" stroke-linejoin="round"/>
<path d="M8.77604 11.3333H2.10938" stroke="#051226" stroke-linecap="round" stroke-linejoin="round"/>
<path fill-rule="evenodd" clip-rule="evenodd" d="M6.776 6.66699H5.44267C5.07467 6.66699 4.776 6.36833 4.776 6.00033V3.33366C4.776 2.96566 5.07467 2.66699 5.44267 2.66699H6.776C7.144 2.66699 7.44267 2.96566 7.44267 3.33366V6.00033C7.44267 6.36833 7.144 6.66699 6.776 6.66699Z" stroke="#051226" stroke-linecap="round" stroke-linejoin="round"/>
<path d="M2.10938 4.66634H4.77604" stroke="#051226" stroke-linecap="round" stroke-linejoin="round"/>
<path d="M7.44275 4.66634H14.1094" stroke="#051226" stroke-linecap="round" stroke-linejoin="round"/>
</svg>
