<svg width="41" height="41" viewBox="0 0 41 41" fill="none" xmlns="http://www.w3.org/2000/svg">
<rect x="0.960938" y="0.891602" width="40" height="40" rx="20" fill="#E7FBFA"/>
<path fill-rule="evenodd" clip-rule="evenodd" d="M27.3749 15.3056L24.5469 12.4776C24.1719 12.1026 23.6629 11.8916 23.1329 11.8916H15.9609C14.8559 11.8916 13.9609 12.7866 13.9609 13.8916V27.8916C13.9609 28.9966 14.8559 29.8916 15.9609 29.8916H25.9609C27.0659 29.8916 27.9609 28.9966 27.9609 27.8916V16.7196C27.9609 16.1896 27.7499 15.6806 27.3749 15.3056V15.3056Z" stroke="#00CCC4" stroke-width="1.5" stroke-linecap="round" stroke-linejoin="round"/>
<path d="M27.9609 16.8916H23.9609C23.4089 16.8916 22.9609 16.4436 22.9609 15.8916V11.8916" stroke="#00CCC4" stroke-width="1.5" stroke-linecap="round" stroke-linejoin="round"/>
<path d="M16.9609 19.8916H22.9609" stroke="#00CCC4" stroke-width="1.5" stroke-linecap="round" stroke-linejoin="round"/>
<path d="M16.9609 22.8916H22.9609" stroke="#00CCC4" stroke-width="1.5" stroke-linecap="round" stroke-linejoin="round"/>
<path d="M16.9609 25.8916H21.2909" stroke="#00CCC4" stroke-width="1.5" stroke-linecap="round" stroke-linejoin="round"/>
</svg>
