<svg width="19" height="19" viewBox="0 0 19 19" fill="none" xmlns="http://www.w3.org/2000/svg">
<path d="M5.35156 6.3916C5.07542 6.3916 4.85156 6.61546 4.85156 6.8916C4.85156 7.16774 5.07542 7.3916 5.35156 7.3916V6.3916ZM12.8516 7.3916C13.1277 7.3916 13.3516 7.16774 13.3516 6.8916C13.3516 6.61546 13.1277 6.3916 12.8516 6.3916V7.3916ZM5.35156 9.3916C5.07542 9.3916 4.85156 9.61546 4.85156 9.8916C4.85156 10.1677 5.07542 10.3916 5.35156 10.3916V9.3916ZM11.3516 10.3916C11.6277 10.3916 11.8516 10.1677 11.8516 9.8916C11.8516 9.61546 11.6277 9.3916 11.3516 9.3916V10.3916ZM5.35156 12.3916C5.07542 12.3916 4.85156 12.6155 4.85156 12.8916C4.85156 13.1677 5.07542 13.3916 5.35156 13.3916V12.3916ZM6.85156 13.3916C7.1277 13.3916 7.35156 13.1677 7.35156 12.8916C7.35156 12.6155 7.1277 12.3916 6.85156 12.3916V13.3916ZM10.998 14.7452C11.1933 14.9404 11.5099 14.9404 11.7051 14.7452C11.9004 14.5499 11.9004 14.2333 11.7051 14.038L10.998 14.7452ZM10.2051 12.538C10.0099 12.3428 9.69327 12.3428 9.49801 12.538C9.30275 12.7333 9.30275 13.0499 9.49801 13.2452L10.2051 12.538ZM13.9551 12.4952C14.1504 12.2999 14.1504 11.9833 13.9551 11.788C13.7599 11.5928 13.4433 11.5928 13.248 11.788L13.9551 12.4952ZM10.998 14.038C10.8027 14.2333 10.8027 14.5499 10.998 14.7452C11.1933 14.9404 11.5099 14.9404 11.7051 14.7452L10.998 14.038ZM5.35156 6.8916V7.3916H12.8516V6.8916V6.3916H5.35156V6.8916ZM5.35156 9.8916V10.3916H11.3516V9.8916V9.3916H5.35156V9.8916ZM5.35156 12.8916V13.3916H6.85156V12.8916V12.3916H5.35156V12.8916ZM14.3516 16.6416V16.1416H3.85156V16.6416V17.1416H14.3516V16.6416ZM3.85156 16.6416V16.1416C3.29895 16.1416 2.85156 15.6942 2.85156 15.1416H2.35156H1.85156C1.85156 16.2465 2.74667 17.1416 3.85156 17.1416V16.6416ZM2.35156 15.1416H2.85156V4.6416H2.35156H1.85156V15.1416H2.35156ZM2.35156 4.6416H2.85156C2.85156 4.08899 3.29895 3.6416 3.85156 3.6416V3.1416V2.6416C2.74667 2.6416 1.85156 3.53671 1.85156 4.6416H2.35156ZM3.85156 3.1416V3.6416H14.3516V3.1416V2.6416H3.85156V3.1416ZM14.3516 3.1416V3.6416C14.9042 3.6416 15.3516 4.08899 15.3516 4.6416H15.8516H16.3516C16.3516 3.53671 15.4565 2.6416 14.3516 2.6416V3.1416ZM15.8516 4.6416H15.3516V15.1416H15.8516H16.3516V4.6416H15.8516ZM15.8516 15.1416H15.3516C15.3516 15.6942 14.9042 16.1416 14.3516 16.1416V16.6416V17.1416C15.4565 17.1416 16.3516 16.2465 16.3516 15.1416H15.8516ZM11.3516 14.3916L11.7051 14.038L10.2051 12.538L9.85156 12.8916L9.49801 13.2452L10.998 14.7452L11.3516 14.3916ZM13.6016 12.1416L13.248 11.788L10.998 14.038L11.3516 14.3916L11.7051 14.7452L13.9551 12.4952L13.6016 12.1416Z" fill="#051226"/>
</svg>
