<svg width="24" height="24" viewBox="0 0 24 24" fill="none" xmlns="http://www.w3.org/2000/svg">
<path d="M10.5 3.25C14.4974 3.25 17.75 6.50257 17.75 10.5C17.75 11.9752 17.3046 13.3468 16.5439 14.4932L16.4316 14.6641L20.3838 18.6162C20.8414 19.0738 20.8702 19.7982 20.4697 20.2891L20.3838 20.3838C19.9269 20.8413 19.2014 20.8701 18.7109 20.4697L18.6162 20.3838L14.6641 16.4316L14.4932 16.5439C13.3468 17.3046 11.9752 17.75 10.5 17.75C6.50257 17.75 3.25 14.4974 3.25 10.5C3.25 6.50257 6.50257 3.25 10.5 3.25ZM10.5 5C7.46693 5 5 7.46693 5 10.5C5 13.5331 7.46693 16 10.5 16C13.5331 16 16 13.5331 16 10.5C16 7.46693 13.5331 5 10.5 5Z" fill="#656972" stroke="white" stroke-width="0.5"/>
</svg>
