<svg width="50" height="50" viewBox="0 0 50 50" fill="none" xmlns="http://www.w3.org/2000/svg">
<rect width="50" height="50" rx="25" fill="#3FBDFF"/>
<path d="M32.5833 14.1672H17.4167C15.9806 14.169 14.6039 14.7402 13.5884 15.7556C12.573 16.7711 12.0017 18.1478 12 19.5839L12 30.4172C12.0017 31.8533 12.573 33.2301 13.5884 34.2455C14.6039 35.261 15.9806 35.8322 17.4167 35.8339H32.5833C34.0194 35.8322 35.3961 35.261 36.4116 34.2455C37.427 33.2301 37.9983 31.8533 38 30.4172V19.5839C37.9983 18.1478 37.427 16.7711 36.4116 15.7556C35.3961 14.7402 34.0194 14.169 32.5833 14.1672ZM17.4167 23.9172H19.5833C19.8707 23.9172 20.1462 24.0314 20.3494 24.2345C20.5525 24.4377 20.6667 24.7133 20.6667 25.0006C20.6667 25.2879 20.5525 25.5634 20.3494 25.7666C20.1462 25.9698 19.8707 26.0839 19.5833 26.0839H17.4167C17.1293 26.0839 16.8538 25.9698 16.6506 25.7666C16.4475 25.5634 16.3333 25.2879 16.3333 25.0006C16.3333 24.7133 16.4475 24.4377 16.6506 24.2345C16.8538 24.0314 17.1293 23.9172 17.4167 23.9172ZM26.0833 31.5006H17.4167C17.1293 31.5006 16.8538 31.3864 16.6506 31.1833C16.4475 30.9801 16.3333 30.7046 16.3333 30.4172C16.3333 30.1299 16.4475 29.8544 16.6506 29.6512C16.8538 29.448 17.1293 29.3339 17.4167 29.3339H26.0833C26.3707 29.3339 26.6462 29.448 26.8494 29.6512C27.0525 29.8544 27.1667 30.1299 27.1667 30.4172C27.1667 30.7046 27.0525 30.9801 26.8494 31.1833C26.6462 31.3864 26.3707 31.5006 26.0833 31.5006ZM32.5833 31.5006H30.4167C30.1293 31.5006 29.8538 31.3864 29.6506 31.1833C29.4475 30.9801 29.3333 30.7046 29.3333 30.4172C29.3333 30.1299 29.4475 29.8544 29.6506 29.6512C29.8538 29.448 30.1293 29.3339 30.4167 29.3339H32.5833C32.8707 29.3339 33.1462 29.448 33.3494 29.6512C33.5525 29.8544 33.6667 30.1299 33.6667 30.4172C33.6667 30.7046 33.5525 30.9801 33.3494 31.1833C33.1462 31.3864 32.8707 31.5006 32.5833 31.5006ZM32.5833 26.0839H23.9167C23.6293 26.0839 23.3538 25.9698 23.1506 25.7666C22.9475 25.5634 22.8333 25.2879 22.8333 25.0006C22.8333 24.7133 22.9475 24.4377 23.1506 24.2345C23.3538 24.0314 23.6293 23.9172 23.9167 23.9172H32.5833C32.8707 23.9172 33.1462 24.0314 33.3494 24.2345C33.5525 24.4377 33.6667 24.7133 33.6667 25.0006C33.6667 25.2879 33.5525 25.5634 33.3494 25.7666C33.1462 25.9698 32.8707 26.0839 32.5833 26.0839Z" fill="white"/>
</svg>
