<svg width="35" height="34" viewBox="0 0 35 34" fill="none" xmlns="http://www.w3.org/2000/svg">
<rect x="0.5" width="34" height="34" rx="17" fill="#F98585"/>
<path fill-rule="evenodd" clip-rule="evenodd" d="M19 23.75H12.25C11.4212 23.75 10.75 23.0788 10.75 22.25V15.5C10.75 14.6712 11.4212 14 12.25 14H19C19.8288 14 20.5 14.6712 20.5 15.5V22.25C20.5 23.0788 19.8288 23.75 19 23.75Z" stroke="white" stroke-linecap="round" stroke-linejoin="round"/>
<path d="M13.8438 19.1809L15.0318 20.3689L17.6245 17.7754" stroke="white" stroke-linecap="round" stroke-linejoin="round"/>
<path d="M13.75 14V11.75C13.75 10.9212 14.4212 10.25 15.25 10.25H22.75C23.5788 10.25 24.25 10.9212 24.25 11.75V19.25C24.25 20.0788 23.5788 20.75 22.75 20.75H20.5" stroke="white" stroke-linecap="round" stroke-linejoin="round"/>
</svg>
