<svg width="24" height="24" viewBox="0 0 24 24" fill="none" xmlns="http://www.w3.org/2000/svg">
<path d="M16.29 9.54427L10.4353 15.399C10.2634 15.5709 10.0303 15.6676 9.78717 15.6676H8.33333C7.82707 15.6676 7.41667 15.2572 7.41667 14.7509V13.2971C7.41675 13.0537 7.51218 12.8201 7.6825 12.6463L14.1267 6.05544C14.7917 5.37519 15.7013 4.98937 16.6526 4.98403C17.6039 4.97869 18.5177 5.35428 19.1903 6.02702L19.2563 6.09302C19.9433 6.77452 20.3284 7.7029 20.3257 8.67055C20.3229 9.63819 19.9325 10.5644 19.2417 11.2419C17.0802 13.3585 14.1193 16.3047 12.4235 17.9969C11.5642 18.8535 10.4002 19.3345 9.18675 19.3343H6.5C4.98122 19.3343 3.75 18.1031 3.75 16.5843V13.8994C3.75 12.684 4.23273 11.5184 5.092 10.6589L10.79 4.96094" stroke="#00CCC4" stroke-width="1.5" stroke-linecap="round" stroke-linejoin="round"/>
</svg>
