<svg width="19" height="19" viewBox="0 0 19 19" fill="none" xmlns="http://www.w3.org/2000/svg">
<path d="M3.89258 7.25V3.125C3.89258 2.504 4.39658 2 5.01758 2V2C5.63858 2 6.14258 2.504 6.14258 3.125V8C6.14258 9.24275 5.13533 10.25 3.89258 10.25V10.25C2.64983 10.25 1.64258 9.24275 1.64258 8V4.25" stroke="#FAA139" stroke-linecap="round" stroke-linejoin="round"/>
<path d="M8.39258 6.5H12.1426" stroke="#FAA139" stroke-linecap="round" stroke-linejoin="round"/>
<path d="M8.39258 9.5H12.1426" stroke="#FAA139" stroke-linecap="round" stroke-linejoin="round"/>
<path d="M6.89258 12.5H12.1426" stroke="#FAA139" stroke-linecap="round" stroke-linejoin="round"/>
<path d="M3.89258 10.25V14.75C3.89258 15.5788 4.56383 16.25 5.39258 16.25H13.6426C14.4713 16.25 15.1426 15.5788 15.1426 14.75V4.25C15.1426 3.42125 14.4713 2.75 13.6426 2.75H6.14258" stroke="#FAA139" stroke-linecap="round" stroke-linejoin="round"/>
</svg>
