<svg width="25" height="24" viewBox="0 0 25 24" fill="none" xmlns="http://www.w3.org/2000/svg">
<path d="M6.01787 6.625L5.35088 3.625H3.42188" stroke="white" stroke-width="1.5" stroke-linecap="round" stroke-linejoin="round"/>
<path fill-rule="evenodd" clip-rule="evenodd" d="M7.78153 14.835L6.01953 6.625H18.6775C19.3145 6.625 19.7885 7.212 19.6555 7.835L18.1535 14.835C18.0545 15.296 17.6475 15.625 17.1755 15.625H8.75853C8.28753 15.625 7.88053 15.296 7.78153 14.835Z" stroke="white" stroke-width="1.5" stroke-linecap="round" stroke-linejoin="round"/>
<path d="M17.5175 19.25C17.3105 19.25 17.1425 19.418 17.1445 19.625C17.1445 19.832 17.3125 20 17.5195 20C17.7265 20 17.8945 19.832 17.8945 19.625C17.8935 19.418 17.7255 19.25 17.5175 19.25" stroke="white" stroke-width="1.5" stroke-linecap="round" stroke-linejoin="round"/>
<path d="M8.90867 19.25C8.70167 19.25 8.53367 19.418 8.53567 19.625C8.53467 19.832 8.70267 20 8.90967 20C9.11667 20 9.28467 19.832 9.28467 19.625C9.28467 19.418 9.11667 19.25 8.90867 19.25" stroke="white" stroke-width="1.5" stroke-linecap="round" stroke-linejoin="round"/>
</svg>
