<svg width="34" height="35" viewBox="0 0 34 35" fill="none" xmlns="http://www.w3.org/2000/svg">
<rect y="0.25" width="34" height="34" rx="17" fill="#F17767"/>
<path fill-rule="evenodd" clip-rule="evenodd" d="M20.7593 21.2204L19.7749 23.5171C19.6478 23.8132 19.3557 24.0043 19.0335 24.002C18.7113 23.9997 18.4218 23.8044 18.299 23.5066L15.5604 16.8565C15.4372 16.5577 15.5059 16.2141 15.7345 15.9855C15.9631 15.7569 16.3067 15.6882 16.6056 15.8114L23.2556 18.55C23.5535 18.6728 23.7487 18.9622 23.751 19.2844C23.7533 19.6066 23.5622 19.8988 23.2661 20.0259L20.9694 21.0103C20.8749 21.0507 20.7997 21.1259 20.7593 21.2204V21.2204Z" stroke="white" stroke-linecap="round" stroke-linejoin="round"/>
<path d="M12.7708 19.75L11.9297 20.5911" stroke="white" stroke-linecap="round" stroke-linejoin="round"/>
<path d="M16.133 10.4971V11.6863" stroke="white" stroke-linecap="round" stroke-linejoin="round"/>
<path d="M11.9297 12.1797L12.7708 13.0208" stroke="white" stroke-linecap="round" stroke-linejoin="round"/>
<path d="M10.2422 16.3859H11.4314" stroke="white" stroke-linecap="round" stroke-linejoin="round"/>
<path d="M20.3411 12.1797L19.5 13.0208" stroke="white" stroke-linecap="round" stroke-linejoin="round"/>
</svg>
