<svg width="44" height="44" viewBox="0 0 44 44" fill="none" xmlns="http://www.w3.org/2000/svg">
<rect width="44" height="44" rx="22" fill="#FAD15C"/>
<g clip-path="url(#clip0_57_5948)">
<path d="M28.9509 33.0009H28.9179C28.4069 32.9929 27.9209 32.7759 27.5739 32.4009L25.6559 30.5199C25.2719 30.1229 25.2809 29.4899 25.6779 29.1059C25.6789 29.1049 25.6799 29.1039 25.6809 29.1029C26.0779 28.7219 26.7079 28.7329 27.0909 29.1269L28.9519 30.9499L32.2929 27.6089C32.6829 27.2189 33.3169 27.2189 33.7069 27.6089C34.0969 27.9989 34.0969 28.6329 33.7069 29.0229L30.2859 32.4439C29.9339 32.8009 29.4529 33.0019 28.9509 33.0009Z" fill="white"/>
<path d="M24.0351 30.015C24.0311 26.718 26.7001 24.042 29.9961 24.037C31.2791 24.035 32.5291 24.447 33.5591 25.212C35.3321 18.827 31.5931 12.214 25.2091 10.441C18.8251 8.66803 12.2131 12.406 10.4401 18.791C8.66711 25.176 12.4061 31.79 18.7901 33.563C20.8901 34.146 23.1091 34.146 25.2091 33.563C24.4471 32.537 24.0351 31.293 24.0351 30.015ZM23.0001 22.022C23.0001 22.288 22.8941 22.542 22.7061 22.73L19.7011 25.736C19.3031 26.12 18.6691 26.109 18.2851 25.711C17.9101 25.323 17.9101 24.707 18.2851 24.319L20.9971 21.607V17.013C20.9971 16.46 21.4451 16.011 21.9991 16.011C22.5521 16.011 23.0001 16.46 23.0001 17.013V22.022Z" fill="white"/>
</g>
<defs>
<clipPath id="clip0_57_5948">
<rect width="24" height="24" fill="white" transform="translate(10 10)"/>
</clipPath>
</defs>
</svg>
