<svg width="19" height="19" viewBox="0 0 19 19" fill="none" xmlns="http://www.w3.org/2000/svg">
<path d="M2.5 6.77734V13.7501C2.5 14.5788 3.17125 15.2501 4 15.2501H14.4992C15.328 15.2501 15.9993 14.5788 15.9993 13.7501V6.77734" stroke="#706CE0" stroke-linecap="round" stroke-linejoin="round"/>
<path fill-rule="evenodd" clip-rule="evenodd" d="M3.16253 5.53371L8.40803 2.00496C8.91578 1.66371 9.57953 1.66371 10.0873 2.00496L15.3328 5.53371C16.2163 6.12846 16.2163 7.42821 15.3328 8.02296L10.9273 10.987C9.91178 11.6702 8.58428 11.6702 7.56878 10.987L3.16328 8.02296C2.27903 7.42821 2.27903 6.12771 3.16253 5.53371Z" stroke="#706CE0" stroke-linecap="round" stroke-linejoin="round"/>
<path d="M7.09281 10.6602L2.94531 14.8077" stroke="#706CE0" stroke-linecap="round" stroke-linejoin="round"/>
<path d="M15.5538 14.8077L11.4062 10.6602" stroke="#706CE0" stroke-linecap="round" stroke-linejoin="round"/>
</svg>
