<svg width="20" height="20" viewBox="0 0 20 20" fill="none" xmlns="http://www.w3.org/2000/svg">
<path d="M11.7674 8.23312C12.7433 9.20896 12.7433 10.7931 11.7674 11.7706C10.7916 12.7465 9.20742 12.7465 8.22992 11.7706C7.25409 10.7948 7.25409 9.21062 8.22992 8.23312C9.20742 7.25563 10.7908 7.25563 11.7674 8.23312" stroke="#57ABE6" stroke-linecap="round" stroke-linejoin="round"/>
<path d="M17.5007 13.334L15.0007 15.834L13.334 14.1673" stroke="#57ABE6" stroke-linecap="round" stroke-linejoin="round"/>
<path d="M10 15.8327C6.92417 15.8327 4.13417 14.1735 2.87167 11.5927V11.5927C2.62667 11.0918 2.5 10.5485 2.5 9.99935C2.5 9.45018 2.62667 8.90685 2.87167 8.40602V8.40602C4.13417 5.82518 6.92417 4.16602 10 4.16602C13.0758 4.16602 15.8658 5.82518 17.1283 8.40602V8.40602C17.3733 8.90685 17.5 9.45018 17.5 9.99935" stroke="#57ABE6" stroke-linecap="round" stroke-linejoin="round"/>
</svg>
