<svg width="44" height="44" viewBox="0 0 44 44" fill="none" xmlns="http://www.w3.org/2000/svg">
<rect width="44" height="44" rx="22" fill="#F68C8E"/>
<g clip-path="url(#clip0_57_5938)">
<path d="M33.9999 18.4802V30.0002C33.9999 30.2654 33.8946 30.5198 33.707 30.7073C33.5195 30.8948 33.2651 31.0002 32.9999 31.0002C32.7347 31.0002 32.4803 30.8948 32.2928 30.7073C32.1053 30.5198 31.9999 30.2654 31.9999 30.0002V21.7522L24.5999 25.2882C23.8197 25.7487 22.9289 25.9886 22.0229 25.9822C21.0728 25.9837 20.1399 25.7283 19.3229 25.2432L11.9429 21.7302C11.3628 21.4182 10.8767 20.9567 10.5351 20.3935C10.1935 19.8304 10.0089 19.186 10.0003 18.5274C9.99174 17.8688 10.1596 17.2199 10.4864 16.648C10.8132 16.0761 11.2871 15.6021 11.8589 15.2752C11.8859 15.2592 11.9149 15.2442 11.9429 15.2302L19.3999 11.6722C20.205 11.2098 21.1187 10.9703 22.047 10.9782C22.9754 10.9861 23.8848 11.2412 24.6819 11.7172L32.0569 15.2302C32.6388 15.5522 33.1252 16.0225 33.4664 16.5933C33.8077 17.1641 33.9918 17.8152 33.9999 18.4802ZM22.0219 27.9802C20.7425 27.983 19.485 27.6477 18.3769 27.0082L13.9999 24.9192V27.6192C14.0005 28.6867 14.3423 29.7261 14.9753 30.5856C15.6084 31.4452 16.4996 32.0799 17.5189 32.3972C18.9752 32.8153 20.4849 33.0185 21.9999 33.0002C23.5152 33.0172 25.0248 32.8127 26.4809 32.3932C27.5002 32.0759 28.3914 31.4412 29.0245 30.5816C29.6575 29.7221 29.9993 28.6827 29.9999 27.6152V24.9242L25.5409 27.0542C24.4706 27.6691 23.2563 27.9893 22.0219 27.9822V27.9802Z" fill="white"/>
</g>
<defs>
<clipPath id="clip0_57_5938">
<rect width="24" height="24" fill="white" transform="translate(10 10)"/>
</clipPath>
</defs>
</svg>
