<svg width="32" height="32" viewBox="0 0 32 32" fill="none" xmlns="http://www.w3.org/2000/svg">
<path d="M4 14.6665H8C8.70724 14.6665 9.38552 14.9475 9.88562 15.4476C10.3857 15.9477 10.6667 16.6259 10.6667 17.3332V21.3332C10.6667 22.0404 10.3857 22.7187 9.88562 23.2188C9.38552 23.7189 8.70724 23.9998 8 23.9998H6.66667C5.95942 23.9998 5.28115 23.7189 4.78105 23.2188C4.28095 22.7187 4 22.0404 4 21.3332V14.6665ZM4 14.6665C4 13.0906 4.31039 11.5302 4.91345 10.0743C5.5165 8.6184 6.40042 7.29553 7.51472 6.18122C8.62902 5.06692 9.95189 4.18301 11.4078 3.57995C12.8637 2.97689 14.4241 2.6665 16 2.6665C17.5759 2.6665 19.1363 2.97689 20.5922 3.57995C22.0481 4.18301 23.371 5.06692 24.4853 6.18122C25.5996 7.29553 26.4835 8.6184 27.0866 10.0743C27.6896 11.5302 28 13.0906 28 14.6665M28 14.6665V21.3332C28 22.0404 27.719 22.7187 27.219 23.2188C26.7189 23.7189 26.0406 23.9998 25.3333 23.9998H24C23.2928 23.9998 22.6145 23.7189 22.1144 23.2188C21.6143 22.7187 21.3333 22.0404 21.3333 21.3332V17.3332C21.3333 16.6259 21.6143 15.9477 22.1144 15.4476C22.6145 14.9475 23.2928 14.6665 24 14.6665H28Z" stroke="#00CCC4" stroke-width="2" stroke-linecap="round" stroke-linejoin="round"/>
<path d="M28 21.3335V24.0002C28 25.4147 27.4381 26.7712 26.4379 27.7714C25.4377 28.7716 24.0812 29.3335 22.6667 29.3335H16" stroke="#00CCC4" stroke-width="2" stroke-linecap="round" stroke-linejoin="round"/>
</svg>
