<svg width="52" height="52" viewBox="0 0 52 52" fill="none" xmlns="http://www.w3.org/2000/svg">
<rect width="52" height="52" rx="12" fill="#F1F1F1"/>
<path d="M23.6708 18.136C23.7259 17.5563 23.9951 17.018 24.4259 16.6263C24.8567 16.2345 25.418 16.0174 26.0003 16.0174C26.5826 16.0174 27.1439 16.2345 27.5747 16.6263C28.0055 17.018 28.2747 17.5563 28.3298 18.136C28.3629 18.5105 28.4858 18.8714 28.688 19.1883C28.8901 19.5053 29.1657 19.7688 29.4913 19.9567C29.8169 20.1445 30.183 20.2512 30.5585 20.2676C30.9341 20.284 31.3081 20.2097 31.6488 20.051C32.1779 19.8108 32.7775 19.776 33.3308 19.9535C33.8841 20.131 34.3516 20.5079 34.6423 21.0111C34.933 21.5143 35.0261 22.1076 34.9035 22.6756C34.7808 23.2436 34.4512 23.7456 33.9788 24.084C33.6712 24.2998 33.4201 24.5866 33.2467 24.92C33.0734 25.2534 32.9829 25.6237 32.9829 25.9995C32.9829 26.3753 33.0734 26.7456 33.2467 27.079C33.4201 27.4124 33.6712 27.6992 33.9788 27.915C34.4512 28.2534 34.7808 28.7554 34.9035 29.3234C35.0261 29.8914 34.933 30.4847 34.6423 30.9879C34.3516 31.491 33.8841 31.868 33.3308 32.0455C32.7775 32.223 32.1779 32.1882 31.6488 31.948C31.3081 31.7893 30.9341 31.715 30.5585 31.7314C30.183 31.7478 29.8169 31.8545 29.4913 32.0423C29.1657 32.2302 28.8901 32.4937 28.688 32.8107C28.4858 33.1276 28.3629 33.4885 28.3298 33.863C28.2747 34.4427 28.0055 34.981 27.5747 35.3727C27.1439 35.7645 26.5826 35.9816 26.0003 35.9816C25.418 35.9816 24.8567 35.7645 24.4259 35.3727C23.9951 34.981 23.7259 34.4427 23.6708 33.863C23.6378 33.4884 23.5149 33.1273 23.3127 32.8103C23.1104 32.4932 22.8348 32.2296 22.509 32.0417C22.1833 31.8538 21.8171 31.7472 21.4414 31.7309C21.0657 31.7146 20.6916 31.7891 20.3508 31.948C19.8217 32.1882 19.2221 32.223 18.6688 32.0455C18.1155 31.868 17.648 31.491 17.3573 30.9879C17.0666 30.4847 16.9735 29.8914 17.0962 29.3234C17.2188 28.7554 17.5484 28.2534 18.0208 27.915C18.3284 27.6992 18.5795 27.4124 18.7529 27.079C18.9263 26.7456 19.0168 26.3753 19.0168 25.9995C19.0168 25.6237 18.9263 25.2534 18.7529 24.92C18.5795 24.5866 18.3284 24.2998 18.0208 24.084C17.5491 23.7454 17.2201 23.2436 17.0977 22.676C16.9754 22.1084 17.0684 21.5155 17.3588 21.0127C17.6492 20.5099 18.1161 20.133 18.6689 19.9552C19.2217 19.7775 19.8208 19.8116 20.3498 20.051C20.6906 20.2097 21.0646 20.284 21.4401 20.2676C21.8157 20.2512 22.1817 20.1445 22.5074 19.9567C22.833 19.7688 23.1085 19.5053 23.3107 19.1883C23.5129 18.8714 23.6357 18.5105 23.6688 18.136" stroke="#656972" stroke-width="2" stroke-linecap="round" stroke-linejoin="round"/>
<path d="M26 29C27.6569 29 29 27.6569 29 26C29 24.3431 27.6569 23 26 23C24.3431 23 23 24.3431 23 26C23 27.6569 24.3431 29 26 29Z" stroke="#656972" stroke-width="2" stroke-linecap="round" stroke-linejoin="round"/>
</svg>
