<svg width="16" height="17" viewBox="0 0 16 17" fill="none" xmlns="http://www.w3.org/2000/svg">
<path d="M4.66667 2.5H2.66667C2.29848 2.5 2 2.79848 2 3.16667V5.16667C2 5.53486 2.29848 5.83333 2.66667 5.83333H4.66667C5.03486 5.83333 5.33333 5.53486 5.33333 5.16667V3.16667C5.33333 2.79848 5.03486 2.5 4.66667 2.5Z" stroke="#FAA139" stroke-linecap="round" stroke-linejoin="round"/>
<path d="M13.3385 2.5H11.3385C10.9704 2.5 10.6719 2.79848 10.6719 3.16667V5.16667C10.6719 5.53486 10.9704 5.83333 11.3385 5.83333H13.3385C13.7067 5.83333 14.0052 5.53486 14.0052 5.16667V3.16667C14.0052 2.79848 13.7067 2.5 13.3385 2.5Z" stroke="#FAA139" stroke-linecap="round" stroke-linejoin="round"/>
<path d="M4.66667 11.168H2.66667C2.29848 11.168 2 11.4664 2 11.8346V13.8346C2 14.2028 2.29848 14.5013 2.66667 14.5013H4.66667C5.03486 14.5013 5.33333 14.2028 5.33333 13.8346V11.8346C5.33333 11.4664 5.03486 11.168 4.66667 11.168Z" stroke="#FAA139" stroke-linecap="round" stroke-linejoin="round"/>
<path d="M14.0052 11.168H12.0052C11.6516 11.168 11.3124 11.3084 11.0624 11.5585C10.8124 11.8085 10.6719 12.1477 10.6719 12.5013V14.5013" stroke="#FAA139" stroke-linecap="round" stroke-linejoin="round"/>
<path d="M14 14.5V14.51" stroke="#FAA139" stroke-linecap="round" stroke-linejoin="round"/>
<path d="M8.00521 5.16797V7.16797C8.00521 7.52159 7.86473 7.86073 7.61468 8.11078C7.36464 8.36083 7.0255 8.5013 6.67187 8.5013H4.67188" stroke="#FAA139" stroke-linecap="round" stroke-linejoin="round"/>
<path d="M2 8.5H2.01" stroke="#FAA139" stroke-linecap="round" stroke-linejoin="round"/>
<path d="M8 2.5H8.01" stroke="#FAA139" stroke-linecap="round" stroke-linejoin="round"/>
<path d="M8 11.168V11.178" stroke="#FAA139" stroke-linecap="round" stroke-linejoin="round"/>
<path d="M10.6719 8.5H11.3385" stroke="#FAA139" stroke-linecap="round" stroke-linejoin="round"/>
<path d="M14 8.5V8.51" stroke="#FAA139" stroke-linecap="round" stroke-linejoin="round"/>
<path d="M8 14.4987V13.832" stroke="#FAA139" stroke-linecap="round" stroke-linejoin="round"/>
</svg>
