<svg width="36" height="36" viewBox="0 0 36 36" fill="none" xmlns="http://www.w3.org/2000/svg">
<rect width="36" height="36" rx="8" fill="#0095FF"/>
<path fill-rule="evenodd" clip-rule="evenodd" d="M21.3746 18.718L25.8806 15.663C26.5816 15.189 27.0006 14.398 27.0006 13.552V13.552C27.0006 12.142 25.8586 11 24.4496 11H11.5666C10.1576 11 9.01562 12.142 9.01562 13.551V13.551C9.01562 14.397 9.43463 15.188 10.1356 15.663L14.6416 18.718C16.6746 20.096 19.3416 20.096 21.3746 18.718V18.718Z" stroke="white" stroke-width="1.5" stroke-linecap="round" stroke-linejoin="round"/>
<path d="M9 13.5508V22.9998C9 24.6568 10.343 25.9998 12 25.9998H24C25.657 25.9998 27 24.6568 27 22.9998V13.5518" stroke="white" stroke-width="1.5" stroke-linecap="round" stroke-linejoin="round"/>
</svg>
