<svg width="52" height="52" viewBox="0 0 52 52" fill="none" xmlns="http://www.w3.org/2000/svg">
<rect width="52" height="52" rx="12" fill="#E1F7F5"/>
<path d="M34.0002 27.7L31.9002 25.6C31.5263 25.2336 31.0237 25.0283 30.5002 25.0283C29.9767 25.0283 29.4741 25.2336 29.1002 25.6L23.7002 31" stroke="#7BBAB4" stroke-width="2" stroke-linecap="round" stroke-linejoin="round"/>
<path d="M18 33.5V18.5C18 17.837 18.2634 17.2011 18.7322 16.7322C19.2011 16.2634 19.837 16 20.5 16H33C33.2652 16 33.5196 16.1054 33.7071 16.2929C33.8946 16.4804 34 16.7348 34 17V35C34 35.2652 33.8946 35.5196 33.7071 35.7071C33.5196 35.8946 33.2652 36 33 36H20.5C19.837 36 19.2011 35.7366 18.7322 35.2678C18.2634 34.7989 18 34.163 18 33.5ZM18 33.5C18 32.837 18.2634 32.2011 18.7322 31.7322C19.2011 31.2634 19.837 31 20.5 31H34" stroke="#7BBAB4" stroke-width="2" stroke-linecap="round" stroke-linejoin="round"/>
<path d="M24 24C25.1046 24 26 23.1046 26 22C26 20.8954 25.1046 20 24 20C22.8954 20 22 20.8954 22 22C22 23.1046 22.8954 24 24 24Z" stroke="#7BBAB4" stroke-width="2" stroke-linecap="round" stroke-linejoin="round"/>
</svg>
