<svg width="52" height="52" viewBox="0 0 52 52" fill="none" xmlns="http://www.w3.org/2000/svg">
<rect width="52" height="52" rx="12" fill="#E0F0FF"/>
<path d="M33 17H19C17.8954 17 17 17.8954 17 19V33C17 34.1046 17.8954 35 19 35H33C34.1046 35 35 34.1046 35 33V19C35 17.8954 34.1046 17 33 17Z" stroke="#5D8DD5" stroke-width="2" stroke-linecap="round" stroke-linejoin="round"/>
<path d="M23 23.003C22.9995 22.8255 23.0462 22.6511 23.1353 22.4977C23.2245 22.3442 23.3528 22.2172 23.5073 22.1298C23.6617 22.0423 23.8366 21.9976 24.0141 22.0001C24.1915 22.0026 24.3651 22.0522 24.517 22.144L29.514 25.141C29.6628 25.2297 29.786 25.3554 29.8715 25.506C29.9571 25.6566 30.002 25.8268 30.002 26C30.002 26.1732 29.9571 26.3434 29.8715 26.494C29.786 26.6445 29.6628 26.7703 29.514 26.859L24.517 29.856C24.365 29.9478 24.1913 29.9975 24.0138 29.9999C23.8363 30.0024 23.6613 29.9575 23.5068 29.8699C23.3524 29.7824 23.224 29.6553 23.1349 29.5017C23.0459 29.3481 22.9993 29.1735 23 28.996V23.003Z" stroke="#5D8DD5" stroke-width="2" stroke-linecap="round" stroke-linejoin="round"/>
</svg>
