<svg width="52" height="52" viewBox="0 0 52 52" fill="none" xmlns="http://www.w3.org/2000/svg">
<rect width="52" height="52" rx="12" fill="#FFE9E9"/>
<path d="M29 16H20C19.4696 16 18.9609 16.2107 18.5858 16.5858C18.2107 16.9609 18 17.4696 18 18V34C18 34.5304 18.2107 35.0391 18.5858 35.4142C18.9609 35.7893 19.4696 36 20 36H32C32.5304 36 33.0391 35.7893 33.4142 35.4142C33.7893 35.0391 34 34.5304 34 34V21L29 16Z" stroke="#FB5050" stroke-width="2" stroke-linecap="round" stroke-linejoin="round"/>
<path d="M28 16V20C28 20.5304 28.2107 21.0391 28.5858 21.4142C28.9609 21.7893 29.4696 22 30 22H34" stroke="#FB5050" stroke-width="2" stroke-linecap="round" stroke-linejoin="round"/>
<path d="M24 23H22" stroke="#FB5050" stroke-width="2" stroke-linecap="round" stroke-linejoin="round"/>
<path d="M30 27H22" stroke="#FB5050" stroke-width="2" stroke-linecap="round" stroke-linejoin="round"/>
<path d="M30 31H22" stroke="#FB5050" stroke-width="2" stroke-linecap="round" stroke-linejoin="round"/>
</svg>
