<svg width="34" height="35" viewBox="0 0 34 35" fill="none" xmlns="http://www.w3.org/2000/svg">
<rect y="0.5" width="34" height="34" rx="17" fill="#4E9AEB"/>
<path d="M18.5924 16.9098C19.4707 17.7881 19.4707 19.2138 18.5924 20.0936C17.7142 20.9718 16.2884 20.9718 15.4087 20.0936C14.5304 19.2153 14.5304 17.7896 15.4087 16.9098C16.2884 16.0301 17.7134 16.0301 18.5924 16.9098" stroke="white" stroke-linecap="round" stroke-linejoin="round"/>
<path d="M23.75 21.5L21.5 23.75L20 22.25" stroke="white" stroke-linecap="round" stroke-linejoin="round"/>
<path d="M17 23.75C14.2318 23.75 11.7207 22.2567 10.5845 19.934V19.934C10.364 19.4832 10.25 18.9942 10.25 18.5C10.25 18.0058 10.364 17.5167 10.5845 17.066V17.066C11.7207 14.7432 14.2318 13.25 17 13.25C19.7682 13.25 22.2793 14.7432 23.4155 17.066V17.066C23.636 17.5167 23.75 18.0058 23.75 18.5" stroke="white" stroke-linecap="round" stroke-linejoin="round"/>
</svg>
