<svg width="24" height="24" viewBox="0 0 24 24" fill="none" xmlns="http://www.w3.org/2000/svg">
<path fill-rule="evenodd" clip-rule="evenodd" d="M17.0124 17.2945L15.6998 20.3567C15.5305 20.7515 15.1409 21.0063 14.7113 21.0033C14.2817 21.0002 13.8958 20.7399 13.732 20.3427L10.0805 11.476C9.91633 11.0775 10.0079 10.6194 10.3127 10.3146C10.6174 10.0099 11.0756 9.91828 11.4741 10.0825L20.3408 13.734C20.738 13.8977 20.9983 14.2836 21.0013 14.7132C21.0044 15.1428 20.7496 15.5324 20.3548 15.7018L17.2925 17.0143C17.1666 17.0682 17.0662 17.1685 17.0124 17.2945V17.2945Z" stroke="#FB5050" stroke-width="1.5" stroke-linecap="round" stroke-linejoin="round"/>
<path d="M6.35584 15.334L5.23438 16.4555" stroke="#FB5050" stroke-width="1.5" stroke-linecap="round" stroke-linejoin="round"/>
<path d="M10.844 2.99609V4.58175" stroke="#FB5050" stroke-width="1.5" stroke-linecap="round" stroke-linejoin="round"/>
<path d="M5.23438 5.23926L6.35584 6.36072" stroke="#FB5050" stroke-width="1.5" stroke-linecap="round" stroke-linejoin="round"/>
<path d="M2.99219 10.8479H4.57785" stroke="#FB5050" stroke-width="1.5" stroke-linecap="round" stroke-linejoin="round"/>
<path d="M16.4496 5.23926L15.3281 6.36072" stroke="#FB5050" stroke-width="1.5" stroke-linecap="round" stroke-linejoin="round"/>
</svg>
