<svg width="19" height="19" viewBox="0 0 19 19" fill="none" xmlns="http://www.w3.org/2000/svg">
<path d="M12.33 7.34788C13.2105 6.46737 14.637 6.46737 15.5175 7.34788V7.34788C16.398 8.22838 16.398 9.65487 15.5175 10.5354L11.7697 14.2831C10.8892 15.1636 9.46275 15.1636 8.58225 14.2831V14.2831C7.70175 13.4026 7.70175 11.9761 8.58225 11.0956L9.1425 10.5354" stroke="#FF2D2D" stroke-linecap="round" stroke-linejoin="round"/>
<path d="M7.27561 15.5898C6.39511 16.4703 4.96861 16.4703 4.08811 15.5898V15.5898C3.20761 14.7093 3.20761 13.2828 4.08811 12.4023L7.83586 8.65452C8.71636 7.77402 10.1429 7.77402 11.0234 8.65452V8.65452C11.9039 9.53502 11.9039 10.9615 11.0234 11.842L10.4399 12.4248" stroke="#FF2D2D" stroke-linecap="round" stroke-linejoin="round"/>
<path d="M3.42773 4.625H7.17773" stroke="#FF2D2D" stroke-linecap="round" stroke-linejoin="round"/>
<path d="M5.30273 6.5V2.75" stroke="#FF2D2D" stroke-linecap="round" stroke-linejoin="round"/>
</svg>
