<svg width="34" height="35" viewBox="0 0 34 35" fill="none" xmlns="http://www.w3.org/2000/svg">
<rect y="0.25" width="34" height="34" rx="17" fill="#706CE0"/>
<path d="M10.25 15.5273V22.5001C10.25 23.3288 10.9212 24.0001 11.75 24.0001H22.2492C23.078 24.0001 23.7493 23.3288 23.7493 22.5001V15.5273" stroke="white" stroke-linecap="round" stroke-linejoin="round"/>
<path fill-rule="evenodd" clip-rule="evenodd" d="M10.9125 14.2837L16.158 10.755C16.6658 10.4137 17.3295 10.4137 17.8373 10.755L23.0828 14.2837C23.9663 14.8785 23.9663 16.1782 23.0828 16.773L18.6773 19.737C17.6618 20.4202 16.3343 20.4202 15.3188 19.737L10.9133 16.773C10.029 16.1782 10.029 14.8777 10.9125 14.2837Z" stroke="white" stroke-linecap="round" stroke-linejoin="round"/>
<path d="M14.8428 19.4102L10.6953 23.5577" stroke="white" stroke-linecap="round" stroke-linejoin="round"/>
<path d="M23.3038 23.5577L19.1562 19.4102" stroke="white" stroke-linecap="round" stroke-linejoin="round"/>
</svg>
