<svg width="37" height="36" viewBox="0 0 37 36" fill="none" xmlns="http://www.w3.org/2000/svg">
<rect x="0.601562" width="36" height="36" rx="18" fill="#7CC5FA"/>
<path d="M15.2656 14H11.099C10.6387 14 10.2656 14.3731 10.2656 14.8333V23.1667C10.2656 23.6269 10.6387 24 11.099 24H15.2656C15.7259 24 16.099 23.6269 16.099 23.1667V14.8333C16.099 14.3731 15.7259 14 15.2656 14Z" stroke="white" stroke-width="1.5" stroke-linecap="round" stroke-linejoin="round"/>
<path d="M19.4375 15.9336C19.9702 16.8679 20.2503 17.9248 20.2503 19.0003C20.2503 20.0757 19.9702 21.1326 19.4375 22.0669" stroke="white" stroke-width="1.5" stroke-linecap="round" stroke-linejoin="round"/>
<path d="M22.3203 14.1758C23.1529 15.6476 23.5904 17.3098 23.5904 19.0008C23.5904 20.6918 23.1529 22.354 22.3203 23.8258" stroke="white" stroke-width="1.5" stroke-linecap="round" stroke-linejoin="round"/>
<path d="M25.1953 12.416C26.3433 14.4199 26.948 16.6888 26.9494 18.9982C26.9509 21.3076 26.3491 23.5774 25.2036 25.5827" stroke="white" stroke-width="1.5" stroke-linecap="round" stroke-linejoin="round"/>
</svg>
