<svg width="197" height="31" viewBox="0 0 197 31" fill="none" xmlns="http://www.w3.org/2000/svg">
<g clip-path="url(#clip0_719_23808)">
<path d="M4.05134 1.15528C3.97055 1.06345 3.91835 0.950804 3.90095 0.830732C3.88355 0.71066 3.90169 0.588215 3.9532 0.477954C4.00471 0.367693 4.08742 0.274253 4.19152 0.208744C4.29561 0.143235 4.4167 0.108411 4.54039 0.108414H26.5662C26.6903 0.107559 26.8119 0.141957 26.9165 0.20745C27.021 0.272942 27.1039 0.366725 27.1553 0.47746C27.2066 0.588194 27.2241 0.711139 27.2057 0.831429C27.1873 0.951719 27.1338 1.0642 27.0515 1.15528L16.0311 13.5127C15.9702 13.5799 15.8955 13.6337 15.8118 13.6705C15.7282 13.7073 15.6375 13.7263 15.5458 13.7263C15.4542 13.7263 15.3635 13.7073 15.2799 13.6705C15.1962 13.6337 15.1215 13.5799 15.0605 13.5127L4.05134 1.15528Z" fill="url(#paint0_linear_719_23808)"/>
<path d="M42.3984 22.4368V6.24689H48.5806C49.8177 6.21635 51.0476 6.44081 52.1906 6.90576C53.1396 7.29754 53.948 7.95764 54.5126 8.80183C55.0768 9.70171 55.3597 10.7439 55.3265 11.7997C55.3568 12.8402 55.0737 13.8663 54.5126 14.75C53.9481 15.5978 53.1401 16.2627 52.1906 16.6607C51.0481 17.1267 49.8175 17.3488 48.5806 17.3122H43.3541L44.1306 16.5033V22.4368H42.3984ZM44.1456 16.657L43.3691 15.8224H48.5321C50.1871 15.8224 51.4415 15.4723 52.2951 14.7719C52.7273 14.4061 53.0682 13.9479 53.2915 13.4326C53.5148 12.9173 53.6145 12.3587 53.5831 11.7997C53.6158 11.2352 53.5168 10.6707 53.2936 10.1494C53.0705 9.62799 52.729 9.16338 52.2951 8.79085C51.439 8.08074 50.1846 7.72568 48.5321 7.72568H43.3691L44.1456 6.91674V16.657Z" fill="white"/>
<path d="M65.3099 10.1781C66.2279 10.1591 67.1375 10.3536 67.9642 10.7455C68.7305 11.1238 69.358 11.7263 69.7599 12.4695C70.2229 13.3768 70.445 14.384 70.4057 15.3978V22.4367H68.7332V15.5442C68.7332 14.2668 68.4047 13.2968 67.7514 12.6415C67.0981 11.9863 66.1835 11.6606 65.0038 11.6606C64.2017 11.6422 63.4079 11.8235 62.6967 12.1877C62.0558 12.5303 61.5353 13.0546 61.2034 13.6921C60.8298 14.4265 60.6464 15.2399 60.6695 16.0603V22.4367H58.9971V5.27686H60.6695V13.6262L60.341 13.0003C60.7261 12.1288 61.3889 11.4031 62.23 10.9321C63.168 10.4118 64.2326 10.1512 65.3099 10.1781Z" fill="white"/>
<path d="M75.7811 7.61223C75.619 7.61584 75.4578 7.58685 75.3076 7.52704C75.1573 7.46723 75.0212 7.37788 74.9075 7.2645C74.7905 7.15852 74.6969 7.03006 74.6327 6.88712C74.5685 6.74417 74.5349 6.58979 74.5342 6.43359C74.5335 6.27823 74.5664 6.12449 74.6307 5.98252C74.6951 5.84054 74.7894 5.71358 74.9075 5.61001C75.0231 5.50012 75.1599 5.41404 75.3099 5.35683C75.46 5.29962 75.6202 5.27245 75.7811 5.27691C76.1041 5.2674 76.418 5.38313 76.6546 5.59902C76.7725 5.6996 76.8669 5.82393 76.9314 5.96354C76.9958 6.10314 77.0287 6.25474 77.028 6.40797C77.0318 6.56597 77.0034 6.72314 76.9444 6.87023C76.8854 7.01732 76.7971 7.15137 76.6845 7.2645C76.5677 7.38197 76.4267 7.47373 76.271 7.53368C76.1152 7.59364 75.9482 7.62041 75.7811 7.61223ZM74.9336 22.4368V10.2953H76.6061V22.4368H74.9336Z" fill="white"/>
<path d="M84.6029 22.5539C83.6192 22.5594 82.6406 22.415 81.7022 22.1256C80.9221 21.9072 80.193 21.5417 79.5557 21.0494L80.3023 19.7537C80.8931 20.1693 81.5452 20.494 82.2361 20.7163C83.0359 20.9867 83.8764 21.1228 84.7224 21.119C85.9021 21.119 86.7508 20.9384 87.2684 20.5772C87.5151 20.4187 87.7163 20.201 87.8528 19.9447C87.9894 19.6884 88.0568 19.4021 88.0487 19.1131C88.059 18.9167 88.0252 18.7206 87.9497 18.5384C87.8743 18.3563 87.7589 18.1926 87.6119 18.0589C87.28 17.7848 86.8896 17.5871 86.4695 17.4806C85.9485 17.3412 85.4201 17.23 84.8867 17.1475C84.3043 17.0523 83.7294 16.9461 83.1545 16.8217C82.6096 16.7101 82.0823 16.528 81.5865 16.28C81.1264 16.0511 80.7323 15.7125 80.4404 15.2953C80.1305 14.8026 79.9784 14.2301 80.0036 13.6518C79.996 13.0149 80.1947 12.392 80.5711 11.8729C80.9932 11.3127 81.5695 10.8822 82.2324 10.632C83.0868 10.3102 83.9978 10.1571 84.9128 10.1818C85.7247 10.184 86.5329 10.2898 87.317 10.4966C88.0196 10.6601 88.6895 10.9372 89.2993 11.3165L88.5527 12.6342C88.0201 12.2659 87.4264 11.991 86.7981 11.8216C86.1828 11.6622 85.5492 11.5811 84.9128 11.58C83.7928 11.58 82.9715 11.7667 82.4452 12.1474C82.2013 12.3049 82.0015 12.5197 81.8639 12.7722C81.7264 13.0247 81.6554 13.307 81.6574 13.5932C81.6444 13.7961 81.6763 13.9993 81.7511 14.1889C81.8258 14.3785 81.9416 14.5499 82.0905 14.6914C82.4264 14.9752 82.8213 15.1838 83.2478 15.3026C83.7649 15.4603 84.2926 15.5826 84.8269 15.6687C85.4018 15.7602 85.9767 15.8737 86.5517 16.0054C87.0963 16.1252 87.6258 16.3031 88.1308 16.5362C88.5956 16.7457 88.9951 17.073 89.2881 17.4842C89.5992 17.9629 89.7517 18.5242 89.7249 19.0911C89.7372 19.7497 89.5257 20.3935 89.1238 20.9213C88.6676 21.4741 88.0623 21.8901 87.3767 22.1219C86.4864 22.4294 85.5466 22.5757 84.6029 22.5539Z" fill="white"/>
<path d="M99.1138 10.1781C100.032 10.16 100.941 10.3544 101.768 10.7455C102.533 11.125 103.158 11.7273 103.56 12.4695C104.026 13.3759 104.25 14.3835 104.21 15.3978V22.4367H102.533V15.5442C102.533 14.2668 102.205 13.2968 101.555 12.6415C101.19 12.3021 100.758 12.0399 100.285 11.8711C99.8128 11.7024 99.3098 11.6307 98.8077 11.6606C98.0069 11.6434 97.2146 11.8247 96.5043 12.1877C95.8649 12.5323 95.345 13.0561 95.011 13.6921C94.6387 14.4268 94.4566 15.2402 94.4809 16.0603V22.4367H92.8047V5.27686H94.4809V13.6262L94.1486 13.0003C94.536 12.1302 95.1982 11.4052 96.0376 10.9321C96.9746 10.4126 98.0377 10.152 99.1138 10.1781Z" fill="white"/>
<path d="M108.88 22.4369V6.24707H110.814L118.22 18.4837H117.201L124.514 6.24707H126.448L126.456 22.4369H124.19L124.167 9.73907H124.709L118.198 20.4713H117.112L110.552 9.73907H111.142V22.4369H108.88Z" fill="white"/>
<path d="M133.791 22.5757C132.953 22.5935 132.121 22.4363 131.349 22.1145C130.697 21.8451 130.137 21.3995 129.733 20.8297C129.355 20.2812 129.156 19.6323 129.165 18.9702C129.157 18.3366 129.324 17.7127 129.651 17.1657C130.023 16.5803 130.577 16.1265 131.23 15.8699C132.171 15.5075 133.18 15.3417 134.19 15.3831H138.155V16.979H134.284C133.154 16.979 132.392 17.1644 131.999 17.5354C131.81 17.7051 131.659 17.9122 131.557 18.1432C131.456 18.3741 131.405 18.6236 131.409 18.8751C131.401 19.1557 131.462 19.434 131.588 19.686C131.715 19.938 131.902 20.1559 132.133 20.3209C132.731 20.7153 133.445 20.9068 134.164 20.8663C134.949 20.8847 135.723 20.6923 136.404 20.3099C137.041 19.9425 137.528 19.3711 137.785 18.692L138.233 20.2184C137.925 20.9551 137.365 21.5643 136.65 21.9425C135.77 22.3958 134.784 22.6142 133.791 22.5757ZM137.897 22.4366V19.8487L137.782 19.3619V14.9438C137.808 14.5403 137.747 14.1358 137.602 13.7572C137.457 13.3786 137.232 13.0345 136.942 12.7476C136.385 12.2315 135.545 11.9716 134.429 11.9716C133.69 11.9746 132.957 12.0983 132.26 12.3376C131.608 12.5476 131.001 12.8726 130.468 13.2966L129.52 11.6348C130.211 11.1035 130.999 10.7071 131.842 10.4672C132.765 10.1968 133.724 10.0611 134.687 10.0645C136.402 10.0645 137.723 10.4733 138.651 11.2907C139.58 12.1082 140.043 13.3564 140.04 15.0353V22.4366H137.897Z" fill="white"/>
<path d="M148.489 21.9279C147.362 21.9546 146.246 21.7028 145.245 21.1958C144.31 20.7124 143.526 19.9886 142.979 19.1021C142.408 18.1664 142.118 17.0918 142.142 16.0018C142.116 14.9092 142.406 13.8316 142.979 12.8941C143.527 12.0139 144.311 11.2975 145.245 10.8223C146.248 10.3193 147.362 10.0678 148.489 10.0902C149.5 10.0785 150.5 10.2952 151.412 10.7235C152.299 11.1536 153.035 11.8343 153.525 12.6781C154.085 13.6998 154.357 14.8498 154.313 16.0091C154.354 17.1564 154.082 18.2937 153.525 19.3034C153.032 20.15 152.298 20.8371 151.412 21.28C150.504 21.7217 149.502 21.9439 148.489 21.9279ZM148.769 27.0525C147.639 27.0547 146.514 26.8957 145.431 26.5803C144.471 26.3181 143.58 25.8561 142.818 25.2259L143.901 23.5165C144.534 24.0359 145.263 24.4322 146.047 24.6842C146.906 24.9691 147.806 25.1138 148.713 25.1125C150.191 25.1125 151.276 24.772 151.968 24.0912C152.66 23.4104 153.007 22.3782 153.01 20.9945V18.4103L153.245 15.9798L153.125 13.531V10.1781H155.272V20.7712C155.272 22.9309 154.722 24.517 153.622 25.5297C152.522 26.5424 150.904 27.0537 148.769 27.0634V27.0525ZM148.746 19.9769C149.517 19.9901 150.279 19.8153 150.964 19.4681C151.593 19.1421 152.12 18.6536 152.487 18.0552C152.862 17.4276 153.053 16.7107 153.04 15.9835C153.055 15.2537 152.864 14.534 152.487 13.9044C152.123 13.3067 151.595 12.8211 150.964 12.5024C150.277 12.1635 149.515 11.9939 148.746 12.0083C147.97 11.9931 147.201 12.1627 146.506 12.5024C145.87 12.8186 145.339 13.3046 144.972 13.9044C144.596 14.534 144.404 15.2537 144.42 15.9835C144.404 16.7145 144.595 17.4354 144.972 18.0662C145.341 18.6667 145.872 19.1557 146.506 19.4791C147.199 19.8272 147.968 20.002 148.746 19.9879V19.9769Z" fill="white"/>
<path d="M164.836 10.0646C165.77 10.0443 166.695 10.2425 167.535 10.6429C168.316 11.0284 168.955 11.6424 169.364 12.3999C169.837 13.3241 170.064 14.3501 170.025 15.3831V22.4367H167.759V15.6393C167.759 14.4509 167.464 13.5566 166.874 12.9563C166.547 12.6441 166.157 12.4024 165.728 12.2467C165.3 12.091 164.844 12.0247 164.388 12.0522C163.659 12.0348 162.937 12.1945 162.286 12.517C161.694 12.8196 161.212 13.2955 160.909 13.8787C160.563 14.5766 160.396 15.347 160.423 16.1225V22.4367H158.157V10.178H160.33V13.4724L159.975 12.5939C160.386 11.7907 161.046 11.1358 161.861 10.7234C162.781 10.2646 163.804 10.0382 164.836 10.0646Z" fill="white"/>
<path d="M177.597 22.5759C176.624 22.5975 175.66 22.3996 174.778 21.9976C173.976 21.6217 173.316 21.0067 172.893 20.2406C172.414 19.3144 172.183 18.2842 172.221 17.2464V10.1782H174.483V16.9792C174.483 18.1847 174.778 19.0864 175.368 19.6842C175.694 20 176.084 20.2452 176.513 20.4041C176.942 20.563 177.4 20.632 177.858 20.6067C178.573 20.6244 179.28 20.4605 179.911 20.1308C180.494 19.8146 180.963 19.3302 181.255 18.7435C181.585 18.0577 181.746 17.3054 181.726 16.5473V10.1782H183.992V22.4368H181.845V19.1425L182.2 20.021C181.802 20.8252 181.159 21.4879 180.359 21.9171C179.511 22.3661 178.56 22.593 177.597 22.5759Z" fill="white"/>
<path d="M190.95 22.5761C189.948 22.5804 188.95 22.4411 187.99 22.1625C187.199 21.9526 186.452 21.6082 185.783 21.1449L186.728 19.3842C187.342 19.7757 188.009 20.0801 188.71 20.2883C189.487 20.5318 190.298 20.6553 191.114 20.6544C192.167 20.6544 192.929 20.508 193.391 20.2151C193.611 20.0926 193.793 19.9145 193.918 19.6995C194.044 19.4844 194.108 19.2403 194.104 18.9926C194.112 18.82 194.077 18.6481 194.004 18.491C193.931 18.3339 193.821 18.196 193.683 18.0885C193.348 17.8519 192.967 17.6873 192.563 17.6053C192.096 17.4955 191.581 17.4003 191.017 17.3161C190.453 17.2319 189.897 17.1221 189.319 16.9903C188.777 16.8709 188.253 16.6852 187.758 16.4376C187.303 16.2065 186.917 15.8634 186.638 15.442C186.332 14.9269 186.185 14.3354 186.216 13.7399C186.201 13.042 186.425 12.3591 186.851 11.7999C187.318 11.2133 187.944 10.768 188.658 10.5151C189.544 10.1966 190.484 10.0439 191.428 10.0649C192.266 10.0668 193.102 10.1638 193.918 10.3541C194.647 10.5034 195.343 10.7812 195.971 11.174L194.986 12.92C194.445 12.5738 193.846 12.3258 193.216 12.1879C192.613 12.0502 191.995 11.9802 191.376 11.9793C190.606 11.9275 189.837 12.0913 189.158 12.4515C188.935 12.5715 188.749 12.7471 188.618 12.9605C188.487 13.174 188.415 13.4176 188.411 13.6667C188.407 13.8486 188.448 14.0288 188.529 14.1923C188.61 14.3559 188.73 14.4982 188.878 14.6074C189.213 14.8484 189.594 15.0213 189.998 15.1162C190.507 15.2476 191.023 15.3514 191.544 15.4274C192.111 15.5115 192.663 15.6214 193.242 15.7495C193.778 15.8705 194.296 16.0536 194.788 16.2949C195.238 16.521 195.623 16.8546 195.908 17.2649C196.224 17.7682 196.377 18.3544 196.344 18.945C196.359 19.6415 196.125 20.3211 195.684 20.8667C195.188 21.4434 194.543 21.8784 193.817 22.1259C192.897 22.4444 191.926 22.5969 190.95 22.5761Z" fill="white"/>
<path d="M30.7549 12.3709C30.7549 12.4331 30.7549 12.4953 30.7549 12.5575C29.2616 28.3521 15.5309 30.3141 15.5309 30.3141C0.351793 25.3652 0.351794 11.0641 0.351794 11.0641C0.351794 11.0641 0.351794 6.17018 0.351794 3.6738C0.34931 3.61151 0.366909 3.55004 0.402092 3.49813C0.437275 3.44621 0.48825 3.40649 0.547775 3.3846C0.6073 3.36271 0.672346 3.35978 0.73367 3.37621C0.794993 3.39264 0.849475 3.42761 0.889373 3.47614L14.8739 19.1645C14.9587 19.2594 15.0632 19.3354 15.1804 19.3875C15.2975 19.4396 15.4247 19.4665 15.5533 19.4665C15.682 19.4665 15.8092 19.4396 15.9263 19.3875C16.0435 19.3354 16.148 19.2594 16.2328 19.1645L30.2173 3.47614C30.2574 3.42937 30.3113 3.39588 30.3715 3.38027C30.4318 3.36465 30.4955 3.36767 30.5539 3.3889C30.6123 3.41014 30.6626 3.44855 30.6979 3.49889C30.7333 3.54923 30.7518 3.60904 30.7512 3.67014C30.7512 6.13724 30.7549 12.3709 30.7549 12.3709Z" fill="url(#paint1_linear_719_23808)"/>
</g>
<defs>
<linearGradient id="paint0_linear_719_23808" x1="30.4151" y1="25.0429" x2="14.1995" y2="-2.53793" gradientUnits="userSpaceOnUse">
<stop stop-color="#004D97"/>
<stop offset="0.23" stop-color="#0075A2"/>
<stop offset="0.5" stop-color="#00B2BE"/>
<stop offset="0.74" stop-color="#00CDC5"/>
<stop offset="1" stop-color="#00F1BE"/>
</linearGradient>
<linearGradient id="paint1_linear_719_23808" x1="25.9839" y1="26.877" x2="10.6312" y2="0.764256" gradientUnits="userSpaceOnUse">
<stop stop-color="#004D97"/>
<stop offset="0.23" stop-color="#0075A2"/>
<stop offset="0.5" stop-color="#00B2BE"/>
<stop offset="0.74" stop-color="#00CDC5"/>
<stop offset="1" stop-color="#00F1BE"/>
</linearGradient>
<clipPath id="clip0_719_23808">
<rect width="196" height="30.2055" fill="white" transform="translate(0.351562 0.108398)"/>
</clipPath>
</defs>
</svg>
