<svg width="56" height="56" viewBox="0 0 56 56" fill="none" xmlns="http://www.w3.org/2000/svg">
<path d="M44.3333 7H11.6667C9.08934 7 7 9.08934 7 11.6667V44.3333C7 46.9107 9.08934 49 11.6667 49H44.3333C46.9107 49 49 46.9107 49 44.3333V11.6667C49 9.08934 46.9107 7 44.3333 7Z" stroke="#BEC3C7" stroke-width="2" stroke-linecap="round" stroke-linejoin="round"/>
<path d="M21.0002 25.6666C23.5775 25.6666 25.6668 23.5772 25.6668 20.9999C25.6668 18.4226 23.5775 16.3333 21.0002 16.3333C18.4228 16.3333 16.3335 18.4226 16.3335 20.9999C16.3335 23.5772 18.4228 25.6666 21.0002 25.6666Z" stroke="#BEC3C7" stroke-width="2" stroke-linecap="round" stroke-linejoin="round"/>
<path d="M49 35.0001L41.7993 27.7994C40.9242 26.9246 39.7374 26.4331 38.5 26.4331C37.2626 26.4331 36.0758 26.9246 35.2007 27.7994L14 49.0001" stroke="#BEC3C7" stroke-width="2" stroke-linecap="round" stroke-linejoin="round"/>
</svg>
