<svg width="34" height="34" viewBox="0 0 34 34" fill="none" xmlns="http://www.w3.org/2000/svg">
<rect width="34" height="34" rx="17" fill="#00CCC4"/>
<path d="M11.6641 23.6673V11.6673C11.6641 11.5638 11.6882 11.4617 11.7344 11.3692C11.7807 11.2766 11.8479 11.1961 11.9307 11.134C12.6231 10.6147 13.4652 10.334 14.3307 10.334C16.3307 10.334 17.6641 11.6673 19.2194 11.6673C20.1083 11.6673 20.7898 11.4895 21.2641 11.134C21.3631 11.0597 21.4809 11.0145 21.6042 11.0033C21.7275 10.9922 21.8515 11.0157 21.9622 11.071C22.0729 11.1264 22.1661 11.2115 22.2312 11.3168C22.2963 11.4221 22.3307 11.5435 22.3307 11.6673V18.334C22.3307 18.4375 22.3066 18.5396 22.2603 18.6321C22.2141 18.7247 22.1469 18.8052 22.0641 18.8673C21.3717 19.3866 20.5295 19.6673 19.6641 19.6673C17.6641 19.6673 16.3307 18.334 14.3307 18.334C13.3468 18.334 12.3974 18.6967 11.6641 19.3527" stroke="white" stroke-width="1.5" stroke-linecap="round" stroke-linejoin="round"/>
</svg>
