<svg width="37" height="36" viewBox="0 0 37 36" fill="none" xmlns="http://www.w3.org/2000/svg">
<rect x="0.601562" width="36" height="36" rx="18" fill="#7CC5FA"/>
<path d="M14.4349 11.5H11.9349C11.4747 11.5 11.1016 11.8731 11.1016 12.3333V14.8333C11.1016 15.2936 11.4747 15.6667 11.9349 15.6667H14.4349C14.8951 15.6667 15.2682 15.2936 15.2682 14.8333V12.3333C15.2682 11.8731 14.8951 11.5 14.4349 11.5Z" stroke="white" stroke-linecap="round" stroke-linejoin="round"/>
<path d="M25.2708 11.5H22.7708C22.3106 11.5 21.9375 11.8731 21.9375 12.3333V14.8333C21.9375 15.2936 22.3106 15.6667 22.7708 15.6667H25.2708C25.7311 15.6667 26.1042 15.2936 26.1042 14.8333V12.3333C26.1042 11.8731 25.7311 11.5 25.2708 11.5Z" stroke="white" stroke-linecap="round" stroke-linejoin="round"/>
<path d="M14.4349 22.334H11.9349C11.4747 22.334 11.1016 22.7071 11.1016 23.1673V25.6673C11.1016 26.1276 11.4747 26.5007 11.9349 26.5007H14.4349C14.8951 26.5007 15.2682 26.1276 15.2682 25.6673V23.1673C15.2682 22.7071 14.8951 22.334 14.4349 22.334Z" stroke="white" stroke-linecap="round" stroke-linejoin="round"/>
<path d="M26.1042 22.334H23.6042C23.1621 22.334 22.7382 22.5096 22.4257 22.8221C22.1131 23.1347 21.9375 23.5586 21.9375 24.0007V26.5007" stroke="white" stroke-linecap="round" stroke-linejoin="round"/>
<path d="M26.1016 26.5V26.51" stroke="white" stroke-linecap="round" stroke-linejoin="round"/>
<path d="M18.6042 14.834V17.334C18.6042 17.776 18.4286 18.1999 18.116 18.5125C17.8034 18.8251 17.3795 19.0007 16.9375 19.0007H14.4375" stroke="white" stroke-linecap="round" stroke-linejoin="round"/>
<path d="M11.1016 19H11.1116" stroke="white" stroke-linecap="round" stroke-linejoin="round"/>
<path d="M18.6016 11.5H18.6116" stroke="white" stroke-linecap="round" stroke-linejoin="round"/>
<path d="M18.6016 22.334V22.344" stroke="white" stroke-linecap="round" stroke-linejoin="round"/>
<path d="M21.9375 19H22.7708" stroke="white" stroke-linecap="round" stroke-linejoin="round"/>
<path d="M26.1016 19V19.01" stroke="white" stroke-linecap="round" stroke-linejoin="round"/>
<path d="M18.6016 26.4993V25.666" stroke="white" stroke-linecap="round" stroke-linejoin="round"/>
</svg>
