<svg width="36" height="36" viewBox="0 0 36 36" fill="none" xmlns="http://www.w3.org/2000/svg">
<rect width="36" height="36" rx="18" fill="#5CC689"/>
<path d="M17.8594 20.5L22.026 24.6667C22.716 25.3567 23.836 25.3567 24.526 24.6667V24.6667C25.216 23.9767 25.216 22.8567 24.526 22.1667L20.3594 18" stroke="white" stroke-linecap="round" stroke-linejoin="round"/>
<path fill-rule="evenodd" clip-rule="evenodd" d="M25.4314 12.8719C25.4514 12.8911 25.4664 12.9161 25.4739 12.9427C25.8656 14.2486 25.5622 15.7177 24.5306 16.7494C23.4881 17.7919 21.9989 18.0902 20.6831 17.6802L13.7272 24.6361C13.0497 25.3136 11.9447 25.3644 11.2439 24.7111C10.5072 24.0252 10.4922 22.8719 11.1972 22.1661L18.1831 15.1802C17.7731 13.8644 18.0714 12.3752 19.1139 11.3327C20.1456 10.3011 21.6147 9.99775 22.9206 10.3894C22.9472 10.3977 22.9722 10.4119 22.9914 10.4319L23.1264 10.5669C23.1914 10.6319 23.1914 10.7377 23.1264 10.8027L20.9306 12.9994L22.8639 14.9327L25.0606 12.7361C25.1256 12.6711 25.2314 12.6711 25.2964 12.7361L25.4314 12.8719V12.8719Z" stroke="white" stroke-linecap="round" stroke-linejoin="round"/>
<path fill-rule="evenodd" clip-rule="evenodd" d="M10.4433 11.5778L11.005 13.2636C11.1183 13.6045 11.4366 13.8336 11.7958 13.8336H13.695V11.9345C13.695 11.5761 13.4658 11.257 13.125 11.1436L11.4391 10.582C11.2891 10.532 11.1241 10.5711 11.0125 10.6828L10.5441 11.1511C10.4325 11.2628 10.3933 11.4278 10.4433 11.5778V11.5778Z" stroke="white" stroke-linecap="round" stroke-linejoin="round"/>
<path d="M13.6953 13.834L16.612 16.7507" stroke="white" stroke-linecap="round" stroke-linejoin="round"/>
</svg>
