<svg width="35" height="35" viewBox="0 0 35 35" fill="none" xmlns="http://www.w3.org/2000/svg">
<rect x="0.199219" y="0.5" width="34" height="34" rx="17" fill="#FEA498"/>
<path d="M18.3242 16.375L16.0742 18.625" stroke="white" stroke-width="1.5" stroke-linecap="round" stroke-linejoin="round"/>
<path d="M16.0742 16.375L18.3242 18.625" stroke="white" stroke-width="1.5" stroke-linecap="round" stroke-linejoin="round"/>
<path d="M22.9078 13.9121C24.5888 16.576 24.2008 20.0489 21.9735 22.2762C19.7462 24.5036 16.2733 24.8915 13.6094 23.2105" stroke="white" stroke-width="1.5" stroke-linecap="round" stroke-linejoin="round"/>
<path d="M18.6992 10.9238C19.4395 11.0925 20.1457 11.3857 20.7878 11.7909" stroke="white" stroke-width="1.5" stroke-linecap="round" stroke-linejoin="round"/>
<path d="M10.6211 19C10.7897 19.7403 11.0829 20.4465 11.4882 21.0885" stroke="white" stroke-width="1.5" stroke-linecap="round" stroke-linejoin="round"/>
<path d="M15.6979 10.9238C14.9576 11.0925 14.2514 11.3857 13.6094 11.7909" stroke="white" stroke-width="1.5" stroke-linecap="round" stroke-linejoin="round"/>
<path d="M11.4882 13.9121C11.0829 14.5541 10.7897 15.2604 10.6211 16.0007" stroke="white" stroke-width="1.5" stroke-linecap="round" stroke-linejoin="round"/>
</svg>
