<svg width="19" height="19" viewBox="0 0 19 19" fill="none" xmlns="http://www.w3.org/2000/svg">
<path fill-rule="evenodd" clip-rule="evenodd" d="M14.3105 5.3105L12.1895 3.1895C11.9083 2.90825 11.5265 2.75 11.129 2.75H5.75C4.92125 2.75 4.25 3.42125 4.25 4.25V14.75C4.25 15.5788 4.92125 16.25 5.75 16.25H13.25C14.0788 16.25 14.75 15.5788 14.75 14.75V6.371C14.75 5.9735 14.5918 5.59175 14.3105 5.3105V5.3105Z" stroke="#F1CD89" stroke-linecap="round" stroke-linejoin="round"/>
<path d="M14.75 6.5H11.75C11.336 6.5 11 6.164 11 5.75V2.75" stroke="#F1CD89" stroke-linecap="round" stroke-linejoin="round"/>
<path d="M6.5 8.75H11" stroke="#F1CD89" stroke-linecap="round" stroke-linejoin="round"/>
<path d="M6.5 11H11" stroke="#F1CD89" stroke-linecap="round" stroke-linejoin="round"/>
<path d="M6.5 13.25H9.7475" stroke="#F1CD89" stroke-linecap="round" stroke-linejoin="round"/>
</svg>
