<svg width="18" height="18" viewBox="0 0 18 18" fill="none" xmlns="http://www.w3.org/2000/svg">
<path d="M6.41927 5.33398C7.08594 6.00065 7.08594 7.00065 6.41927 7.66732C5.7526 8.33398 4.7526 8.33398 4.08594 7.66732C3.41927 7.00065 3.41927 6.00065 4.08594 5.33398C4.7526 4.66732 5.7526 4.66732 6.41927 5.33398" stroke="#1A79CC" stroke-linecap="round" stroke-linejoin="round"/>
<path d="M13.835 4.58398C14.6684 5.41732 14.6684 6.75065 13.835 7.50065C13.0017 8.25065 11.6684 8.33398 10.9184 7.50065C10.1684 6.66732 10.085 5.33398 10.9184 4.58398C11.6684 3.83398 13.0017 3.83398 13.835 4.58398" stroke="#1A79CC" stroke-linecap="round" stroke-linejoin="round"/>
<path d="M16.0859 13.9993V13.166C16.0859 11.7493 15.0026 10.666 13.5859 10.666H11.0859C9.66927 10.666 8.58594 11.7493 8.58594 13.166V13.9993" stroke="#1A79CC" stroke-linecap="round" stroke-linejoin="round"/>
<path d="M6.08073 10.666H4.41406C2.9974 10.666 1.91406 11.7493 1.91406 13.166V13.9993" stroke="#1A79CC" stroke-linecap="round" stroke-linejoin="round"/>
</svg>
