<svg width="18" height="19" viewBox="0 0 18 19" fill="none" xmlns="http://www.w3.org/2000/svg">
<path d="M13.6693 15.4993H4.33594" stroke="#AE62E9" stroke-width="1.5" stroke-linecap="round" stroke-linejoin="round"/>
<path d="M9 9.5L6.06667 11.7C5.39518 12.2036 5 12.994 5 13.8333V14.8333C5 15.2015 5.29848 15.5 5.66667 15.5H12.3333C12.7015 15.5 13 15.2015 13 14.8333V13.8333C13 12.994 12.6048 12.2036 11.9333 11.7L9 9.5" stroke="#AE62E9" stroke-width="1.5" stroke-linecap="round" stroke-linejoin="round"/>
<path d="M4.33594 3.49935H13.6693" stroke="#AE62E9" stroke-width="1.5" stroke-linecap="round" stroke-linejoin="round"/>
<path d="M9 9.5L11.9333 7.3C12.6048 6.79639 13 6.00602 13 5.16667V4.16667C13 3.79848 12.7015 3.5 12.3333 3.5H5.66667C5.29848 3.5 5 3.79848 5 4.16667V5.16667C5 6.00602 5.39518 6.79639 6.06667 7.3L9 9.5" stroke="#AE62E9" stroke-width="1.5" stroke-linecap="round" stroke-linejoin="round"/>
</svg>
