<svg width="17" height="17" viewBox="0 0 17 17" fill="none" xmlns="http://www.w3.org/2000/svg">
<path d="M6.838 5.93934C7.42379 6.52513 7.42379 7.47487 6.838 8.06066C6.25222 8.64645 5.30247 8.64645 4.71668 8.06066C4.1309 7.47487 4.1309 6.52513 4.71668 5.93934C5.30247 5.35355 6.25222 5.35355 6.838 5.93934" stroke="#457AFF" stroke-linecap="round" stroke-linejoin="round"/>
<path fill-rule="evenodd" clip-rule="evenodd" d="M1.44141 12.834V4.19465C1.44141 3.44332 2.05074 2.83398 2.80207 2.83398H13.4414C14.1781 2.83398 14.7747 3.43065 14.7747 4.16732V12.834C14.7747 13.5707 14.1781 14.1673 13.4414 14.1673H2.77474C2.03807 14.1673 1.44141 13.5707 1.44141 12.834Z" stroke="#457AFF" stroke-linecap="round" stroke-linejoin="round"/>
<path d="M10.1094 6.83333H12.776" stroke="#457AFF" stroke-linecap="round" stroke-linejoin="round"/>
<path d="M11.7094 9.49935H10.1094" stroke="#457AFF" stroke-linecap="round" stroke-linejoin="round"/>
<path d="M8.17224 11.4993C8.05557 11.2067 7.87557 10.944 7.64424 10.73V10.73C7.25291 10.3673 6.73957 10.166 6.20624 10.166H5.34491C4.81157 10.166 4.29824 10.3673 3.90691 10.73V10.73C3.67557 10.944 3.49557 11.2067 3.37891 11.4993" stroke="#457AFF" stroke-linecap="round" stroke-linejoin="round"/>
</svg>
