<svg width="17" height="16" viewBox="0 0 17 16" fill="none" xmlns="http://www.w3.org/2000/svg">
<path d="M7.21939 14.003H3.88467C3.1477 14.003 2.55078 13.4061 2.55078 12.6692V3.33194C2.55078 2.59496 3.1477 1.99805 3.88467 1.99805H13.2219C13.9589 1.99805 14.5558 2.59496 14.5558 3.33194V6.66666" stroke="#57ABE6" stroke-linecap="round" stroke-linejoin="round"/>
<path d="M2.55078 5.33152H14.5558" stroke="#57ABE6" stroke-linecap="round" stroke-linejoin="round"/>
<path fill-rule="evenodd" clip-rule="evenodd" d="M15.2241 11.3347V11.3347C15.2241 13.1768 13.7315 14.6694 11.8894 14.6694V14.6694C10.0473 14.6694 8.55469 13.1768 8.55469 11.3347V11.3347C8.55469 9.49262 10.0473 8 11.8894 8V8C13.7315 8 15.2241 9.49262 15.2241 11.3347Z" stroke="#57ABE6" stroke-linecap="round" stroke-linejoin="round"/>
<path fill-rule="evenodd" clip-rule="evenodd" d="M11.4113 10.0029L13.1694 11.0427C13.3915 11.1741 13.3915 11.4962 13.1694 11.6276L11.4113 12.6674C11.1846 12.8014 10.8984 12.638 10.8984 12.3746V10.2957C10.8984 10.0323 11.1846 9.86889 11.4113 10.0029Z" stroke="#57ABE6" stroke-linecap="round" stroke-linejoin="round"/>
</svg>
