<svg width="17" height="16" viewBox="0 0 17 16" fill="none" xmlns="http://www.w3.org/2000/svg">
<path d="M9.20461 2.01584C10.1138 2.92498 10.1138 4.39899 9.20461 5.30813C8.29547 6.21727 6.82146 6.21727 5.91232 5.30813C5.00318 4.39899 5.00318 2.92498 5.91232 2.01584C6.82146 1.1067 8.29547 1.1067 9.20461 2.01584" stroke="#A1D94D" stroke-linecap="round" stroke-linejoin="round"/>
<path d="M10.4647 8.53081C9.59866 8.18481 8.58266 7.99414 7.55599 7.99414C4.85732 7.99414 2.22266 9.30547 2.22266 11.3221V11.9888C2.22266 12.3568 2.52132 12.6555 2.88932 12.6555H9.16466" stroke="#A1D94D" stroke-linecap="round" stroke-linejoin="round"/>
<path d="M12.224 14.6667C10.3833 14.6667 8.89062 13.1747 8.89062 11.3333C8.89062 9.53067 10.424 7.998 12.2266 8C14.0666 8.00134 15.5573 9.49334 15.5573 11.3333C15.5573 13.174 14.0653 14.6667 12.224 14.6667" stroke="#A1D94D" stroke-linecap="round" stroke-linejoin="round"/>
<path d="M13.7049 10.5918L11.8529 12.4438L10.7422 11.3325" stroke="#A1D94D" stroke-linecap="round" stroke-linejoin="round"/>
</svg>
