<svg width="17" height="17" viewBox="0 0 17 17" fill="none" xmlns="http://www.w3.org/2000/svg">
<path d="M6.99674 12.5022H3.66201C2.92504 12.5022 2.32812 11.9053 2.32812 11.1683V3.83194C2.32812 3.09496 2.92504 2.49805 3.66201 2.49805H11.6653C12.4023 2.49805 12.9992 3.09496 12.9992 3.83194V7.16666" stroke="#FF2D2D" stroke-linecap="round" stroke-linejoin="round"/>
<path d="M2.32812 5.83152H12.9992" stroke="#FF2D2D" stroke-linecap="round" stroke-linejoin="round"/>
<path d="M10.9258 11.2422L12.4077 12.7241" stroke="#FF2D2D" stroke-linecap="round" stroke-linejoin="round"/>
<path d="M12.4077 11.2422L10.9258 12.7241" stroke="#FF2D2D" stroke-linecap="round" stroke-linejoin="round"/>
<path fill-rule="evenodd" clip-rule="evenodd" d="M13.0017 14.5016H10.3339C9.59692 14.5016 9 13.9047 9 13.1677V10.4999C9 9.76293 9.59692 9.16602 10.3339 9.16602H13.0017C13.7386 9.16602 14.3356 9.76293 14.3356 10.4999V13.1677C14.3356 13.9047 13.7386 14.5016 13.0017 14.5016Z" stroke="#FF2D2D" stroke-linecap="round" stroke-linejoin="round"/>
</svg>
