<svg width="17" height="16" viewBox="0 0 17 16" fill="none" xmlns="http://www.w3.org/2000/svg">
<path d="M7.44205 12.0022H4.10733C3.37035 12.0022 2.77344 11.4053 2.77344 10.6683V3.33194C2.77344 2.59496 3.37035 1.99805 4.10733 1.99805H12.1107C12.8476 1.99805 13.4445 2.59496 13.4445 3.33194V6.66666" stroke="#3ACE89" stroke-linecap="round" stroke-linejoin="round"/>
<path d="M2.77344 5.33152H13.4445" stroke="#3ACE89" stroke-linecap="round" stroke-linejoin="round"/>
<path d="M13.2974 10.7422L11.8155 12.2241L10.9258 11.3351" stroke="#3ACE89" stroke-linecap="round" stroke-linejoin="round"/>
<path fill-rule="evenodd" clip-rule="evenodd" d="M13.447 14.0016H10.7792C10.0422 14.0016 9.44531 13.4047 9.44531 12.6677V9.9999C9.44531 9.26293 10.0422 8.66602 10.7792 8.66602H13.447C14.184 8.66602 14.7809 9.26293 14.7809 9.9999V12.6677C14.7809 13.4047 14.184 14.0016 13.447 14.0016Z" stroke="#3ACE89" stroke-linecap="round" stroke-linejoin="round"/>
</svg>
