<svg width="35" height="34" viewBox="0 0 35 34" fill="none" xmlns="http://www.w3.org/2000/svg">
<rect x="0.601562" width="34" height="34" rx="17" fill="#7CC5FA"/>
<path d="M23.36 13.3486V18.3807" stroke="white" stroke-linecap="round" stroke-linejoin="round"/>
<path d="M24.0778 22.7008H19.7578" stroke="white" stroke-linecap="round" stroke-linejoin="round"/>
<path d="M22.6406 21.2607L24.0806 22.7007L22.6406 24.1407" stroke="white" stroke-linecap="round" stroke-linejoin="round"/>
<path d="M16.8772 21.2607H12.5572C11.7616 21.2607 11.1172 20.6163 11.1172 19.8207V13.3486" stroke="white" stroke-linecap="round" stroke-linejoin="round"/>
<path fill-rule="evenodd" clip-rule="evenodd" d="M12.5651 11.9004H21.91C22.7092 11.9004 23.3579 12.5484 23.3579 13.3483V13.3483C23.3579 13.8286 23.1196 14.2771 22.7221 14.5464L18.8651 17.1607C17.8823 17.8267 16.5921 17.8267 15.6093 17.1607L11.7529 14.5471C11.3555 14.2778 11.1172 13.8286 11.1172 13.349V13.3483C11.1172 12.5484 11.7652 11.9004 12.5651 11.9004Z" stroke="white" stroke-linecap="round" stroke-linejoin="round"/>
</svg>
