<svg width="33" height="32" viewBox="0 0 33 32" fill="none" xmlns="http://www.w3.org/2000/svg">
<rect x="0.398438" width="32" height="32" rx="16" fill="#FB5050"/>
<path d="M15.0625 17.667C15.3488 18.0497 15.7141 18.3664 16.1335 18.5956C16.553 18.8248 17.0168 18.961 17.4936 18.9952C17.9704 19.0293 18.4489 18.9605 18.8967 18.7935C19.3446 18.6264 19.7512 18.365 20.0892 18.027L22.0892 16.027C22.6964 15.3983 23.0323 14.5563 23.0247 13.6823C23.0172 12.8083 22.6666 11.9723 22.0486 11.3542C21.4305 10.7362 20.5945 10.3857 19.7205 10.3781C18.8465 10.3705 18.0045 10.7064 17.3758 11.3136L16.2292 12.4536" stroke="white" stroke-width="1.5" stroke-linecap="round" stroke-linejoin="round"/>
<path d="M17.728 16.3338C17.4417 15.9511 17.0764 15.6344 16.657 15.4052C16.2375 15.176 15.7737 15.0397 15.2969 15.0056C14.8201 14.9714 14.3416 15.0402 13.8938 15.2073C13.4459 15.3743 13.0393 15.6358 12.7013 15.9738L10.7013 17.9738C10.0941 18.6025 9.75816 19.4445 9.76575 20.3185C9.77335 21.1925 10.1239 22.0285 10.7419 22.6465C11.36 23.2646 12.196 23.6151 13.07 23.6227C13.944 23.6303 14.786 23.2943 15.4147 22.6871L16.5547 21.5471" stroke="white" stroke-width="1.5" stroke-linecap="round" stroke-linejoin="round"/>
</svg>
