<svg width="35" height="34" viewBox="0 0 35 34" fill="none" xmlns="http://www.w3.org/2000/svg">
<rect x="0.203125" width="34" height="34" rx="17" fill="#CFE77F"/>
<g clip-path="url(#clip0_1738_55665)">
<path d="M23.9 14.3C24.275 14.585 24.5 15.0275 24.5 15.5V23C24.5 23.3978 24.342 23.7794 24.0607 24.0607C23.7794 24.342 23.3978 24.5 23 24.5H11C10.6022 24.5 10.2206 24.342 9.93934 24.0607C9.65804 23.7794 9.5 23.3978 9.5 23V15.5C9.5 15.2671 9.55422 15.0375 9.65836 14.8292C9.7625 14.6209 9.91371 14.4397 10.1 14.3L16.1 9.8C16.3596 9.60527 16.6754 9.5 17 9.5C17.3246 9.5 17.6404 9.60527 17.9 9.8L23.9 14.3Z" stroke="white" stroke-width="1.5" stroke-linecap="round" stroke-linejoin="round"/>
<path d="M24.5 15.5L17.7725 19.775C17.541 19.9201 17.2732 19.997 17 19.997C16.7268 19.997 16.459 19.9201 16.2275 19.775L9.5 15.5" stroke="white" stroke-width="1.5" stroke-linecap="round" stroke-linejoin="round"/>
</g>
<defs>
<clipPath id="clip0_1738_55665">
<rect width="18" height="18" fill="white" transform="translate(8 8)"/>
</clipPath>
</defs>
</svg>
