<svg width="34" height="34" viewBox="0 0 34 34" fill="none" xmlns="http://www.w3.org/2000/svg">
<rect width="34" height="34" rx="17" fill="#00CCC4"/>
<path d="M11.6641 23.6663V11.6663C11.6641 11.5628 11.6882 11.4608 11.7344 11.3682C11.7807 11.2756 11.8479 11.1951 11.9307 11.133C12.6231 10.6137 13.4652 10.333 14.3307 10.333C16.3307 10.333 17.6641 11.6663 19.2194 11.6663C20.1083 11.6663 20.7898 11.4886 21.2641 11.133C21.3631 11.0587 21.4809 11.0135 21.6042 11.0024C21.7275 10.9912 21.8515 11.0147 21.9622 11.0701C22.0729 11.1254 22.1661 11.2105 22.2312 11.3159C22.2963 11.4212 22.3307 11.5425 22.3307 11.6663V18.333C22.3307 18.4365 22.3066 18.5386 22.2603 18.6311C22.2141 18.7237 22.1469 18.8042 22.0641 18.8663C21.3717 19.3856 20.5295 19.6663 19.6641 19.6663C17.6641 19.6663 16.3307 18.333 14.3307 18.333C13.3468 18.333 12.3974 18.6957 11.6641 19.3517" stroke="white" stroke-width="1.5" stroke-linecap="round" stroke-linejoin="round"/>
</svg>
