<svg width="18" height="18" viewBox="0 0 18 18" fill="none" xmlns="http://www.w3.org/2000/svg">
<path d="M9.00016 2.24609V5.99766" stroke="#57ABE6" stroke-width="1.5" stroke-linecap="round" stroke-linejoin="round"/>
<path d="M5.25 12.7502H6.75063" stroke="#57ABE6" stroke-width="1.5" stroke-linecap="round" stroke-linejoin="round"/>
<path d="M15.7556 7.49867C15.7556 6.6699 15.0838 5.99805 14.255 5.99805H3.75062C2.92185 5.99805 2.25 6.6699 2.25 7.49867" stroke="#57ABE6" stroke-width="1.5" stroke-linecap="round" stroke-linejoin="round"/>
<path fill-rule="evenodd" clip-rule="evenodd" d="M14.255 15.7517H3.9382C3.00584 15.7517 2.25 14.9959 2.25 14.0635V6.37281C2.24976 5.96758 2.33196 5.56654 2.4916 5.19407L3.31244 3.27102C3.57788 2.64925 4.18878 2.24592 4.86484 2.24609H13.14C13.8161 2.24592 14.427 2.64925 14.6924 3.27102L15.5178 5.19407C15.676 5.56684 15.7569 5.96785 15.7556 6.37281V14.2511C15.7556 15.0799 15.0838 15.7517 14.255 15.7517Z" stroke="#57ABE6" stroke-width="1.5" stroke-linecap="round" stroke-linejoin="round"/>
</svg>
