<svg width="20" height="20" viewBox="0 0 20 20" fill="none" xmlns="http://www.w3.org/2000/svg">
<path d="M4.16602 7.49935V2.91602C4.16602 2.22602 4.72602 1.66602 5.41602 1.66602V1.66602C6.10602 1.66602 6.66602 2.22602 6.66602 2.91602V8.33268C6.66602 9.71351 5.54685 10.8327 4.16602 10.8327V10.8327C2.78518 10.8327 1.66602 9.71351 1.66602 8.33268V4.16602" stroke="#57ABE6" stroke-linecap="round" stroke-linejoin="round"/>
<path d="M9.16602 6.66667H13.3327" stroke="#57ABE6" stroke-linecap="round" stroke-linejoin="round"/>
<path d="M9.16602 10.0007H13.3327" stroke="#57ABE6" stroke-linecap="round" stroke-linejoin="round"/>
<path d="M7.5 13.3327H13.3333" stroke="#57ABE6" stroke-linecap="round" stroke-linejoin="round"/>
<path d="M4.16602 10.8333V15.8333C4.16602 16.7542 4.91185 17.5 5.83268 17.5H14.9993C15.9202 17.5 16.666 16.7542 16.666 15.8333V4.16667C16.666 3.24583 15.9202 2.5 14.9993 2.5H6.66602" stroke="#57ABE6" stroke-linecap="round" stroke-linejoin="round"/>
</svg>
