<svg width="261" height="52" viewBox="0 0 261 52" fill="none" xmlns="http://www.w3.org/2000/svg">
<g clip-path="url(#clip0_714_23408)">
<path d="M18.7447 8.01416H7.38171C5.28806 8.01416 3.59082 9.71898 3.59082 11.822C3.59082 13.925 5.28806 15.6298 7.38171 15.6298H18.7447C20.8384 15.6298 22.5356 13.925 22.5356 11.822C22.5356 9.71898 20.8384 8.01416 18.7447 8.01416Z" fill="url(#paint0_linear_714_23408)"/>
<path d="M24.7264 45.9504L19.0449 36.0595C17.998 34.2371 15.6805 33.6122 13.8685 34.6637C12.0565 35.7152 11.4362 38.0449 12.483 39.8673L18.1645 49.7582C19.2114 51.5806 21.5289 52.2056 23.3409 51.1541C25.1529 50.1026 25.7732 47.7728 24.7264 45.9504Z" fill="url(#paint1_linear_714_23408)"/>
<path d="M36.7293 11.7966L31.0478 1.90572C30.001 0.083312 27.6834 -0.541636 25.8714 0.509862C24.0594 1.56136 23.4391 3.89112 24.486 5.71353L30.1675 15.6044C31.2143 17.4268 33.5318 18.0518 35.3438 17.0003C37.1558 15.9488 37.7761 13.619 36.7293 11.7966Z" fill="url(#paint2_linear_714_23408)"/>
<path d="M7.44574 35.8166L13.0187 25.8635C14.0455 24.0296 13.3998 21.7068 11.5764 20.6754C9.75299 19.644 7.44244 20.2946 6.41561 22.1284L0.842654 32.0815C-0.184172 33.9154 0.461571 36.2381 2.28496 37.2695C4.10836 38.3009 6.41891 37.6504 7.44574 35.8166Z" fill="url(#paint3_linear_714_23408)"/>
<path d="M42.8012 29.171L48.3742 19.218C49.401 17.3841 48.7552 15.0613 46.9319 14.0299C45.1085 12.9985 42.7979 13.649 41.7711 15.4829L36.1981 25.436C35.1713 27.2699 35.817 29.5926 37.6404 30.624C39.4638 31.6554 41.7744 31.0049 42.8012 29.171Z" fill="url(#paint4_linear_714_23408)"/>
<path d="M41.901 35.5215H30.538C28.4443 35.5215 26.7471 37.2263 26.7471 39.3293C26.7471 41.4323 28.4443 43.1371 30.538 43.1371H41.901C43.9946 43.1371 45.6919 41.4323 45.6919 39.3293C45.6919 37.2263 43.9946 35.5215 41.901 35.5215Z" fill="url(#paint5_linear_714_23408)"/>
<path d="M24.7114 32.4791C28.362 32.4791 31.3213 29.5047 31.3213 25.8355C31.3213 22.1663 28.362 19.1919 24.7114 19.1919C21.0609 19.1919 18.1016 22.1663 18.1016 25.8355C18.1016 29.5047 21.0609 32.4791 24.7114 32.4791Z" fill="url(#paint6_linear_714_23408)"/>
<path d="M57.6641 34.7782L67.0011 14.2495H69.1286L78.4656 34.7782H76.193L67.6152 15.5131H68.4903L59.9125 34.7782H57.6641ZM61.3389 29.2961L61.982 27.5368H73.8479L74.491 29.2961H61.3389Z" fill="#0C1836"/>
<path d="M83.7802 34.7783L78.002 19.3818H79.9844L85.2356 33.6654H84.3314L89.7324 19.3818H91.5118L96.8307 33.6654H95.9458L101.265 19.3818H103.16L97.3577 34.7783H95.4236L90.2885 21.3453H90.9026L85.7336 34.7783H83.7802Z" fill="#0C1836"/>
<path d="M110.152 34.924C109.127 34.9477 108.109 34.754 107.164 34.3554C106.382 34.0226 105.711 33.4731 105.229 32.7711C104.776 32.0796 104.542 31.2663 104.557 30.4383C104.548 29.6708 104.745 28.9151 105.128 28.2513C105.571 27.542 106.224 26.9897 106.994 26.6718C108.101 26.2244 109.289 26.019 110.481 26.0691H115.761V27.6243H110.539C109.059 27.6243 108.032 27.8884 107.459 28.4165C107.174 28.6789 106.951 29.0002 106.802 29.3583C106.654 29.7163 106.585 30.1025 106.601 30.49C106.616 30.8774 106.715 31.257 106.89 31.6022C107.066 31.9474 107.314 32.2501 107.618 32.4892C108.458 33.0655 109.465 33.3442 110.481 33.2814C111.543 33.3103 112.591 33.0302 113.498 32.4746C114.356 31.9221 115.006 31.0977 115.345 30.1321L115.829 31.5901C115.44 32.6038 114.728 33.4588 113.803 34.0201C112.696 34.6641 111.429 34.9777 110.152 34.924ZM115.437 34.7782V31.3762L115.345 30.8173V25.1311C115.381 24.5786 115.303 24.0245 115.115 23.5041C114.927 22.9837 114.633 22.5083 114.252 22.1082C113.524 21.4019 112.439 21.0504 110.998 21.0536C110.034 21.0435 109.076 21.2081 108.169 21.5396C107.337 21.8356 106.565 22.2819 105.892 22.8567L104.959 21.3015C105.786 20.6116 106.738 20.09 107.763 19.7657C108.874 19.3982 110.037 19.2144 111.206 19.2214C113.188 19.2214 114.72 19.7155 115.8 20.7037C116.879 21.6919 117.419 23.192 117.419 25.204V34.7782H115.437Z" fill="#0C1836"/>
<path d="M123.048 34.7782V19.3817H125.035V23.5759L124.832 22.8421C125.217 21.7221 125.98 20.773 126.989 20.1593C128.134 19.5087 129.436 19.1891 130.751 19.2359V21.2577H130.518C130.441 21.2529 130.364 21.2529 130.286 21.2577C129.587 21.2161 128.887 21.3246 128.232 21.576C127.578 21.8274 126.984 22.2159 126.491 22.7157C125.578 23.6877 125.122 25.0906 125.122 26.9245V34.7782H123.048Z" fill="#0C1836"/>
<path d="M140.875 34.9236C139.411 34.9563 137.964 34.6081 136.673 33.9128C135.495 33.2623 134.516 32.299 133.845 31.128C133.155 29.8881 132.807 28.4853 132.839 27.065C132.808 25.6542 133.141 24.2594 133.806 23.0166C134.436 21.8673 135.363 20.9102 136.49 20.2464C137.661 19.5884 138.98 19.2405 140.323 19.2354C141.665 19.2303 142.987 19.5682 144.163 20.2173C145.28 20.873 146.194 21.8268 146.803 22.9729C147.466 24.2325 147.798 25.6406 147.77 27.065C147.77 27.1622 147.77 27.2643 147.77 27.3712C147.77 27.483 147.77 27.5948 147.77 27.7114H134.401V26.1562H146.624L145.807 26.7734C145.824 25.7416 145.578 24.7227 145.092 23.8137C144.644 22.9703 143.975 22.266 143.158 21.7773C142.299 21.2764 141.321 21.0225 140.329 21.0435C139.336 21.0268 138.357 21.2804 137.495 21.7773C136.671 22.2635 136 22.9746 135.561 23.8283C135.082 24.7621 134.841 25.8008 134.86 26.8512V27.1719C134.836 28.255 135.104 29.3245 135.634 30.2678C136.145 31.1519 136.894 31.8729 137.795 32.3478C138.77 32.86 139.858 33.1174 140.957 33.0963C141.851 33.1091 142.739 32.944 143.569 32.6103C144.376 32.2784 145.092 31.7567 145.657 31.0891L146.823 32.4353C146.137 33.2607 145.26 33.9047 144.27 34.3113C143.191 34.7443 142.036 34.9526 140.875 34.9236Z" fill="#0C1836"/>
<path d="M152.181 34.7782V14.2495H154.574L163.737 29.7626H162.451L171.498 14.2495H173.891L173.92 34.7782H171.116L171.087 18.677H171.759L163.708 32.285H162.335L154.226 18.677H154.956V34.7782H152.181Z" fill="#0C1836"/>
<path d="M182.976 34.9532C181.941 34.9761 180.912 34.7756 179.959 34.3652C179.154 34.0237 178.46 33.4612 177.957 32.7419C177.492 32.0438 177.249 31.22 177.261 30.38C177.251 29.5771 177.457 28.7864 177.856 28.0909C178.315 27.3548 178.991 26.7806 179.79 26.4482C180.957 25.9935 182.205 25.785 183.455 25.8359H188.358V27.8576H183.61C182.208 27.8576 181.265 28.0925 180.781 28.5623C180.547 28.7779 180.361 29.041 180.235 29.3342C180.109 29.6274 180.046 29.944 180.051 30.2633C180.042 30.6148 180.118 30.9631 180.272 31.2788C180.426 31.5944 180.654 31.8679 180.936 32.0761C181.675 32.5755 182.556 32.8179 183.446 32.7662C184.411 32.7871 185.364 32.5435 186.202 32.0615C186.988 31.5931 187.591 30.8673 187.909 30.0057L188.465 31.9497C188.086 32.887 187.395 33.6633 186.511 34.1465C185.424 34.7228 184.205 35.001 182.976 34.9532ZM188.054 34.7783V31.4929L187.909 30.8757V25.2721C187.939 24.7633 187.862 24.2538 187.684 23.7766C187.506 23.2993 187.23 22.8651 186.874 22.5019C186.184 21.8539 185.148 21.5299 183.765 21.5299C182.851 21.5297 181.944 21.6824 181.081 21.9819C180.273 22.247 179.52 22.6607 178.862 23.2017L177.696 21.0876C178.551 20.4134 179.526 19.9102 180.569 19.6053C181.71 19.2704 182.895 19.1067 184.084 19.1193C186.205 19.1193 187.839 19.6377 188.987 20.6745C190.134 21.7113 190.708 23.2941 190.708 25.4228V34.7783H188.054Z" fill="#0C1836"/>
<path d="M201.152 34.1319C199.756 34.151 198.378 33.8167 197.144 33.1599C195.988 32.5455 195.019 31.6287 194.339 30.5063C193.636 29.3183 193.278 27.9565 193.304 26.5746C193.275 25.1892 193.633 23.8233 194.339 22.6331C195.02 21.5193 195.99 20.6122 197.144 20.0087C198.382 19.3677 199.759 19.0454 201.152 19.0707C202.405 19.054 203.645 19.3302 204.774 19.8775C205.871 20.4212 206.78 21.2828 207.385 22.3512C208.075 23.6474 208.409 25.1054 208.352 26.5746C208.407 28.0342 208.073 29.4821 207.385 30.7687C206.777 31.8434 205.87 32.7153 204.774 33.2765C203.652 33.8489 202.41 34.1422 201.152 34.1319ZM201.505 40.6443C200.107 40.6462 198.716 40.4431 197.376 40.0416C196.179 39.7157 195.069 39.1301 194.122 38.326L195.466 36.1585C196.249 36.8112 197.151 37.3062 198.12 37.6165C199.182 37.9823 200.296 38.1663 201.418 38.1608C203.246 38.1608 204.587 37.7299 205.441 36.868C206.295 36.0062 206.724 34.6972 206.727 32.9412V29.6752L207.017 26.594L206.872 23.4885V19.236H209.527V32.6641C209.527 35.4052 208.847 37.4205 207.486 38.71C206.126 39.9995 204.131 40.6443 201.5 40.6443H201.505ZM201.5 31.6678C202.453 31.6863 203.395 31.4658 204.242 31.0263C205.021 30.613 205.671 29.9926 206.123 29.233C206.573 28.4271 206.81 27.5183 206.81 26.594C206.81 25.6697 206.573 24.7609 206.123 23.955C205.672 23.2 205.02 22.5858 204.242 22.1811C203.392 21.7511 202.451 21.5359 201.5 21.5542C200.543 21.5364 199.596 21.7515 198.739 22.1811C197.956 22.5838 197.299 23.1981 196.844 23.955C196.394 24.7609 196.157 25.6697 196.157 26.594C196.157 27.5183 196.394 28.4271 196.844 29.233C197.301 29.9937 197.956 30.6139 198.739 31.0263C199.593 31.4653 200.542 31.6856 201.5 31.6678Z" fill="#0C1836"/>
<path d="M221.374 19.0901C222.528 19.066 223.672 19.3175 224.71 19.824C225.675 20.3122 226.464 21.0902 226.968 22.0499C227.554 23.2224 227.835 24.5248 227.785 25.8358V34.7782H224.986V26.1566C224.986 24.65 224.622 23.516 223.893 22.7546C223.49 22.3635 223.011 22.0602 222.486 21.8636C221.961 21.6671 221.401 21.5816 220.842 21.6125C219.942 21.5915 219.051 21.7917 218.245 22.1957C217.513 22.582 216.917 23.1863 216.539 23.9258C216.113 24.8126 215.907 25.7898 215.939 26.7738V34.7782H213.105V19.2262H215.789V23.4204L215.354 22.3026C215.861 21.2793 216.681 20.4463 217.694 19.9261C218.832 19.3432 220.097 19.0559 221.374 19.0901Z" fill="#0C1836"/>
<path d="M237.156 34.9531C235.953 34.9796 234.76 34.7285 233.669 34.2192C232.675 33.7388 231.858 32.9546 231.334 31.9788C230.747 30.8047 230.465 29.5009 230.512 28.188V19.2358H233.312V27.8575C233.312 29.3835 233.676 30.5272 234.404 31.2886C234.811 31.6835 235.295 31.9889 235.825 32.1856C236.355 32.3822 236.92 32.4657 237.484 32.4307C238.368 32.4521 239.241 32.2464 240.023 31.833C240.742 31.4271 241.322 30.8121 241.686 30.0688C242.096 29.1945 242.295 28.2354 242.267 27.2694V19.2358H245.066V34.7878H242.407V30.5839L242.847 31.6969C242.361 32.7274 241.564 33.5777 240.569 34.1269C239.522 34.6952 238.346 34.9799 237.156 34.9531Z" fill="#0C1836"/>
<path d="M253.669 34.953C252.43 34.9593 251.196 34.7825 250.008 34.4281C249.031 34.1612 248.108 33.7236 247.281 33.1354L248.447 30.9046C249.205 31.4094 250.03 31.8037 250.898 32.0759C251.86 32.3922 252.865 32.5562 253.877 32.5619C255.166 32.5619 256.104 32.3772 256.691 32.0079C256.959 31.8493 257.181 31.6215 257.332 31.3481C257.483 31.0746 257.559 30.7655 257.551 30.4527C257.562 30.2336 257.52 30.0151 257.428 29.8161C257.337 29.6172 257.198 29.4436 257.024 29.3106C256.619 29.0014 256.153 28.7841 255.656 28.6739C255.081 28.5378 254.442 28.4163 253.722 28.3045C253.001 28.1928 252.324 28.0615 251.623 27.8963C250.952 27.7427 250.302 27.506 249.689 27.1916C249.121 26.9021 248.637 26.4681 248.287 25.9329C247.909 25.2793 247.728 24.5299 247.765 23.775C247.748 22.8893 248.024 22.023 248.548 21.311C249.134 20.5547 249.923 19.9816 250.821 19.6586C251.905 19.2614 253.052 19.0686 254.205 19.09C255.243 19.0932 256.276 19.2155 257.286 19.4545C258.192 19.6438 259.057 19.9962 259.839 20.4945L258.639 22.7253C257.977 22.2689 257.236 21.9394 256.454 21.7533C255.707 21.5797 254.943 21.4916 254.176 21.4908C253.225 21.4257 252.274 21.633 251.435 22.0886C251.163 22.243 250.936 22.4667 250.777 22.7371C250.619 23.0076 250.534 23.3152 250.531 23.6292C250.518 23.86 250.56 24.0905 250.653 24.3018C250.746 24.513 250.888 24.699 251.067 24.8442C251.486 25.1573 251.963 25.3821 252.47 25.5052C253.098 25.6739 253.736 25.8069 254.379 25.9037C255.082 26.0106 255.783 26.1467 256.483 26.3119C257.153 26.464 257.802 26.6957 258.417 27.0021C258.98 27.2862 259.463 27.7092 259.819 28.2316C260.205 28.8662 260.392 29.6029 260.356 30.3457C260.374 31.2268 260.085 32.0866 259.539 32.7757C258.93 33.5073 258.134 34.0583 257.237 34.3698C256.093 34.7818 254.884 34.9795 253.669 34.953Z" fill="#0C1836"/>
</g>
<defs>
<linearGradient id="paint0_linear_714_23408" x1="41.1758" y1="49.7275" x2="22.871" y2="25.303" gradientUnits="userSpaceOnUse">
<stop stop-color="#1A79CC"/>
<stop offset="0.01" stop-color="#0166FF"/>
<stop offset="1" stop-color="#66CAFE"/>
</linearGradient>
<linearGradient id="paint1_linear_714_23408" x1="29.9195" y1="58.1623" x2="11.6147" y2="33.7329" gradientUnits="userSpaceOnUse">
<stop stop-color="#1A79CC"/>
<stop offset="0.01" stop-color="#0166FF"/>
<stop offset="1" stop-color="#66CAFE"/>
</linearGradient>
<linearGradient id="paint2_linear_714_23408" x1="53.915" y1="40.1845" x2="35.615" y2="15.7551" gradientUnits="userSpaceOnUse">
<stop stop-color="#1A79CC"/>
<stop offset="0.01" stop-color="#0166FF"/>
<stop offset="1" stop-color="#66CAFE"/>
</linearGradient>
<linearGradient id="paint3_linear_714_23408" x1="29.0592" y1="58.8104" x2="10.7544" y2="34.381" gradientUnits="userSpaceOnUse">
<stop stop-color="#1A79CC"/>
<stop offset="0.01" stop-color="#0166FF"/>
<stop offset="1" stop-color="#66CAFE"/>
</linearGradient>
<linearGradient id="paint4_linear_714_23408" x1="54.9538" y1="39.4066" x2="36.6539" y2="14.9821" gradientUnits="userSpaceOnUse">
<stop stop-color="#1A79CC"/>
<stop offset="0.01" stop-color="#0166FF"/>
<stop offset="1" stop-color="#66CAFE"/>
</linearGradient>
<linearGradient id="paint5_linear_714_23408" x1="42.9454" y1="48.4005" x2="24.6454" y2="23.9759" gradientUnits="userSpaceOnUse">
<stop stop-color="#1A79CC"/>
<stop offset="0.01" stop-color="#0166FF"/>
<stop offset="1" stop-color="#66CAFE"/>
</linearGradient>
<linearGradient id="paint6_linear_714_23408" x1="41.9832" y1="49.1246" x2="23.6832" y2="24.6952" gradientUnits="userSpaceOnUse">
<stop stop-color="#1A79CC"/>
<stop offset="0.01" stop-color="#0166FF"/>
<stop offset="1" stop-color="#66CAFE"/>
</linearGradient>
<clipPath id="clip0_714_23408">
<rect width="260" height="51.6667" fill="white" transform="translate(0.351562)"/>
</clipPath>
</defs>
</svg>
