<svg width="12" height="12" viewBox="0 0 12 12" fill="none" xmlns="http://www.w3.org/2000/svg">
<path d="M2.33203 9.74805V2.24805C2.33203 1.91653 2.46373 1.59858 2.69815 1.36416C2.93257 1.12974 3.25051 0.998047 3.58203 0.998047H9.83203C9.96464 0.998047 10.0918 1.05073 10.1856 1.14449C10.2794 1.23826 10.332 1.36544 10.332 1.49805V10.498C10.332 10.6307 10.2794 10.7578 10.1856 10.8516C10.0918 10.9454 9.96464 10.998 9.83203 10.998H3.58203C3.25051 10.998 2.93257 10.8664 2.69815 10.6319C2.46373 10.3975 2.33203 10.0796 2.33203 9.74805ZM2.33203 9.74805C2.33203 9.41653 2.46373 9.09858 2.69815 8.86416C2.93257 8.62974 3.25051 8.49805 3.58203 8.49805H10.332" stroke="#656972" stroke-linecap="round" stroke-linejoin="round"/>
</svg>
