<svg width="24" height="24" viewBox="0 0 24 24" fill="none" xmlns="http://www.w3.org/2000/svg">
<path d="M9.99901 18.0023H4.99693C3.89147 18.0023 2.99609 17.107 2.99609 16.0015V4.99693C2.99609 3.89147 3.89147 2.99609 4.99693 2.99609H17.0019C18.1074 2.99609 19.0028 3.89147 19.0028 4.99693V9.99901" stroke="#00CCC4" stroke-width="1.5" stroke-linecap="round" stroke-linejoin="round"/>
<path d="M2.99609 7.99826H19.0028" stroke="#00CCC4" stroke-width="1.5" stroke-linecap="round" stroke-linejoin="round"/>
<path d="M18.7801 16.1133L16.5572 18.3362L15.2227 17.0027" stroke="#00CCC4" stroke-width="1.5" stroke-linecap="round" stroke-linejoin="round"/>
<path fill-rule="evenodd" clip-rule="evenodd" d="M19.0025 21.0033H15.0008C13.8954 21.0033 13 20.108 13 19.0025V15.0008C13 13.8954 13.8954 13 15.0008 13H19.0025C20.108 13 21.0033 13.8954 21.0033 15.0008V19.0025C21.0033 20.108 20.108 21.0033 19.0025 21.0033Z" stroke="#00CCC4" stroke-width="1.5" stroke-linecap="round" stroke-linejoin="round"/>
</svg>
