<svg width="24" height="24" viewBox="0 0 24 24" fill="none" xmlns="http://www.w3.org/2000/svg">
<path d="M18.3838 7.99805H19.4453C20.3056 7.99805 21.0019 8.69434 21.0019 9.5547V19.4478C21.0019 20.3072 20.3056 21.0035 19.4453 21.0035H8.55274C7.69238 21.0035 6.99609 20.3072 6.99609 19.4468V18.0022" stroke="#00CCC4" stroke-width="1.5" stroke-linecap="round" stroke-linejoin="round"/>
<path fill-rule="evenodd" clip-rule="evenodd" d="M3.9976 18.0019H15.3143C15.9836 18.0019 16.6079 17.6678 16.979 17.1106L17.7133 16.0081C18.1515 15.3508 18.3856 14.5785 18.3856 13.7882V5.99693C18.3856 4.89147 17.4902 3.99609 16.3848 3.99609H6.3806C5.27514 3.99609 4.37976 4.89147 4.37976 5.99693V13.0559C4.37976 13.6771 4.2347 14.2894 3.95759 14.8456L3.10323 16.5543C2.77009 17.2196 3.25429 18.0019 3.9976 18.0019Z" stroke="#00CCC4" stroke-width="1.5" stroke-linecap="round" stroke-linejoin="round"/>
<path d="M13.6513 9.5918L10.8371 12.406L9.14844 10.7183" stroke="#00CCC4" stroke-width="1.5" stroke-linecap="round" stroke-linejoin="round"/>
<path d="M8.37911 2.99609V4.99693" stroke="#00CCC4" stroke-width="1.5" stroke-linecap="round" stroke-linejoin="round"/>
<path d="M14.3791 2.99609V4.99693" stroke="#00CCC4" stroke-width="1.5" stroke-linecap="round" stroke-linejoin="round"/>
</svg>
