<svg width="36" height="36" viewBox="0 0 36 36" fill="none" xmlns="http://www.w3.org/2000/svg">
<rect width="36" height="36" rx="18" fill="#F4638B"/>
<path fill-rule="evenodd" clip-rule="evenodd" d="M25.1875 12.2908C25.1875 11.4742 24.5258 10.8125 23.7092 10.8125H12.2908C11.4742 10.8125 10.8125 11.4742 10.8125 12.2908V23.7092C10.8125 24.5258 11.4742 25.1875 12.2908 25.1875H23.7092C24.5258 25.1875 25.1875 24.5258 25.1875 23.7092V12.2908V12.2908Z" stroke="white" stroke-linecap="round" stroke-linejoin="round"/>
<path d="M22.0786 18.0007H17.6953" stroke="white" stroke-linecap="round" stroke-linejoin="round"/>
<path d="M14.3999 17.8533C14.4813 17.9347 14.4813 18.0666 14.3999 18.148C14.3186 18.2293 14.1866 18.2293 14.1053 18.148C14.0239 18.0666 14.0239 17.9347 14.1053 17.8533C14.1866 17.772 14.3186 17.772 14.3999 17.8533" stroke="white" stroke-linecap="round" stroke-linejoin="round"/>
<path d="M22.0786 14.2507H17.6953" stroke="white" stroke-linecap="round" stroke-linejoin="round"/>
<path d="M14.3999 14.1053C14.4813 14.1866 14.4813 14.3186 14.3999 14.3999C14.3186 14.4813 14.1866 14.4813 14.1053 14.3999C14.0239 14.3186 14.0239 14.1866 14.1053 14.1053C14.1866 14.0239 14.3186 14.0239 14.3999 14.1053" stroke="white" stroke-linecap="round" stroke-linejoin="round"/>
<path d="M22.149 21.7507H17.7656" stroke="white" stroke-linecap="round" stroke-linejoin="round"/>
<path d="M14.4702 21.6053C14.5516 21.6866 14.5516 21.8186 14.4702 21.8999C14.3889 21.9813 14.257 21.9813 14.1756 21.8999C14.0942 21.8186 14.0942 21.6866 14.1756 21.6053C14.257 21.5239 14.3889 21.5239 14.4702 21.6053" stroke="white" stroke-linecap="round" stroke-linejoin="round"/>
</svg>
