<svg width="18" height="19" viewBox="0 0 18 19" fill="none" xmlns="http://www.w3.org/2000/svg">
<path d="M4.1875 7.4375V5.375C4.1875 4.23591 5.11091 3.3125 6.25 3.3125H13.8125C14.9516 3.3125 15.875 4.23591 15.875 5.375V13.625C15.875 14.7641 14.9516 15.6875 13.8125 15.6875H11.75" stroke="#00CCC4" stroke-linecap="round" stroke-linejoin="round"/>
<path d="M13.125 9.5H11.75" stroke="#00CCC4" stroke-linecap="round" stroke-linejoin="round"/>
<path d="M13.125 6.75H6.9375" stroke="#00CCC4" stroke-linecap="round" stroke-linejoin="round"/>
<path d="M13.125 12.25H11.75" stroke="#00CCC4" stroke-linecap="round" stroke-linejoin="round"/>
<path fill-rule="evenodd" clip-rule="evenodd" d="M2.125 11.0125V14.175C2.125 15.0103 2.80217 15.6875 3.6375 15.6875H8.175C9.01033 15.6875 9.6875 15.0103 9.6875 14.175V11.0125C9.6875 10.6114 9.52815 10.2266 9.2445 9.943C8.96085 9.65935 8.57614 9.5 8.175 9.5H3.6375C2.80217 9.5 2.125 10.1772 2.125 11.0125Z" stroke="#00CCC4" stroke-linecap="round" stroke-linejoin="round"/>
<path d="M4.1875 11.9063L5.47488 12.4992C5.74866 12.6253 6.06391 12.6253 6.33769 12.4992L7.625 11.9063" stroke="#00CCC4" stroke-linecap="round" stroke-linejoin="round"/>
</svg>
