<svg width="19" height="19" viewBox="0 0 19 19" fill="none" xmlns="http://www.w3.org/2000/svg">
<path d="M11.3424 7.90981C12.2207 8.78806 12.2207 10.2138 11.3424 11.0936C10.4642 11.9718 9.03844 11.9718 8.15869 11.0936C7.28044 10.2153 7.28044 8.78956 8.15869 7.90981C9.03844 7.03006 10.4634 7.03006 11.3424 7.90981" stroke="#57ABE6" stroke-linecap="round" stroke-linejoin="round"/>
<path d="M16.5 12.5L14.25 14.75L12.75 13.25" stroke="#57ABE6" stroke-linecap="round" stroke-linejoin="round"/>
<path d="M9.75 14.75C6.98175 14.75 4.47075 13.2567 3.3345 10.934V10.934C3.114 10.4832 3 9.99425 3 9.5C3 9.00575 3.114 8.51675 3.3345 8.066V8.066C4.47075 5.74325 6.98175 4.25 9.75 4.25C12.5182 4.25 15.0293 5.74325 16.1655 8.066V8.066C16.386 8.51675 16.5 9.00575 16.5 9.5" stroke="#57ABE6" stroke-linecap="round" stroke-linejoin="round"/>
</svg>
