<svg width="32" height="32" viewBox="0 0 32 32" fill="none" xmlns="http://www.w3.org/2000/svg">
<rect width="32" height="32" rx="16" fill="#F5A185"/>
<path d="M16.0003 8.5C16.5559 10.7222 17.667 12.5278 19.3337 13.9167C21.0003 15.3056 21.8337 16.8333 21.8337 18.5C21.8337 20.0471 21.2191 21.5308 20.1251 22.6248C19.0312 23.7188 17.5474 24.3333 16.0003 24.3333C14.4532 24.3333 12.9695 23.7188 11.8755 22.6248C10.7816 21.5308 10.167 20.0471 10.167 18.5C10.167 17.5985 10.4594 16.7212 11.0003 16C11.0003 16.5525 11.2198 17.0824 11.6105 17.4731C12.0012 17.8638 12.5311 18.0833 13.0837 18.0833C13.6362 18.0833 14.1661 17.8638 14.5568 17.4731C14.9475 17.0824 15.167 16.5525 15.167 16C15.167 14.3333 13.917 13.5 13.917 11.8333C13.917 10.7222 14.6114 9.61111 16.0003 8.5Z" stroke="white" stroke-width="1.5" stroke-linecap="round" stroke-linejoin="round"/>
</svg>
