<svg width="19" height="18" viewBox="0 0 19 18" fill="none" xmlns="http://www.w3.org/2000/svg">
<path fill-rule="evenodd" clip-rule="evenodd" d="M6.2832 2.99672L7.25861 1.77746C7.40117 1.59964 7.61651 1.49609 7.8446 1.49609H10.7251C10.9531 1.49609 11.1685 1.59964 11.311 1.77746L12.2857 2.99672V2.99672V3.74703C12.2857 4.1612 11.9496 4.49734 11.5354 4.49734H7.03352C6.61934 4.49734 6.2832 4.1612 6.2832 3.74703V2.99672V2.99672Z" stroke="#AE62E9" stroke-linecap="round" stroke-linejoin="round"/>
<path d="M6.2825 2.99609H4.78187C3.95278 2.99609 3.28125 3.66762 3.28125 4.49672V14.2508C3.28125 15.0799 3.95278 15.7514 4.78187 15.7514H13.7856C14.6147 15.7514 15.2862 15.0799 15.2862 14.2508V4.49672C15.2862 3.66762 14.6147 2.99609 13.7856 2.99609H12.285" stroke="#AE62E9" stroke-linecap="round" stroke-linejoin="round"/>
<path d="M10.7845 9.375L8.90867 11.2508L7.7832 10.1253" stroke="#AE62E9" stroke-linecap="round" stroke-linejoin="round"/>
</svg>
