<svg width="32" height="32" viewBox="0 0 32 32" fill="none" xmlns="http://www.w3.org/2000/svg">
<rect width="32" height="32" rx="16" fill="#7CC5FA"/>
<path d="M23.8498 15.1018C23.999 15.036 24.1256 14.9279 24.2139 14.7908C24.3023 14.6538 24.3485 14.4938 24.3468 14.3307C24.3451 14.1677 24.2956 14.0087 24.2045 13.8735C24.1133 13.7383 23.9845 13.6328 23.834 13.5701L16.6915 10.3168C16.4744 10.2178 16.2385 10.1665 15.9998 10.1665C15.7612 10.1665 15.5253 10.2178 15.3082 10.3168L8.1665 13.5668C8.01814 13.6318 7.89193 13.7386 7.8033 13.8741C7.71468 14.0097 7.66748 14.1682 7.66748 14.3301C7.66748 14.4921 7.71468 14.6506 7.8033 14.7861C7.89193 14.9217 8.01814 15.0285 8.1665 15.0935L15.3082 18.3501C15.5253 18.4492 15.7612 18.5004 15.9998 18.5004C16.2385 18.5004 16.4744 18.4492 16.6915 18.3501L23.8498 15.1018Z" stroke="white" stroke-width="1.5" stroke-linecap="round" stroke-linejoin="round"/>
<path d="M24.3335 14.3335V19.3335" stroke="white" stroke-width="1.5" stroke-linecap="round" stroke-linejoin="round"/>
<path d="M11 16.4165V19.3332C11 19.9962 11.5268 20.6321 12.4645 21.1009C13.4021 21.5698 14.6739 21.8332 16 21.8332C17.3261 21.8332 18.5979 21.5698 19.5355 21.1009C20.4732 20.6321 21 19.9962 21 19.3332V16.4165" stroke="white" stroke-width="1.5" stroke-linecap="round" stroke-linejoin="round"/>
</svg>
