<svg width="36" height="36" viewBox="0 0 36 36" fill="none" xmlns="http://www.w3.org/2000/svg">
<rect width="36" height="36" rx="18" fill="#8BA3DF"/>
<path fill-rule="evenodd" clip-rule="evenodd" d="M21.6077 25.5033H11.8819C11.1141 25.5033 10.4922 24.8813 10.4922 24.1135V14.3878C10.4922 13.62 11.1141 12.998 11.8819 12.998H21.6085C22.3755 12.998 22.9974 13.62 22.9974 14.3878V24.1143C22.9974 24.8813 22.3755 25.5033 21.6077 25.5033Z" stroke="white" stroke-linecap="round" stroke-linejoin="round"/>
<path d="M18.2225 16.4699C19.0362 17.2836 19.0362 18.6033 18.2225 19.4178C17.4089 20.2315 16.0891 20.2315 15.2746 19.4178C14.4601 18.6042 14.461 17.2844 15.2746 16.4699C16.0883 15.6554 17.408 15.6563 18.2225 16.4699" stroke="white" stroke-linecap="round" stroke-linejoin="round"/>
<path d="M20.4953 23.3638C20.3861 23.0895 20.2169 22.8428 20.0001 22.6418V22.6418C19.6341 22.3017 19.1548 22.1133 18.6545 22.1133C17.8209 22.1133 15.6666 22.1133 14.833 22.1133C14.3327 22.1133 13.8542 22.3025 13.4874 22.6418V22.6418C13.2706 22.8428 13.1014 23.0895 12.9922 23.3638" stroke="white" stroke-linecap="round" stroke-linejoin="round"/>
<path d="M12.9922 12.9971V11.8858C12.9922 11.118 13.6141 10.4961 14.3819 10.4961H24.1085C24.8755 10.4961 25.4974 11.118 25.4974 11.8858V21.6124C25.4974 22.3794 24.8755 23.0013 24.1077 23.0013H22.9964" stroke="white" stroke-linecap="round" stroke-linejoin="round"/>
</svg>
