<svg width="320" height="236" viewBox="0 0 320 236" fill="none" xmlns="http://www.w3.org/2000/svg">
<g clip-path="url(#clip0_2950_41700)">
<path d="M320 0H-10V236H320V0Z" fill="white"/>
<path d="M274.165 205.803H27.7153C27.2795 205.803 26.9261 205.449 26.9261 205.013C26.9261 204.576 27.2795 204.223 27.7153 204.223H274.165C274.601 204.223 274.955 204.576 274.955 205.013C274.955 205.449 274.601 205.803 274.165 205.803Z" fill="#2E5B99"/>
<path d="M197.29 120.656L276.486 120.656V46.5094L197.29 46.5094V120.656Z" fill="#E6F6FF"/>
<path d="M66.0132 178.281H119.338V130.303H66.0132V178.281Z" fill="#E6F6FF"/>
<path d="M187.042 92.773V86.1136C187.042 83.0894 189.489 80.6377 192.51 80.6377H250.728C253.749 80.6377 256.197 83.0894 256.197 86.1136V203.833H105.603V92.773H187.042Z" fill="white"/>
<path d="M186.558 92.773V86.1136C186.558 83.0894 189.005 80.6377 192.026 80.6377H250.244C253.265 80.6377 255.714 83.0894 255.714 86.1136V203.833H105.12V92.773H186.558Z" fill="#0F4599"/>
<path d="M250.669 97.3747V203.833H111.166V96.8516L250.669 97.3747Z" fill="#BAE2FF"/>
<path d="M243.01 97.3747V203.833H103.507V96.8516L243.01 97.3747Z" fill="#1480CC"/>
<path d="M97.883 92.7734H235.702C238.531 92.7734 240.614 94.69 241.021 97.3401V203.833H90.6045L90.6047 100.042C90.5705 96.2171 94.0183 92.7734 97.883 92.7734Z" fill="white"/>
<path d="M148.435 132.305L228.986 132.531L229.157 71.2406L148.607 71.0148L148.435 132.305Z" fill="#EBF3FF"/>
<path d="M150.545 129.366L226.975 129.58L227.133 73.235L150.702 73.0207L150.545 129.366Z" fill="#3397FF"/>
<path d="M220.533 125.04L171.417 124.902L198.272 99.1074L220.533 125.04Z" fill="#E3EEFF"/>
<path d="M198.2 124.977L156.931 124.862L179.325 103.543L198.2 124.977Z" fill="#E3EEFF"/>
<path d="M186.952 97.397C189.174 95.173 189.174 91.5672 186.952 89.3432C184.731 87.1192 181.129 87.1192 178.908 89.3432C176.687 91.5672 176.687 95.173 178.908 97.397C181.129 99.621 184.731 99.621 186.952 97.397Z" fill="#E3EEFF"/>
<path d="M137.706 124.966L212.382 125.205L212.59 60.1842L137.913 59.945L137.706 124.966Z" fill="#EBF3FF"/>
<path d="M139.876 121.851L210.312 122.077L210.503 62.3029L140.067 62.0772L139.876 121.851Z" fill="#3397FF"/>
<path d="M203.589 70.5508H175.536V73.0183H203.589V70.5508Z" fill="#CCE5FF"/>
<path d="M146.516 79.6816H203.589V77.2141H146.516V79.6816Z" fill="#CCE5FF"/>
<path d="M146.516 86.4658H203.589V83.9983H146.516V86.4658Z" fill="#CCE5FF"/>
<path d="M97.2195 92.7734H235.038C237.867 92.7734 239.95 94.69 240.357 97.3401V204.215H89.9408L89.9411 100.042C89.9069 96.2171 93.3547 92.7734 97.2195 92.7734Z" fill="#66B8FF"/>
<path d="M241.021 203.833H256.197V203.221H241.021V203.833Z" fill="white"/>
<path opacity="0.5" d="M256.197 137.816L250.669 141.428H243.365L241.021 143.234V141.518H90.6045V137.816H256.197Z" fill="black"/>
<path d="M87.5401 139.469L258.334 139.469V120.148L87.5401 120.148V139.469Z" fill="#61B3F2"/>
<path d="M87.5402 139.469L242.959 139.469V120.148L87.5402 120.148V139.469Z" fill="#2E97E6"/>
<path d="M199.993 120.147V139.462H186.489L195.957 120.147H199.993Z" fill="#0E0E0E"/>
<path d="M195.326 129.787C195.326 132.46 195.792 134.879 196.576 136.619C197.341 138.401 198.405 139.462 199.58 139.462H203.166V120.154H199.58C197.229 120.154 195.326 124.483 195.326 129.787ZM198.722 132.97C198.051 132.757 197.528 131.443 197.528 129.787C197.528 128.175 198.05 126.859 198.722 126.647C199.394 126.859 199.917 128.175 199.917 129.787C199.917 131.442 199.394 132.757 198.722 132.97Z" fill="#2475B3"/>
<path d="M197.153 129.787C197.153 132.46 197.641 134.879 198.461 136.619C199.261 138.401 200.374 139.462 201.604 139.462H203.167V120.154H201.604C199.144 120.154 197.153 124.483 197.153 129.787ZM198.871 129.787C198.871 128.175 199.886 126.859 200.589 126.647C201.292 126.859 201.839 128.175 201.839 129.787C201.839 131.442 201.292 132.757 200.589 132.97C199.886 132.757 198.871 131.442 198.871 129.787Z" fill="#3F9EE6"/>
<path d="M197.044 129.787C197.044 132.46 197.51 134.879 198.294 136.619C199.059 138.401 200.123 139.462 201.298 139.462H204.885V120.154H201.298C198.947 120.154 197.044 124.483 197.044 129.787ZM200.44 132.97C199.769 132.757 199.246 131.443 199.246 129.787C199.246 128.175 199.769 126.859 200.44 126.647C201.112 126.859 201.635 128.175 201.635 129.787C201.635 131.442 201.112 132.757 200.44 132.97Z" fill="#2475B3"/>
<path d="M198.871 129.787C198.871 132.46 199.359 134.879 200.179 136.619C200.98 138.401 202.092 139.462 203.322 139.462H204.885V120.154H203.322C200.862 120.154 198.871 124.483 198.871 129.787ZM200.589 129.787C200.589 128.175 201.136 126.859 201.838 126.647C202.542 126.859 203.088 128.175 203.088 129.787C203.088 131.442 202.542 132.757 201.838 132.97C201.136 132.757 200.589 131.442 200.589 129.787Z" fill="#61B3F2"/>
<path d="M201.281 139.588C201.129 139.588 200.255 139.547 199.331 138.659C198.282 137.651 197.032 135.373 197.032 130.25C197.032 125.369 198.172 122.856 199.128 121.608C200.181 120.233 201.233 120.038 201.277 120.03C201.346 120.019 201.41 120.064 201.422 120.133C201.434 120.201 201.388 120.266 201.32 120.278C201.31 120.28 200.305 120.473 199.311 121.783C198.386 123.002 197.283 125.46 197.283 130.25C197.283 135.273 198.486 137.492 199.495 138.468C200.412 139.356 201.286 139.338 201.294 139.336C201.364 139.334 201.421 139.388 201.424 139.457C201.426 139.526 201.373 139.585 201.303 139.587C201.301 139.588 201.293 139.588 201.281 139.588Z" fill="#1A5380"/>
<path d="M201.837 132.711C202.007 132.753 202.133 132.796 202.303 132.838C202.26 132.881 202.26 132.881 202.303 132.881C209.127 134.917 214.17 141.197 214.17 148.708V164.838H219.595V148.708C219.595 138.27 212.263 129.528 202.472 127.321C202.26 127.236 202.048 127.194 201.837 127.152C200.268 126.813 200.141 132.457 201.837 132.711Z" fill="#E6E6E6"/>
<path d="M195.415 126.863V132.265C188.423 133.166 182.776 138.361 181.275 145.149C181.231 145.317 181.19 145.445 181.19 145.572C181.105 145.955 181.063 146.293 181.02 146.676C180.935 147.354 180.893 148.034 180.893 148.712V164.842H175.51V148.712C175.51 137.305 184.266 127.958 195.415 126.863Z" fill="#E6E6E6"/>
<path d="M201.712 131.117C214.433 133.351 216.071 147.218 216.071 147.218V164.842H214.163V148.713C214.163 141.043 208.911 134.632 201.841 132.722C201.301 132.547 200.964 130.963 200.964 130.963C200.964 130.963 201.298 131.038 201.712 131.117Z" fill="#999999"/>
<path d="M195.415 131.117V132.265C188.423 133.166 182.776 138.361 181.275 145.149C181.579 141.187 184.86 132.528 195.415 131.117Z" fill="#808080"/>
<path d="M201.837 132.711C202.007 132.753 202.133 132.795 202.303 132.838C202.175 132.498 201.486 131.727 201.401 130.115C201.316 128.46 201.878 127.34 202.472 127.321C202.26 127.236 202.048 127.194 201.837 127.152C200.268 126.813 200.141 132.457 201.837 132.711Z" fill="#666666"/>
<path d="M224.251 160.44H170.805V204.181H224.251V160.44Z" fill="#F7AF0C"/>
<path d="M198.332 171.245C198.162 171.202 197.993 171.202 197.823 171.202C194.179 171.202 191.211 174.158 191.211 177.842C191.211 180.54 192.822 182.854 195.111 183.925V195.19C195.111 196.69 196.339 197.933 197.823 197.933C197.95 197.933 198.12 197.933 198.247 197.89H198.374C199.603 197.633 200.536 196.519 200.536 195.191V183.925C202.824 182.897 204.435 180.54 204.435 177.842C204.435 174.329 201.764 171.502 198.332 171.245Z" fill="#CC840A"/>
<path d="M198.332 171.245C194.899 171.458 192.186 174.329 192.186 177.842C192.186 180.54 193.797 182.854 196.086 183.925V195.191C196.086 196.519 197.018 197.633 198.247 197.89H198.374C199.603 197.633 200.536 196.519 200.536 195.191V183.925C202.824 182.897 204.435 180.54 204.435 177.842C204.435 174.329 201.764 171.502 198.332 171.245Z" fill="#803D00"/>
<path d="M187.765 204.181H170.805V160.44H175.51C175.51 160.44 174.261 192.715 187.765 204.181Z" fill="#E6950B"/>
<path d="M212.776 204.181C216.826 195.504 216.071 172.175 216.071 160.44H221.454V204.181H212.776Z" fill="#F7E4AD"/>
<path d="M157.651 163.625C157.651 163.625 152.168 163.447 146.765 163.706C141.152 163.98 135.62 164.723 136.41 166.661C136.588 167.097 136.62 167.516 136.523 167.936C135.394 173.12 114.927 176.995 110.411 173.814C107.04 171.441 97.7502 174.492 93.944 176.139C86.6951 127.558 86.4926 77.8946 92.9118 74.439C99.3308 70.9993 117.121 75.3596 117.121 75.3596C117.121 75.3596 126.137 77.7495 129.814 102.44C133.507 127.114 157.651 163.625 157.651 163.625Z" fill="#4582E6"/>
<path d="M136.41 166.661C136.588 167.097 136.62 167.517 136.523 167.937C130.975 150.997 117.911 102.601 122.653 115.795C127.201 128.519 141.475 154.291 146.765 163.706C141.152 163.98 135.62 164.723 136.41 166.661Z" fill="#3D73CC"/>
<path d="M92.2414 87.2848C86.9674 93.7441 85.9996 95.3104 81.0644 95.6498C82.7257 96.6993 83.7094 98.1201 84.3868 99.6545H84.4029C85.8545 102.836 86.0642 106.55 88.5963 108.632L85.5641 111.62L84.7901 112.395C84.7901 112.395 84.6771 112.298 84.4836 112.121C83.1611 110.893 77.9031 105.936 74.7744 101.382C72.9357 98.7339 71.8228 96.2309 72.5969 94.6646C73.855 90.1107 77.0807 80.761 85.29 77.9674C90.6771 72.1058 95.9509 75.2546 97.8219 77.693C100.322 80.955 97.8057 87.9306 92.2414 87.2848Z" fill="#002E73"/>
<path d="M88.5963 108.632L85.5641 111.62L84.4835 112.12C83.2417 110.958 78.4999 106.501 75.3387 102.173C75.1451 101.915 74.9516 101.64 74.7742 101.382C76.3386 101.366 81.3707 101.237 84.3867 99.6543H84.4028C84.5319 99.9287 84.6448 100.203 84.7416 100.477C85.9028 103.449 86.2738 106.727 88.5963 108.632Z" fill="#231F20"/>
<path d="M84.7417 100.477C81.403 102.513 77.5806 102.448 75.3388 102.173C75.1452 101.915 74.9517 101.64 74.7743 101.382C76.3386 101.366 81.3708 101.237 84.3868 99.6543H84.4029C84.532 99.9287 84.6448 100.203 84.7417 100.477Z" fill="#66B8FF"/>
<path d="M86.3238 105.876C86.3238 105.876 89.7784 106.197 90.824 107.108C91.6977 107.869 91.1641 108.818 91.1641 108.818C93.0234 109.865 91.1644 113.925 87.9182 114.927C84.6719 115.929 82.545 109.807 82.545 109.807C82.545 109.807 83.0395 106.094 86.3238 105.876Z" fill="#231F20"/>
<path d="M129.91 204.398H118.19C117.949 204.26 117.771 204.104 117.665 203.926C117.061 195.2 116.192 190.998 116.192 190.998L124.354 190.665L126.202 197.157C128.937 199.029 132.196 203.043 129.91 204.398Z" fill="#231F20"/>
<path d="M117.302 204.555H131.196C131.549 204.555 131.43 202.62 131.078 202.62L117.267 202.698C116.904 202.698 116.939 204.555 117.302 204.555Z" fill="#231F20"/>
<path d="M112.46 111.452C114.357 116.56 122.426 139.966 120.122 156.817C123.291 168.023 122.296 177.515 125.154 193.88L116.836 194.319C113.455 174.351 109.734 178.161 108.658 158.386C101.804 142.881 98.2491 128.193 96.4255 113.07C94.6519 101.669 108.632 95.6827 112.46 111.452Z" fill="#002E73"/>
<path d="M116.922 195.17C116.922 195.17 116.299 189.228 112.386 177.876C111.171 174.387 110.512 172.078 110.17 170.657C109.827 169.22 109.785 168.671 109.785 168.671C111.848 166.281 114.466 162.68 116.792 158.353C119.337 162.341 122.366 166.33 122.366 166.33C122.366 166.33 122.443 167.266 122.581 168.8C123.195 175.227 124.845 192.215 125.84 195.816C127.069 200.273 119.335 202.808 116.922 195.17Z" fill="#231F20"/>
<path d="M122.581 168.8C121.252 167.315 118.861 164.521 116.86 161.469C115.953 164.763 112.144 168.752 110.17 170.657C109.827 169.22 109.785 168.671 109.785 168.671C111.848 166.281 114.466 162.68 116.792 158.353C119.337 162.341 122.366 166.33 122.366 166.33C122.366 166.33 122.443 167.266 122.581 168.8Z" fill="#66B8FF"/>
<path d="M102.623 113.618C102.036 135.869 98.0739 154.769 98.0739 154.769C99.7513 169.95 95.937 172.779 94.2137 194.497L86.6958 194.397C86.6767 185.582 86.1663 174.666 85.6313 156.991C80.8982 138.519 83.178 124.914 84.9428 113.872C86.8261 101.329 103.825 97.1782 102.623 113.618Z" fill="#002E73"/>
<path d="M94.2137 194.497C94.8843 198.093 95.3656 200.899 95.084 204.153L76.8761 204.508C76.8761 204.508 75.0737 202.75 77.3398 200.114C79.6058 197.478 83.909 199.003 86.6958 194.397L94.2137 194.497Z" fill="#231F20"/>
<path d="M76.0492 204.556H95.394C95.7463 204.556 95.6538 202.621 95.3015 202.621L76.0386 202.699C75.6761 202.699 75.6867 204.556 76.0492 204.556Z" fill="#231F20"/>
<path d="M97.8303 169.947C97.8303 169.947 97.6999 170.593 97.4782 171.691C96.5622 176.487 94.1053 189.873 94.3932 195.897C90.9755 199.982 86.533 195.444 86.533 195.444L84.7422 162.357L84.6197 160.129C89.4401 165.49 94.4476 168.348 97.8303 169.947Z" fill="#231F20"/>
<path d="M97.8303 169.947C97.8303 169.947 97.6999 170.593 97.4782 171.691C90.8374 169.753 86.7489 165.199 84.7422 162.357L84.6197 160.129C89.4401 165.49 94.4476 168.348 97.8303 169.947Z" fill="#66B8FF"/>
<path d="M85.5032 112.566C85.5032 116.413 112.795 115.3 112.795 111.452C112.704 105.104 113.579 99.8792 114.771 95.56C122.954 87.5338 122.466 81.304 120.392 77.9239C116.817 72.0958 98.7546 72.4261 92.2519 74.9311C89.6694 75.9262 86.202 79.9788 85.0929 86.4399C84.5227 89.7616 86.9657 93.6298 87.3517 96.3152C88.2449 102.529 85.6848 111.673 85.5032 112.566Z" fill="#002E73"/>
<path d="M102.517 77.5761C103.863 76.5052 109.235 74.8529 110.663 73.6817L110.341 64.3459L105.06 63.8311C103.527 63.9581 101.996 64.3257 100.679 64.8465L99.4898 70.9937L99.2275 72.3268C98.6294 73.6388 99.8145 75.2209 102.517 77.5761Z" fill="#F7A594"/>
<path d="M108.564 66.4591C107.735 67.7357 104.266 71.0049 99.4898 70.9933L100.518 65.6748L108.564 66.4591Z" fill="#E6836F"/>
<path d="M96.8739 54.1612C96.4598 56.0005 95.6064 60.0383 95.746 61.8981C95.9584 64.7294 98.5996 67.8696 100.903 68.2817C103.57 68.5537 107.164 67.7588 109.115 66.0799C110.202 64.8055 112.304 61.7823 113.271 59.1358C115.289 53.6158 111.394 48.7753 106.451 47.6572C101.509 46.5393 98.165 48.427 96.8739 54.1612Z" fill="#F7A594"/>
<path d="M111.616 62.7823C112.647 60.966 111.277 60.2303 109.776 61.6403C110.032 60.2699 111.593 56.2543 110.211 54.9228C108.649 53.3779 101.779 54.0502 98.0883 50.1971C98.0883 50.1971 100.839 44.1581 109.869 47.7245C120.067 53.1385 111.616 62.7823 111.616 62.7823Z" fill="#73382A"/>
<path d="M113.008 63.2636C113.794 62.3171 113.835 61.0542 113.1 60.4428C112.365 59.8315 111.133 60.1033 110.347 61.0498C109.562 61.9964 109.52 63.2592 110.255 63.8706C110.99 64.4819 112.222 64.2101 113.008 63.2636Z" fill="#F7A594"/>
<path d="M99.529 70.4551C100.432 72.069 109.717 71.2298 110.555 69.874L111.071 75.0387L102.431 79.9453L97.917 74.9742L99.529 70.4551Z" fill="#002E73"/>
<path d="M114.788 53.3154C114.534 48.7948 105.794 42.4152 99.5256 44.7835C95.2973 46.3809 96.289 50.875 99.9707 51.7236C103.217 52.472 112.208 48.5758 114.788 53.3154Z" fill="#231F20"/>
<path d="M98.7455 44.798C98.7455 44.798 98.9311 43.5088 99.6263 42.5449C94.7211 45.7619 97.1623 49.6089 97.2199 49.7729C99.1652 43.859 103.807 44.1306 105.455 44.1515C101.215 42.153 98.7878 44.621 98.7455 44.798Z" fill="#231F20"/>
<path d="M85.1625 113.871C92.2823 116.945 108.73 116.269 113.646 113.913L114.903 118.082C104.208 120.606 93.9763 120.677 84.2626 118.004L85.1625 113.871Z" fill="#66B8FF"/>
<path d="M132.805 104.095C128.095 109.15 118.16 114.915 118.16 114.915L115.111 110.522C118.273 108.778 120.015 104.257 123.031 101.156C124.063 100.091 125.24 99.2024 126.66 98.621C121.853 97.3776 119.434 96.1826 115.434 88.8675C109.838 88.48 108.628 81.1491 111.676 78.4198C113.966 76.3689 119.74 74.2215 123.966 80.9713C131.514 85.2181 134.74 94.487 135.143 99.2025C135.514 100.543 134.498 102.271 132.805 104.095Z" fill="#002E73"/>
<path d="M117.845 108.223C117.845 108.223 114.39 107.907 113.195 108.611C112.198 109.199 112.549 110.23 112.549 110.23C110.53 110.919 111.616 115.251 114.625 116.83C117.633 118.409 120.842 112.78 120.842 112.78C120.842 112.78 121.034 109.039 117.845 108.223Z" fill="#231F20"/>
<path d="M132.805 104.095C132.514 104.402 132.208 104.725 131.885 105.032C126.918 109.844 118.16 114.914 118.16 114.914L115.112 110.522C117.837 109.02 119.499 105.468 121.837 102.529C122.208 102.045 122.611 101.592 123.031 101.156C124.208 101.85 127.724 103.707 132.805 104.095Z" fill="#231F20"/>
<path d="M132.805 104.095C132.514 104.402 132.208 104.725 131.885 105.032C127.627 104.822 123.627 103.288 121.837 102.529C122.208 102.045 122.611 101.592 123.031 101.156C124.208 101.85 127.724 103.707 132.805 104.095Z" fill="#66B8FF"/>
<path d="M105.147 85.2655C105.149 85.2491 105.15 85.2419 105.15 85.2402C105.149 85.2433 105.147 85.2655 105.147 85.2655Z" fill="#D9FFFF"/>
<path d="M105.147 85.2655C105.149 85.2491 105.15 85.2419 105.15 85.2402C105.149 85.2433 105.147 85.2655 105.147 85.2655Z" fill="#D9FFFF"/>
<path d="M96.6212 84.0418C96.6212 84.0418 96.6238 84.0197 96.6242 84.0166C96.624 84.0182 96.6232 84.0255 96.6212 84.0418Z" fill="#D9FFFF"/>
<path d="M96.6212 84.0418C96.6212 84.0418 96.6238 84.0197 96.6242 84.0166C96.624 84.0182 96.6232 84.0255 96.6212 84.0418Z" fill="#D9FFFF"/>
<path d="M101.182 82.0566C102.03 83.3929 103.496 84.6026 105.141 85.2698C105.126 85.3964 105.044 86.0979 104.664 89.3313C104.158 93.6445 100.231 95.2051 99.622 95.4437C99.1043 95.0775 95.6426 92.4215 96.1489 88.1082C96.5285 84.8749 96.6108 84.1734 96.6257 84.0468C98.3701 83.8664 100.053 83.1089 101.182 82.0566Z" fill="white"/>
<path d="M100.734 84.3477C100.732 84.3495 100.729 84.3512 100.727 84.353C99.9077 85.0015 98.8258 85.4504 97.6733 85.6175L97.3494 88.3757C97.2012 89.6378 97.5207 90.8425 98.2988 91.9562C98.7883 92.6567 99.3301 93.1337 99.6315 93.3705C99.645 93.3811 99.6586 93.3919 99.6711 93.4016C100.005 93.2667 100.668 92.955 101.332 92.3918C102.341 91.5348 102.928 90.4604 103.076 89.1984L103.4 86.44C102.321 85.9516 101.377 85.2092 100.734 84.3477Z" fill="#F7AF0C"/>
<path d="M98.3986 73.5947C98.8611 74.7865 100.406 75.8363 102.149 76.8595C105.688 76.2796 108.402 75.1826 111.058 73.627C113.67 73.6148 115.55 74.6213 117.483 75.3641L102.056 77.8777L92.995 74.4526C94.2002 74.0134 95.9256 73.7161 98.3986 73.5947Z" fill="#66B8FF"/>
<path d="M151.4 105.648C151.399 105.572 151.398 105.539 151.398 105.531C151.398 105.545 151.4 105.648 151.4 105.648Z" fill="#D9FFFF"/>
<path d="M151.4 105.648C151.399 105.572 151.398 105.539 151.398 105.531C151.398 105.545 151.4 105.648 151.4 105.648Z" fill="#D9FFFF"/>
<path d="M105.885 106.15C105.885 106.15 105.884 106.047 105.884 106.033C105.884 106.041 105.885 106.074 105.885 106.15Z" fill="#D9FFFF"/>
<path d="M105.885 106.15C105.885 106.15 105.884 106.047 105.884 106.033C105.884 106.041 105.885 106.074 105.885 106.15Z" fill="#D9FFFF"/>
<path d="M128.467 93.5439C133.809 99.1714 142.303 103.756 151.373 105.674C151.38 106.277 151.417 109.617 151.588 125.01C151.815 145.545 132.272 155.709 129.238 157.269C126.279 155.935 106.355 146.046 106.127 125.511C105.956 110.118 105.919 106.778 105.913 106.175C114.938 104.058 123.252 99.2878 128.467 93.5439Z" fill="white"/>
<path d="M128.546 97.2549C133.772 101.969 140.992 105.654 148.918 107.637L149.111 125.035C149.2 132.996 146.074 140.219 139.82 146.504C135.711 150.634 131.379 153.207 129.18 154.365C129.085 154.318 128.981 154.265 128.878 154.212L128.501 97.2956C128.516 97.282 128.532 97.2687 128.546 97.2549Z" fill="#007880"/>
<path d="M128.501 97.2959L128.878 154.212C126.575 153.038 122.388 150.606 118.368 146.741C111.977 140.595 108.691 133.443 108.603 125.482L108.41 108.083C116.268 105.933 123.385 102.105 128.501 97.2959Z" fill="#008F99"/>
<path d="M119.473 122.434L119.562 135.913C119.572 137.414 137.96 137.293 137.95 135.793L137.861 122.313L119.473 122.434ZM126.429 127.477C126.421 126.226 127.427 125.211 128.682 125.203C129.936 125.194 130.964 126.197 130.972 127.447C130.978 128.361 130.43 129.158 129.645 129.517L129.67 133.346C129.673 133.855 129.261 134.28 128.742 134.283C128.231 134.287 127.813 133.867 127.81 133.358L127.784 129.538C126.986 129.19 126.435 128.4 126.429 127.477Z" fill="white"/>
<path d="M121.076 121.463L122.938 121.451L122.932 120.544C122.911 117.399 125.461 114.823 128.616 114.802C131.772 114.782 134.356 117.323 134.377 120.468L134.383 121.376L136.244 121.364L136.238 120.456C136.211 116.288 132.786 112.92 128.604 112.947C124.422 112.975 121.043 116.388 121.07 120.556L121.076 121.463Z" fill="white"/>
</g>
<defs>
<clipPath id="clip0_2950_41700">
<rect width="330" height="236" fill="white" transform="translate(-10)"/>
</clipPath>
</defs>
</svg>
