<svg width="52" height="52" viewBox="0 0 52 52" fill="none" xmlns="http://www.w3.org/2000/svg">
<rect width="52" height="52" rx="12" fill="#E0F4FE"/>
<path d="M29.6001 28.1331C29.8134 27.0665 30.3468 26.3198 31.2001 25.4665C32.2668 24.5064 32.8001 23.1198 32.8001 21.7331C32.8001 20.0357 32.1259 18.4078 30.9256 17.2075C29.7254 16.0073 28.0975 15.333 26.4001 15.333C24.7027 15.333 23.0748 16.0073 21.8745 17.2075C20.6743 18.4078 20 20.0357 20 21.7331C20 22.7998 20.2133 24.0798 21.6 25.4665C22.3467 26.2131 22.9867 27.0665 23.2 28.1331" stroke="#4884AF" stroke-width="2" stroke-linecap="round" stroke-linejoin="round"/>
<path d="M23.1948 32.4026H29.5949" stroke="#4884AF" stroke-width="2" stroke-linecap="round" stroke-linejoin="round"/>
<path d="M24.2725 36.667H28.5392" stroke="#4884AF" stroke-width="2" stroke-linecap="round" stroke-linejoin="round"/>
</svg>
