<svg width="24" height="24" viewBox="0 0 24 24" fill="none" xmlns="http://www.w3.org/2000/svg">
<path d="M2.06251 12.3484C1.97916 12.1238 1.97916 11.8769 2.06251 11.6524C2.87421 9.68421 4.25202 8.0014 6.02128 6.81726C7.79053 5.63312 9.87155 5.00098 12.0005 5.00098C14.1295 5.00098 16.2105 5.63312 17.9797 6.81726C19.749 8.0014 21.1268 9.68421 21.9385 11.6524C22.0218 11.8769 22.0218 12.1238 21.9385 12.3484C21.1268 14.3165 19.749 15.9993 17.9797 17.1835C16.2105 18.3676 14.1295 18.9997 12.0005 18.9997C9.87155 18.9997 7.79053 18.3676 6.02128 17.1835C4.25202 15.9993 2.87421 14.3165 2.06251 12.3484Z" stroke="#051226" stroke-width="1.5" stroke-linecap="round" stroke-linejoin="round"/>
<path d="M12 15C13.6569 15 15 13.6569 15 12C15 10.3431 13.6569 9 12 9C10.3431 9 9 10.3431 9 12C9 13.6569 10.3431 15 12 15Z" stroke="#051226" stroke-width="1.5" stroke-linecap="round" stroke-linejoin="round"/>
</svg>
