<svg width="32" height="32" viewBox="0 0 32 32" fill="none" xmlns="http://www.w3.org/2000/svg">
<path d="M14.6667 8C18.7218 8.10446 22.6852 6.78334 25.8667 4.26667C26.0648 4.1181 26.3003 4.02763 26.5469 4.00539C26.7935 3.98315 27.0415 4.03003 27.263 4.14076C27.4844 4.2515 27.6707 4.42172 27.8009 4.63236C27.931 4.84299 28 5.08572 28 5.33333V21.3333C28 21.5809 27.931 21.8237 27.8009 22.0343C27.6707 22.2449 27.4844 22.4152 27.263 22.5259C27.0415 22.6366 26.7935 22.6835 26.5469 22.6613C26.3003 22.639 26.0648 22.5486 25.8667 22.4C22.6852 19.8833 18.7218 18.5622 14.6667 18.6667H6.66667C5.95942 18.6667 5.28115 18.3857 4.78105 17.8856C4.28095 17.3855 4 16.7072 4 16V10.6667C4 9.95942 4.28095 9.28115 4.78105 8.78105C5.28115 8.28095 5.95942 8 6.66667 8H14.6667Z" stroke="#051226" stroke-width="2" stroke-linecap="round" stroke-linejoin="round"/>
<path d="M8 18.6665C8 22.1284 9.12285 25.497 11.2 28.2665C11.6243 28.8323 12.2561 29.2063 12.9562 29.3064C13.6563 29.4064 14.3675 29.2242 14.9333 28.7998C15.4991 28.3755 15.8732 27.7438 15.9732 27.0436C16.0732 26.3435 15.891 25.6323 15.4667 25.0665C14.0819 23.2201 13.3333 20.9745 13.3333 18.6665" stroke="#051226" stroke-width="2" stroke-linecap="round" stroke-linejoin="round"/>
<path d="M10.667 8V18.6667" stroke="#051226" stroke-width="2" stroke-linecap="round" stroke-linejoin="round"/>
</svg>
