<svg width="36" height="36" viewBox="0 0 36 36" fill="none" xmlns="http://www.w3.org/2000/svg">
<rect width="36" height="36" rx="8" fill="#47E7C5"/>
<path fill-rule="evenodd" clip-rule="evenodd" d="M24.2041 11.7611C22.5581 10.1141 20.3691 9.20608 18.0371 9.20508C13.2301 9.20508 9.31914 13.1141 9.31814 17.9191C9.31614 19.4481 9.71714 20.9511 10.4811 22.2761L9.24414 26.7921L13.8661 25.5801C15.1451 26.2761 16.5771 26.6411 18.0331 26.6411H18.0371C22.8421 26.6411 26.7531 22.7311 26.7551 17.9261C26.7561 15.5981 25.8501 13.4091 24.2041 11.7611Z" stroke="white" stroke-linecap="round" stroke-linejoin="round"/>
<path d="M19.0957 19.5599L19.5017 19.1569C19.8747 18.7869 20.4647 18.7399 20.8947 19.0419C21.3107 19.3339 21.6867 19.5959 22.0367 19.8399C22.5927 20.2259 22.6597 21.0179 22.1807 21.4959L21.8217 21.8549" stroke="white" stroke-linecap="round" stroke-linejoin="round"/>
<path d="M14.1445 14.1784L14.5035 13.8194C14.9815 13.3414 15.7735 13.4084 16.1595 13.9634C16.4025 14.3134 16.6645 14.6894 16.9575 15.1054C17.2595 15.5354 17.2135 16.1254 16.8425 16.4984L16.4395 16.9044" stroke="white" stroke-linecap="round" stroke-linejoin="round"/>
<path d="M21.8217 21.8553C20.3407 23.3293 17.8517 22.0773 15.8867 20.1113" stroke="white" stroke-linecap="round" stroke-linejoin="round"/>
<path d="M15.8881 20.1127C13.9231 18.1467 12.6711 15.6587 14.1451 14.1777" stroke="white" stroke-linecap="round" stroke-linejoin="round"/>
<path d="M16.4395 16.9043C16.7585 17.4073 17.1675 17.9053 17.6295 18.3673L17.6315 18.3693C18.0935 18.8313 18.5915 19.2403 19.0945 19.5593" stroke="white" stroke-linecap="round" stroke-linejoin="round"/>
</svg>
