<svg width="36" height="36" viewBox="0 0 36 36" fill="none" xmlns="http://www.w3.org/2000/svg">
<rect width="36" height="36" rx="8" fill="#A3B5C3"/>
<path fill-rule="evenodd" clip-rule="evenodd" d="M26.0015 27.002H21.9999C21.4474 27.002 20.9995 26.5541 20.9995 26.0015V23.0003C20.9995 21.8953 21.8953 20.9995 23.0003 20.9995H25.0011C26.1061 20.9995 27.002 21.8953 27.002 23.0003V26.0015C27.002 26.5541 26.5541 27.002 26.0015 27.002Z" stroke="white" stroke-linecap="round" stroke-linejoin="round"/>
<path fill-rule="evenodd" clip-rule="evenodd" d="M9.4963 11.9961H14.4984C14.7746 11.9961 14.9986 12.22 14.9986 12.4963V15.9978C14.9986 17.1028 14.1028 17.9986 12.9978 17.9986H10.9969C9.8919 17.9986 8.99609 17.1028 8.99609 15.9978V12.4963C8.99609 12.22 9.22004 11.9961 9.4963 11.9961Z" stroke="white" stroke-linecap="round" stroke-linejoin="round"/>
<path d="M9.99609 11.9973V9.4963C9.99609 9.22004 10.22 8.99609 10.4963 8.99609H13.4976C13.7738 8.99609 13.9978 9.22004 13.9978 9.4963V11.9973" stroke="white" stroke-linecap="round" stroke-linejoin="round"/>
<path d="M24.0011 21.0011V11.9973C24.0011 10.3398 22.6574 8.99609 20.9998 8.99609V8.99609C19.3423 8.99609 17.9986 10.3398 17.9986 11.9973V24.0023C17.9986 25.6599 16.6549 27.0036 14.9973 27.0036V27.0036C13.3398 27.0036 11.9961 25.6599 11.9961 24.0023V17.9998" stroke="white" stroke-linecap="round" stroke-linejoin="round"/>
</svg>
