<svg width="36" height="36" viewBox="0 0 36 36" fill="none" xmlns="http://www.w3.org/2000/svg">
<rect width="36" height="36" rx="8" fill="#AE62E9"/>
<path d="M19.1465 13C20.3656 14.3775 21.0262 16.1607 20.9985 18C21.0262 19.8393 20.3656 21.6225 19.1465 23" stroke="white" stroke-linecap="round" stroke-linejoin="round"/>
<path d="M17.166 14.668C17.9084 15.6182 18.3008 16.7953 18.277 18.001C18.3008 19.2066 17.9084 20.3837 17.166 21.334" stroke="white" stroke-linecap="round" stroke-linejoin="round"/>
<path fill-rule="evenodd" clip-rule="evenodd" d="M10.1716 12.8284L12.8284 10.1716C13.5786 9.42143 14.596 9 15.6568 9H20.3421C21.403 9 22.4204 9.42143 23.1706 10.1716L25.8284 12.8294C26.5786 13.5796 27 14.597 27 15.6579V20.3411C27 21.402 26.5786 22.4194 25.8284 23.1696L23.1696 25.8284C22.4194 26.5786 21.402 27 20.3412 27H15.6579C14.5973 27 13.5801 26.5788 12.83 25.829L10.1721 23.1721C9.42163 22.4219 9 21.4043 9 20.3432V15.6569C9 14.596 9.42142 13.5786 10.1716 12.8284Z" stroke="white" stroke-linecap="round" stroke-linejoin="round"/>
<path d="M14.9993 16.332C15.7407 17.3197 15.7407 18.6783 14.9993 19.666" stroke="white" stroke-linecap="round" stroke-linejoin="round"/>
</svg>
