<svg width="51" height="48" viewBox="0 0 51 48" fill="none" xmlns="http://www.w3.org/2000/svg">
<rect width="50.6689" height="48.002" rx="12" fill="#45D8DD"/>
<path d="M25.3369 17.3356V36.002" stroke="white" stroke-width="2" stroke-linecap="round" stroke-linejoin="round"/>
<path d="M13.3334 31.9998C12.9798 31.9998 12.6406 31.8593 12.3906 31.6092C12.1405 31.3592 12 31.0201 12 30.6664V13.3333C12 12.9797 12.1405 12.6406 12.3906 12.3905C12.6406 12.1405 12.9798 12 13.3334 12H20.0007C21.4153 12 22.772 12.5619 23.7722 13.5621C24.7725 14.5623 25.3345 15.9188 25.3345 17.3333C25.3345 15.9188 25.8964 14.5623 26.8967 13.5621C27.897 12.5619 29.2536 12 30.6682 12H37.3355C37.6891 12 38.0283 12.1405 38.2784 12.3905C38.5284 12.6406 38.6689 12.9797 38.6689 13.3333V30.6664C38.6689 31.0201 38.5284 31.3592 38.2784 31.6092C38.0283 31.8593 37.6891 31.9998 37.3355 31.9998H29.3348C28.2738 31.9998 27.2563 32.4212 26.5061 33.1713C25.7559 33.9215 25.3345 34.9389 25.3345 35.9997C25.3345 34.9389 24.913 33.9215 24.1628 33.1713C23.4126 32.4212 22.3951 31.9998 21.3341 31.9998H13.3334Z" stroke="white" stroke-width="2" stroke-linecap="round" stroke-linejoin="round"/>
</svg>
