<svg width="24" height="24" viewBox="0 0 24 24" fill="none" xmlns="http://www.w3.org/2000/svg">
<path fill-rule="evenodd" clip-rule="evenodd" d="M17.0124 17.2925L15.6998 20.3548C15.5305 20.7496 15.1409 21.0044 14.7113 21.0013C14.2817 20.9983 13.8958 20.738 13.732 20.3408L10.0805 11.4741C9.91633 11.0756 10.0079 10.6174 10.3127 10.3127C10.6174 10.0079 11.0756 9.91633 11.4741 10.0805L20.3408 13.732C20.738 13.8958 20.9983 14.2817 21.0013 14.7113C21.0044 15.1409 20.7496 15.5305 20.3548 15.6998L17.2925 17.0124C17.1666 17.0662 17.0662 17.1666 17.0124 17.2925V17.2925Z" stroke="#00CCC4" stroke-width="1.5" stroke-linecap="round" stroke-linejoin="round"/>
<path d="M6.35975 15.332L5.23828 16.4535" stroke="#00CCC4" stroke-width="1.5" stroke-linecap="round" stroke-linejoin="round"/>
<path d="M10.8459 2.99609V4.58175" stroke="#00CCC4" stroke-width="1.5" stroke-linecap="round" stroke-linejoin="round"/>
<path d="M5.23828 5.23828L6.35975 6.35975" stroke="#00CCC4" stroke-width="1.5" stroke-linecap="round" stroke-linejoin="round"/>
<path d="M2.99609 10.8459H4.58175" stroke="#00CCC4" stroke-width="1.5" stroke-linecap="round" stroke-linejoin="round"/>
<path d="M16.4535 5.23828L15.332 6.35975" stroke="#00CCC4" stroke-width="1.5" stroke-linecap="round" stroke-linejoin="round"/>
</svg>
