<svg width="20" height="20" viewBox="0 0 20 20" fill="none" xmlns="http://www.w3.org/2000/svg">
<path fill-rule="evenodd" clip-rule="evenodd" d="M14.1776 14.4111L13.0839 16.963C12.9427 17.292 12.6181 17.5043 12.2601 17.5018C11.9021 17.4992 11.5805 17.2823 11.444 16.9513L8.40108 9.56239C8.26426 9.2303 8.34058 8.84852 8.59455 8.59455C8.84852 8.34058 9.2303 8.26426 9.56239 8.40108L16.9513 11.444C17.2823 11.5805 17.4992 11.9021 17.5018 12.2601C17.5043 12.6181 17.292 12.9427 16.963 13.0839L14.4111 14.1776C14.3061 14.2225 14.2225 14.3061 14.1776 14.4111V14.4111Z" stroke="currentColor" stroke-linecap="round" stroke-linejoin="round"/>
<path d="M5.29979 12.7773L4.36523 13.7119" stroke="currentColor" stroke-linecap="round" stroke-linejoin="round"/>
<path d="M9.03793 2.49609V3.81748" stroke="currentColor" stroke-linecap="round" stroke-linejoin="round"/>
<path d="M4.36523 4.36523L5.29979 5.29979" stroke="currentColor" stroke-linecap="round" stroke-linejoin="round"/>
<path d="M2.49609 9.03989H3.81748" stroke="currentColor" stroke-linecap="round" stroke-linejoin="round"/>
<path d="M13.7119 4.36523L12.7773 5.29979" stroke="currentColor" stroke-linecap="round" stroke-linejoin="round"/>
</svg>
