<svg width="218" height="34" viewBox="0 0 218 34" fill="none" xmlns="http://www.w3.org/2000/svg">
<path d="M35.5231 6.43994L20.7329 33.1911C26.2246 31.0857 30.9051 27.3083 33.7757 22.1687C36.584 17.0909 37.0208 11.5177 35.5231 6.43994Z" fill="url(#paint0_linear_452_16482)"/>
<path d="M0.826707 6.43994L15.6793 33.1911C10.1876 31.0238 5.50714 27.3083 2.63648 22.1687C-0.171786 17.0909 -0.671032 11.5177 0.826707 6.43994Z" fill="url(#paint1_linear_452_16482)"/>
<path d="M32.28 4.58238L18.1139 28.8566L3.94775 4.58238C7.81691 1.73387 12.747 0 18.1139 0C23.5432 0 28.4732 1.73387 32.28 4.58238Z" fill="url(#paint2_linear_452_16482)"/>
<path d="M51.6266 25.0795C50.3785 25.0795 49.1304 24.8937 47.9447 24.4602C46.759 24.0268 45.8853 23.5314 45.2612 22.8502L45.9477 21.4879C46.5718 22.0452 47.383 22.5406 48.3815 22.974C49.38 23.3456 50.5033 23.5933 51.6266 23.5933C52.6875 23.5933 53.5612 23.4694 54.2477 23.2217C54.9341 22.974 55.4334 22.6025 55.7454 22.1071C56.0574 21.6736 56.2447 21.1782 56.2447 20.6209C56.2447 19.9398 56.0574 19.4444 55.683 19.0109C55.3086 18.5774 54.8093 18.2678 54.1853 18.0201C53.5612 17.7724 52.8747 17.5866 52.1259 17.4009C51.377 17.2151 50.6281 17.0293 49.8793 16.8436C49.1304 16.6578 48.4439 16.3482 47.8199 16.0385C47.1958 15.667 46.6966 15.2335 46.3221 14.6762C45.9477 14.1189 45.7605 13.3758 45.7605 12.447C45.7605 11.58 46.0101 10.8369 46.4469 10.0938C46.8838 9.41267 47.5702 8.79343 48.5063 8.35996C49.4424 7.92649 50.6281 7.74072 52.0635 7.74072C52.9996 7.74072 53.998 7.86457 54.9341 8.11227C55.8702 8.35996 56.6815 8.73151 57.368 9.2269L56.7439 10.6512C55.995 10.1558 55.2462 9.78422 54.3725 9.59844C53.5612 9.35075 52.7499 9.2269 52.0011 9.2269C50.9402 9.2269 50.1289 9.35075 49.4424 9.66037C48.756 9.90807 48.2567 10.2796 47.9447 10.775C47.6327 11.2085 47.4454 11.7658 47.4454 12.3231C47.4454 13.0043 47.6327 13.4997 48.0071 13.9331C48.3815 14.3666 48.8808 14.6762 49.5048 14.862C50.1289 15.1097 50.8153 15.2955 51.5642 15.4812C52.3131 15.667 53.062 15.8528 53.8108 16.0385C54.5597 16.2243 55.2462 16.5339 55.8702 16.8436C56.4943 17.1532 56.9935 17.6486 57.368 18.144C57.7424 18.7013 57.9296 19.4444 57.9296 20.3113C57.9296 21.1163 57.68 21.9213 57.2431 22.6025C56.8063 23.2837 56.0574 23.9029 55.1214 24.3364C54.3101 24.8318 53.1244 25.0795 51.6266 25.0795Z" fill="#051226"/>
<path d="M66.604 25.0175C65.2311 25.0175 64.1078 24.7079 63.0469 24.1505C62.0484 23.5932 61.2371 22.7882 60.6754 21.8594C60.1138 20.8686 59.8018 19.7539 59.8018 18.5155C59.8018 17.277 60.0514 16.1004 60.613 15.1716C61.1747 14.1808 61.9236 13.4377 62.8596 12.8804C63.7957 12.323 64.919 12.0134 66.1047 12.0134C67.2905 12.0134 68.4138 12.2611 69.3498 12.8184C70.2859 13.3758 71.0348 14.1188 71.5965 15.1096C72.1581 16.1004 72.4077 17.215 72.4077 18.5155C72.4077 18.5774 72.4077 18.7012 72.4077 18.7632C72.4077 18.8251 72.4077 18.9489 72.4077 19.0728H61.1747V17.7724H71.4716L70.7852 18.2678C70.7852 17.3389 70.598 16.5339 70.1611 15.7908C69.7867 15.0477 69.225 14.4904 68.5386 14.1188C67.8521 13.6854 67.0408 13.4996 66.1672 13.4996C65.2935 13.4996 64.4822 13.6854 63.7957 14.1188C63.1093 14.5523 62.5476 15.1096 62.1732 15.8527C61.7987 16.5958 61.6115 17.4008 61.6115 18.3916V18.6393C61.6115 19.6301 61.7987 20.497 62.2356 21.2401C62.6724 21.9832 63.2965 22.5405 64.0454 22.974C64.7942 23.4075 65.7303 23.5932 66.7288 23.5932C67.5401 23.5932 68.2265 23.4694 68.913 23.1598C69.5995 22.9121 70.1611 22.4786 70.6604 21.9213L71.6589 23.0359C71.0972 23.7171 70.3483 24.2125 69.5371 24.584C68.601 24.8317 67.6649 25.0175 66.604 25.0175Z" fill="#051226"/>
<path d="M80.3337 25.0175C79.0856 25.0175 77.8998 24.7079 76.9014 24.1505C75.9029 23.5932 75.0916 22.7882 74.5299 21.8594C73.9683 20.8686 73.6562 19.7539 73.6562 18.5155C73.6562 17.215 73.9683 16.1004 74.5299 15.1096C75.0916 14.1188 75.9029 13.3758 76.9014 12.8184C77.8998 12.2611 79.0231 12.0134 80.3337 12.0134C81.457 12.0134 82.3931 12.1992 83.3292 12.6327C84.2028 13.0661 84.8893 13.6854 85.3885 14.5523L84.078 15.4193C83.6412 14.8 83.0795 14.3046 82.4555 13.995C81.8314 13.6854 81.0825 13.5615 80.3337 13.5615C79.3976 13.5615 78.5863 13.7473 77.8374 14.1808C77.0886 14.6142 76.5269 15.1716 76.0901 15.9146C75.6532 16.6577 75.466 17.5247 75.466 18.5155C75.466 19.5062 75.6532 20.3732 76.0901 21.1163C76.5269 21.8594 77.0886 22.4167 77.8374 22.8501C78.5863 23.2836 79.3976 23.4694 80.3337 23.4694C81.0825 23.4694 81.8314 23.3455 82.4555 23.0359C83.0795 22.7263 83.6412 22.2309 84.078 21.6117L85.3885 22.4786C84.8893 23.2836 84.2028 23.9648 83.3292 24.3363C82.4555 24.8317 81.457 25.0175 80.3337 25.0175Z" fill="#051226"/>
<path d="M93.1246 25.0176C92.0013 25.0176 91.0652 24.8318 90.254 24.3983C89.4427 23.9649 88.8186 23.4075 88.3818 22.5406C87.9449 21.7356 87.6953 20.6829 87.6953 19.5063V12.0754H89.4427V19.3206C89.4427 20.6829 89.7547 21.7356 90.4412 22.4168C91.1276 23.0979 92.0637 23.4695 93.3118 23.4695C94.1855 23.4695 94.9968 23.2837 95.6833 22.9122C96.3697 22.5406 96.869 22.0452 97.181 21.3021C97.5554 20.621 97.6802 19.754 97.6802 18.7632V12.1374H99.4276V24.9556H97.7427V21.426L97.9923 22.0452C97.5554 22.9741 96.9314 23.7172 96.1201 24.2745C95.3088 24.7699 94.3103 25.0176 93.1246 25.0176Z" fill="#051226"/>
<path d="M102.863 24.8936V12.1373H104.548V15.605L104.361 14.9858C104.735 13.995 105.297 13.2519 106.17 12.7565C107.044 12.2611 108.105 12.0134 109.353 12.0134V13.6854C109.291 13.6854 109.228 13.6854 109.166 13.6854C109.103 13.6854 109.041 13.6854 108.979 13.6854C107.606 13.6854 106.545 14.1188 105.796 14.9239C105.047 15.7289 104.673 16.9054 104.673 18.3916V24.8936H102.863Z" fill="#051226"/>
<path d="M117.216 25.0175C115.843 25.0175 114.72 24.7079 113.659 24.1505C112.66 23.5932 111.849 22.7882 111.287 21.8594C110.726 20.8686 110.414 19.7539 110.414 18.5155C110.414 17.277 110.663 16.1004 111.225 15.1716C111.787 14.1808 112.535 13.4377 113.471 12.8804C114.408 12.323 115.531 12.0134 116.717 12.0134C117.902 12.0134 119.026 12.2611 119.962 12.8184C120.898 13.3758 121.647 14.1188 122.208 15.1096C122.77 16.1004 123.02 17.215 123.02 18.5155C123.02 18.5774 123.02 18.7012 123.02 18.7632C123.02 18.8251 123.02 18.9489 123.02 19.0728H111.787V17.7724H122.083L121.397 18.2678C121.397 17.3389 121.21 16.5339 120.773 15.7908C120.399 15.0477 119.837 14.4904 119.15 14.1188C118.464 13.6854 117.653 13.4996 116.779 13.4996C115.905 13.4996 115.094 13.6854 114.408 14.1188C113.721 14.5523 113.159 15.1096 112.785 15.8527C112.411 16.5958 112.223 17.4008 112.223 18.3916V18.6393C112.223 19.6301 112.411 20.497 112.847 21.2401C113.284 21.9832 113.908 22.5405 114.657 22.974C115.406 23.4075 116.342 23.5932 117.341 23.5932C118.152 23.5932 118.838 23.4694 119.525 23.1598C120.211 22.9121 120.773 22.4786 121.272 21.9213L122.271 23.0359C121.709 23.7171 120.96 24.2125 120.149 24.584C119.15 24.8317 118.214 25.0175 117.216 25.0175Z" fill="#051226"/>
<path d="M141.49 25.3891V13.6854L135.936 23.4075H134.563L129.009 13.8712V25.3891H126.014V7.74072H128.572L135.312 19.4444L141.927 7.74072H144.486V25.3891H141.49Z" fill="#051226"/>
<path d="M159.091 17.5247V25.389H156.221V23.779C155.472 24.9555 154.099 25.5748 152.164 25.5748C149.231 25.5748 147.359 23.9028 147.359 21.5497C147.359 19.3204 148.794 17.5247 152.726 17.5247H156.033V17.3389C156.033 15.4812 154.972 14.4284 152.851 14.4284C151.415 14.4284 149.918 14.9238 148.919 15.7908L147.733 13.4996C149.106 12.385 151.103 11.8276 153.163 11.8276C156.907 11.8276 159.091 13.6234 159.091 17.5247ZM156.033 21.1782V19.6301H152.913C150.854 19.6301 150.292 20.4351 150.292 21.4259C150.292 22.5405 151.228 23.2836 152.726 23.2836C154.286 23.2836 155.534 22.6024 156.033 21.1782Z" fill="#051226"/>
<path d="M175.127 11.9515V23.3455C175.127 28.2375 172.693 30.4668 168.2 30.4668C165.766 30.4668 163.395 29.7856 161.897 28.5471L163.27 26.194C164.393 27.1848 166.265 27.804 168.013 27.804C170.883 27.804 172.132 26.4417 172.132 23.7171V23.0359C171.071 24.2744 169.573 24.8317 167.826 24.8317C164.144 24.8317 161.273 22.2309 161.273 18.3297C161.273 14.4284 164.081 11.8276 167.826 11.8276C169.635 11.8276 171.258 12.4469 172.319 13.7473V11.9515H175.127ZM172.194 18.2677C172.194 15.9766 170.571 14.4904 168.262 14.4904C165.953 14.4904 164.331 16.0385 164.331 18.2677C164.331 20.5589 165.953 22.107 168.262 22.107C170.509 22.107 172.194 20.5589 172.194 18.2677Z" fill="#051226"/>
<path d="M190.293 17.7103V25.3889H187.298V18.0819C187.298 15.6668 186.175 14.5522 184.24 14.5522C182.118 14.5522 180.62 15.9145 180.62 18.5773V25.3889H177.625V11.9514H180.496V13.6853C181.494 12.4468 183.054 11.7656 184.926 11.7656C187.984 11.8275 190.293 13.6233 190.293 17.7103Z" fill="#051226"/>
<path d="M204.957 11.9514V25.3889H202.086V23.6551C201.15 24.8935 199.59 25.5747 197.905 25.5747C194.597 25.5747 192.351 23.6551 192.351 19.63V11.9514H195.346V19.1965C195.346 21.6116 196.469 22.7881 198.342 22.7881C200.463 22.7881 201.899 21.4258 201.899 18.7631V11.9514H204.957Z" fill="#051226"/>
<path d="M206.706 24.0886L207.892 21.6736C209.015 22.4786 210.762 23.0359 212.385 23.0359C214.32 23.0359 215.068 22.4786 215.068 21.5497C215.068 19.0108 207.08 21.4259 207.08 16.0385C207.08 13.4996 209.265 11.8276 212.759 11.8276C214.444 11.8276 216.441 12.2611 217.565 13.0042L216.379 15.4192C215.131 14.6761 213.945 14.4284 212.697 14.4284C210.887 14.4284 210.014 15.0477 210.014 15.9146C210.014 18.6393 218.002 16.2242 218.002 21.4878C218.002 24.0267 215.755 25.6367 212.135 25.6367C210.014 25.5748 207.892 24.8936 206.706 24.0886Z" fill="#051226"/>
<defs>
<linearGradient id="paint0_linear_452_16482" x1="28.5477" y1="34.0534" x2="28.5477" y2="-1.18879" gradientUnits="userSpaceOnUse">
<stop stop-color="#004D96"/>
<stop offset="0.2297" stop-color="#0075A1"/>
<stop offset="0.5" stop-color="#00B1BD"/>
<stop offset="0.7432" stop-color="#00CCC4"/>
<stop offset="1" stop-color="#00F0BD"/>
</linearGradient>
<linearGradient id="paint1_linear_452_16482" x1="7.84849" y1="34.0534" x2="7.84849" y2="-1.18879" gradientUnits="userSpaceOnUse">
<stop stop-color="#004D96"/>
<stop offset="0.2297" stop-color="#0075A1"/>
<stop offset="0.5" stop-color="#00B1BD"/>
<stop offset="0.7432" stop-color="#00CCC4"/>
<stop offset="1" stop-color="#00F0BD"/>
</linearGradient>
<linearGradient id="paint2_linear_452_16482" x1="18.1302" y1="34.0535" x2="18.1302" y2="-1.18863" gradientUnits="userSpaceOnUse">
<stop stop-color="#004D96"/>
<stop offset="0.2297" stop-color="#0075A1"/>
<stop offset="0.5" stop-color="#00B1BD"/>
<stop offset="0.7432" stop-color="#00CCC4"/>
<stop offset="1" stop-color="#00F0BD"/>
</linearGradient>
</defs>
</svg>
