<svg width="197" height="32" viewBox="0 0 197 32" fill="none" xmlns="http://www.w3.org/2000/svg">
<path d="M32.0439 6.76172L18.7461 31.1454C23.6837 29.2263 27.8918 25.7833 30.4729 21.0984C32.9978 16.47 33.3905 11.3901 32.0439 6.76172Z" fill="url(#paint0_linear_399_15230)"/>
<path d="M0.844853 6.76172L14.1988 31.1454C9.26119 29.1699 5.05302 25.7833 2.47201 21.0984C-0.0528896 16.47 -0.501761 11.3901 0.844853 6.76172Z" fill="url(#paint1_linear_399_15230)"/>
<path d="M29.1219 5.06844L16.3852 27.1944L3.64844 5.06844C7.12719 2.47203 11.5598 0.891602 16.3852 0.891602C21.2666 0.891602 25.6992 2.47203 29.1219 5.06844Z" fill="url(#paint2_linear_399_15230)"/>
<path d="M46.516 23.7515C45.3939 23.7515 44.2717 23.5822 43.2056 23.1871C42.1396 22.792 41.354 22.3404 40.7929 21.7195L41.4101 20.4778C41.9712 20.9858 42.7006 21.4373 43.5984 21.8324C44.4961 22.1711 45.5061 22.3969 46.516 22.3969C47.4699 22.3969 48.2554 22.284 48.8726 22.0582C49.4898 21.8324 49.9387 21.4938 50.2192 21.0422C50.4998 20.6471 50.6681 20.1956 50.6681 19.6876C50.6681 19.0667 50.4998 18.6151 50.1631 18.22C49.8265 17.8249 49.3776 17.5427 48.8165 17.3169C48.2554 17.0911 47.6382 16.9218 46.9649 16.7525C46.2916 16.5832 45.6183 16.4138 44.945 16.2445C44.2717 16.0752 43.6545 15.7929 43.0934 15.5107C42.5323 15.1721 42.0834 14.777 41.7468 14.269C41.4101 13.761 41.2418 13.0836 41.2418 12.237C41.2418 11.4468 41.4662 10.7695 41.859 10.0921C42.2518 9.47125 42.869 8.90681 43.7106 8.5117C44.5522 8.1166 45.6183 7.94727 46.9088 7.94727C47.7504 7.94727 48.6482 8.06015 49.4898 8.28593C50.3315 8.5117 51.0609 8.85037 51.6781 9.30192L51.117 10.6001C50.4437 10.1486 49.7704 9.80991 48.9848 9.64058C48.2554 9.4148 47.526 9.30192 46.8527 9.30192C45.8989 9.30192 45.1694 9.4148 44.5522 9.69702C43.935 9.9228 43.4862 10.2615 43.2056 10.713C42.9251 11.1081 42.7568 11.6161 42.7568 12.1241C42.7568 12.745 42.9251 13.1965 43.2617 13.5916C43.5984 13.9867 44.0473 14.269 44.6083 14.4383C45.1694 14.6641 45.7866 14.8334 46.4599 15.0027C47.1332 15.1721 47.8066 15.3414 48.4799 15.5107C49.1532 15.6801 49.7704 15.9623 50.3315 16.2445C50.8925 16.5267 51.3414 16.9783 51.6781 17.4298C52.0147 17.9378 52.1831 18.6151 52.1831 19.4053C52.1831 20.1391 51.9586 20.8729 51.5658 21.4938C51.1731 22.1146 50.4998 22.6791 49.6581 23.0742C48.9287 23.5257 47.8627 23.7515 46.516 23.7515Z" fill="#FAFBFC"/>
<path d="M59.983 23.695C58.7486 23.695 57.7386 23.4128 56.7848 22.9048C55.887 22.3968 55.1576 21.663 54.6526 20.8163C54.1477 19.9132 53.8671 18.8973 53.8671 17.7684C53.8671 16.6395 54.0916 15.5671 54.5965 14.7204C55.1015 13.8173 55.7748 13.14 56.6165 12.632C57.4581 12.124 58.4681 11.8418 59.5341 11.8418C60.6002 11.8418 61.6102 12.0676 62.4518 12.5756C63.2934 13.0836 63.9667 13.7609 64.4717 14.664C64.9767 15.5671 65.2011 16.5831 65.2011 17.7684C65.2011 17.8248 65.2011 17.9377 65.2011 17.9942C65.2011 18.0506 65.2011 18.1635 65.2011 18.2764H55.1015V17.0911H64.3595L63.7423 17.5426C63.7423 16.696 63.574 15.9622 63.1812 15.2849C62.8446 14.6075 62.3396 14.0995 61.7224 13.7609C61.1052 13.3658 60.3758 13.1964 59.5902 13.1964C58.8047 13.1964 58.0753 13.3658 57.4581 13.7609C56.8409 14.156 56.3359 14.664 55.9993 15.3413C55.6626 16.0186 55.4943 16.7524 55.4943 17.6555V17.8813C55.4943 18.7844 55.6626 19.5746 56.0554 20.2519C56.4481 20.9292 57.0092 21.4372 57.6825 21.8323C58.3558 22.2274 59.1975 22.3968 60.0952 22.3968C60.8246 22.3968 61.4418 22.2839 62.059 22.0017C62.6762 21.7759 63.1812 21.3808 63.6301 20.8728L64.5278 21.8888C64.0228 22.5097 63.3495 22.9612 62.6201 23.2999C61.7785 23.5256 60.9368 23.695 59.983 23.695Z" fill="#FAFBFC"/>
<path d="M72.3278 23.695C71.2056 23.695 70.1396 23.4128 69.2418 22.9048C68.3441 22.3968 67.6147 21.663 67.1097 20.8163C66.6047 19.9132 66.3242 18.8973 66.3242 17.7684C66.3242 16.5831 66.6047 15.5671 67.1097 14.664C67.6147 13.7609 68.3441 13.0836 69.2418 12.5756C70.1396 12.0676 71.1495 11.8418 72.3278 11.8418C73.3378 11.8418 74.1794 12.0111 75.021 12.4062C75.8066 12.8013 76.4238 13.3658 76.8726 14.156L75.6943 14.9462C75.3016 14.3818 74.7966 13.9302 74.2355 13.648C73.6744 13.3658 73.0011 13.2529 72.3278 13.2529C71.4862 13.2529 70.7568 13.4222 70.0835 13.8173C69.4101 14.2124 68.9052 14.7204 68.5124 15.3978C68.1196 16.0751 67.9513 16.8653 67.9513 17.7684C67.9513 18.6715 68.1196 19.4617 68.5124 20.139C68.9052 20.8163 69.4101 21.3243 70.0835 21.7194C70.7568 22.1146 71.4862 22.2839 72.3278 22.2839C73.0011 22.2839 73.6744 22.171 74.2355 21.8888C74.7966 21.6066 75.3016 21.155 75.6943 20.5906L76.8726 21.3808C76.4238 22.1146 75.8066 22.7354 75.021 23.0741C74.2355 23.5256 73.3378 23.695 72.3278 23.695Z" fill="#FAFBFC"/>
<path d="M83.8267 23.6952C82.8168 23.6952 81.9751 23.5258 81.2457 23.1307C80.5163 22.7356 79.9552 22.2276 79.5625 21.4374C79.1697 20.7037 78.9453 19.7441 78.9453 18.6717V11.8984H80.5163V18.5024C80.5163 19.7441 80.7968 20.7037 81.414 21.3245C82.0312 21.9454 82.8729 22.2841 83.9951 22.2841C84.7806 22.2841 85.51 22.1148 86.1272 21.7761C86.7444 21.4374 87.1933 20.9859 87.4738 20.3086C87.8105 19.6877 87.9227 18.8975 87.9227 17.9944V11.9549H89.4937V23.6387H87.9788V20.4214L88.2032 20.9859C87.8105 21.8325 87.2494 22.5099 86.52 23.0179C85.7905 23.4694 84.8928 23.6952 83.8267 23.6952Z" fill="#FAFBFC"/>
<path d="M92.582 23.5821V11.9547H94.0969V15.1155L93.9286 14.5511C94.2652 13.648 94.7702 12.9707 95.5557 12.5191C96.3413 12.0676 97.2951 11.8418 98.4173 11.8418V13.3658C98.3612 13.3658 98.3051 13.3658 98.249 13.3658C98.1929 13.3658 98.1368 13.3658 98.0806 13.3658C96.8463 13.3658 95.8924 13.7609 95.2191 14.4947C94.5458 15.2284 94.2091 16.3009 94.2091 17.6555V23.5821H92.582Z" fill="#FAFBFC"/>
<path d="M105.483 23.695C104.249 23.695 103.239 23.4128 102.285 22.9048C101.387 22.3968 100.658 21.663 100.153 20.8163C99.6477 19.9132 99.3671 18.8973 99.3671 17.7684C99.3671 16.6395 99.5916 15.5671 100.097 14.7204C100.602 13.8173 101.275 13.14 102.116 12.632C102.958 12.124 103.968 11.8418 105.034 11.8418C106.1 11.8418 107.11 12.0676 107.952 12.5756C108.793 13.0836 109.467 13.7609 109.972 14.664C110.477 15.5671 110.701 16.5831 110.701 17.7684C110.701 17.8248 110.701 17.9377 110.701 17.9942C110.701 18.0506 110.701 18.1635 110.701 18.2764H100.602V17.0911H109.86L109.242 17.5426C109.242 16.696 109.074 15.9622 108.681 15.2849C108.345 14.6075 107.84 14.0995 107.222 13.7609C106.605 13.3658 105.876 13.1964 105.09 13.1964C104.305 13.1964 103.575 13.3658 102.958 13.7609C102.341 14.156 101.836 14.664 101.499 15.3413C101.163 16.0186 100.994 16.7524 100.994 17.6555V17.8813C100.994 18.7844 101.163 19.5746 101.555 20.2519C101.948 20.9292 102.509 21.4372 103.183 21.8323C103.856 22.2274 104.697 22.3968 105.595 22.3968C106.325 22.3968 106.942 22.2839 107.559 22.0017C108.176 21.7759 108.681 21.3808 109.13 20.8728L110.028 21.8888C109.523 22.5097 108.85 22.9612 108.12 23.2999C107.222 23.5256 106.381 23.695 105.483 23.695Z" fill="#FAFBFC"/>
<path d="M127.313 24.0337V13.3659L122.32 22.2275H121.085L116.092 13.5352V24.0337H113.398V7.94727H115.699L121.759 18.6151L127.706 7.94727H130.007V24.0337H127.313Z" fill="#FAFBFC"/>
<path d="M143.134 16.8647V24.0331H140.553V22.5655C139.88 23.6379 138.646 24.2024 136.906 24.2024C134.269 24.2024 132.586 22.6784 132.586 20.5335C132.586 18.5016 133.876 16.8647 137.411 16.8647H140.385V16.6954C140.385 15.0021 139.431 14.0425 137.523 14.0425C136.233 14.0425 134.886 14.4941 133.989 15.2843L132.923 13.1959C134.157 12.1799 135.952 11.6719 137.804 11.6719C141.171 11.6719 143.134 13.3087 143.134 16.8647ZM140.385 20.1949V18.7838H137.58C135.728 18.7838 135.223 19.5176 135.223 20.4207C135.223 21.4366 136.065 22.114 137.411 22.114C138.814 22.114 139.936 21.4931 140.385 20.1949Z" fill="#FAFBFC"/>
<path d="M157.554 11.7848V22.1704C157.554 26.6295 155.366 28.6614 151.326 28.6614C149.137 28.6614 147.005 28.0406 145.659 26.9117L146.893 24.7668C147.903 25.6699 149.586 26.2344 151.157 26.2344C153.738 26.2344 154.861 24.9926 154.861 22.5091V21.8882C153.907 23.0171 152.56 23.5251 150.989 23.5251C147.679 23.5251 145.098 21.1544 145.098 17.5985C145.098 14.0425 147.622 11.6719 150.989 11.6719C152.616 11.6719 154.075 12.2363 155.029 13.4216V11.7848H157.554ZM154.917 17.542C154.917 15.4536 153.458 14.099 151.382 14.099C149.306 14.099 147.847 15.51 147.847 17.542C147.847 19.6304 149.306 21.0415 151.382 21.0415C153.402 21.0415 154.917 19.6304 154.917 17.542Z" fill="#FAFBFC"/>
<path d="M171.191 17.0348V24.0338H168.498V17.3735C168.498 15.1722 167.488 14.1562 165.748 14.1562C163.841 14.1562 162.494 15.3979 162.494 17.825V24.0338H159.801V11.7855H162.382V13.366C163.279 12.2371 164.682 11.6162 166.365 11.6162C169.115 11.6727 171.191 13.3095 171.191 17.0348Z" fill="#FAFBFC"/>
<path d="M184.377 11.7852V24.0334H181.796V22.453C180.954 23.5819 179.552 24.2028 178.037 24.2028C175.063 24.2028 173.043 22.453 173.043 18.7842V11.7852H175.736V18.3891C175.736 20.5904 176.746 21.6628 178.429 21.6628C180.337 21.6628 181.628 20.421 181.628 17.994V11.7852H184.377Z" fill="#FAFBFC"/>
<path d="M185.945 22.8477L187.011 20.6464C188.021 21.3802 189.592 21.8882 191.051 21.8882C192.79 21.8882 193.464 21.3802 193.464 20.5335C193.464 18.2193 186.282 20.4207 186.282 15.51C186.282 13.1959 188.246 11.6719 191.388 11.6719C192.903 11.6719 194.698 12.067 195.708 12.7443L194.642 14.9456C193.52 14.2683 192.454 14.0425 191.332 14.0425C189.705 14.0425 188.919 14.6069 188.919 15.3972C188.919 17.8807 196.101 15.6794 196.101 20.4771C196.101 22.7913 194.081 24.2588 190.827 24.2588C188.919 24.2024 187.011 23.5815 185.945 22.8477Z" fill="#FAFBFC"/>
<defs>
<linearGradient id="paint0_linear_399_15230" x1="25.7723" y1="31.9313" x2="25.7723" y2="-0.191864" gradientUnits="userSpaceOnUse">
<stop stop-color="#004D96"/>
<stop offset="0.2297" stop-color="#0075A1"/>
<stop offset="0.5" stop-color="#00B1BD"/>
<stop offset="0.7432" stop-color="#00CCC4"/>
<stop offset="1" stop-color="#00F0BD"/>
</linearGradient>
<linearGradient id="paint1_linear_399_15230" x1="7.15812" y1="31.9313" x2="7.15812" y2="-0.191864" gradientUnits="userSpaceOnUse">
<stop stop-color="#004D96"/>
<stop offset="0.2297" stop-color="#0075A1"/>
<stop offset="0.5" stop-color="#00B1BD"/>
<stop offset="0.7432" stop-color="#00CCC4"/>
<stop offset="1" stop-color="#00F0BD"/>
</linearGradient>
<linearGradient id="paint2_linear_399_15230" x1="16.3998" y1="31.9314" x2="16.3998" y2="-0.191836" gradientUnits="userSpaceOnUse">
<stop stop-color="#004D96"/>
<stop offset="0.2297" stop-color="#0075A1"/>
<stop offset="0.5" stop-color="#00B1BD"/>
<stop offset="0.7432" stop-color="#00CCC4"/>
<stop offset="1" stop-color="#00F0BD"/>
</linearGradient>
</defs>
</svg>
