<svg width="19" height="19" viewBox="0 0 19 19" fill="none" xmlns="http://www.w3.org/2000/svg">
<path d="M2.5 6.7793V13.752C2.5 14.5808 3.17125 15.252 4 15.252H14.4992C15.328 15.252 15.9993 14.5808 15.9993 13.752V6.7793" stroke="#706CE0" stroke-linecap="round" stroke-linejoin="round"/>
<path fill-rule="evenodd" clip-rule="evenodd" d="M3.16253 5.53469L8.40803 2.00594C8.91578 1.66469 9.57953 1.66469 10.0873 2.00594L15.3328 5.53469C16.2163 6.12944 16.2163 7.42919 15.3328 8.02394L10.9273 10.9879C9.91178 11.6712 8.58428 11.6712 7.56878 10.9879L3.16328 8.02394C2.27903 7.42919 2.27903 6.12869 3.16253 5.53469Z" stroke="#706CE0" stroke-linecap="round" stroke-linejoin="round"/>
<path d="M7.09281 10.6621L2.94531 14.8096" stroke="#706CE0" stroke-linecap="round" stroke-linejoin="round"/>
<path d="M15.5538 14.8096L11.4062 10.6621" stroke="#706CE0" stroke-linecap="round" stroke-linejoin="round"/>
</svg>
