<svg width="31" height="28" viewBox="0 0 31 28" fill="none" xmlns="http://www.w3.org/2000/svg">
<path d="M29.3334 5.39062L17.1211 27.7841C21.6556 26.0216 25.5203 22.8596 27.8906 18.5571C30.2094 14.3065 30.5701 9.64123 29.3334 5.39062Z" fill="url(#paint0_linear_1047_15123)"/>
<path d="M0.682616 5.39062L12.9465 27.7841C8.41193 25.9698 4.54727 22.8596 2.17695 18.5571C-0.141844 14.3065 -0.554074 9.64123 0.682616 5.39062Z" fill="url(#paint1_linear_1047_15123)"/>
<path d="M26.6519 3.83591L14.9548 24.1559L3.25781 3.83591C6.45259 1.45143 10.5234 0 14.9548 0C19.4378 0 23.5086 1.45143 26.6519 3.83591Z" fill="url(#paint2_linear_1047_15123)"/>
<defs>
<linearGradient id="paint0_linear_1047_15123" x1="23.5738" y1="28.5058" x2="23.5738" y2="-0.995391" gradientUnits="userSpaceOnUse">
<stop stop-color="#004D96"/>
<stop offset="0.2297" stop-color="#0075A1"/>
<stop offset="0.5" stop-color="#00B1BD"/>
<stop offset="0.7432" stop-color="#00CCC4"/>
<stop offset="1" stop-color="#00F0BD"/>
</linearGradient>
<linearGradient id="paint1_linear_1047_15123" x1="6.48053" y1="28.5058" x2="6.48053" y2="-0.995391" gradientUnits="userSpaceOnUse">
<stop stop-color="#004D96"/>
<stop offset="0.2297" stop-color="#0075A1"/>
<stop offset="0.5" stop-color="#00B1BD"/>
<stop offset="0.7432" stop-color="#00CCC4"/>
<stop offset="1" stop-color="#00F0BD"/>
</linearGradient>
<linearGradient id="paint2_linear_1047_15123" x1="14.9683" y1="28.5062" x2="14.9683" y2="-0.995005" gradientUnits="userSpaceOnUse">
<stop stop-color="#004D96"/>
<stop offset="0.2297" stop-color="#0075A1"/>
<stop offset="0.5" stop-color="#00B1BD"/>
<stop offset="0.7432" stop-color="#00CCC4"/>
<stop offset="1" stop-color="#00F0BD"/>
</linearGradient>
</defs>
</svg>
