<svg width="143" height="20" viewBox="0 0 143 20" fill="none" xmlns="http://www.w3.org/2000/svg">
<path d="M5.25593 14.5143C4.22536 14.5143 3.19478 14.3588 2.21574 13.9959C1.23669 13.633 0.515287 13.2183 0 12.6481L0.566815 11.5077C1.0821 11.9743 1.75198 12.389 2.57644 12.7518C3.4009 13.0628 4.32841 13.2702 5.25593 13.2702C6.13192 13.2702 6.85332 13.1665 7.42014 12.9592C7.98696 12.7518 8.39919 12.4408 8.65683 12.0261C8.91447 11.6632 9.06906 11.2486 9.06906 10.782C9.06906 10.2118 8.91447 9.79713 8.6053 9.43427C8.29613 9.07142 7.8839 8.81223 7.36861 8.60489C6.85332 8.39754 6.28651 8.24203 5.66816 8.08652C5.04982 7.93101 4.43147 7.7755 3.81313 7.61999C3.19478 7.46448 2.62796 7.2053 2.11268 6.94611C1.59739 6.63509 1.18516 6.27224 0.875987 5.80571C0.566815 5.33918 0.412231 4.71714 0.412231 3.93959C0.412231 3.21387 0.618346 2.59183 0.979047 1.96979C1.33975 1.39959 1.90656 0.881223 2.67949 0.518367C3.45242 0.15551 4.43147 0 5.61663 0C6.38956 0 7.21402 0.103674 7.98695 0.31102C8.75989 0.518367 9.42976 0.829387 9.99658 1.24408L9.48129 2.43632C8.86294 2.02163 8.2446 1.71061 7.5232 1.5551C6.85332 1.34775 6.18345 1.24408 5.56511 1.24408C4.68912 1.24408 4.01924 1.34775 3.45242 1.60694C2.88561 1.81428 2.47338 2.1253 2.21574 2.54C1.95809 2.90285 1.80351 3.36938 1.80351 3.83591C1.80351 4.40612 1.95809 4.82081 2.26727 5.18367C2.57644 5.54652 2.98867 5.80571 3.50396 5.96122C4.01924 6.16856 4.58606 6.32407 5.2044 6.47958C5.82275 6.63509 6.44109 6.7906 7.05944 6.94611C7.67778 7.10162 8.2446 7.36081 8.75989 7.61999C9.27517 7.87917 9.6874 8.29387 9.99658 8.70856C10.3057 9.17509 10.4603 9.79713 10.4603 10.5228C10.4603 11.1967 10.2542 11.8706 9.89352 12.4408C9.53282 13.011 8.91447 13.5294 8.14154 13.8922C7.47167 14.3069 6.49262 14.5143 5.25593 14.5143Z" fill="#FAFBFC"/>
<path d="M17.6244 14.4628C16.4908 14.4628 15.5633 14.2037 14.6873 13.7371C13.8628 13.2706 13.193 12.5967 12.7292 11.8192C12.2655 10.9898 12.0078 10.0567 12.0078 9.02C12.0078 7.98326 12.2139 6.99837 12.6777 6.22082C13.1414 5.39143 13.7598 4.76939 14.5327 4.30286C15.3056 3.83633 16.2332 3.57715 17.2122 3.57715C18.1913 3.57715 19.1188 3.78449 19.8917 4.25102C20.6646 4.71755 21.283 5.33959 21.7467 6.16898C22.2105 6.99837 22.4166 7.93143 22.4166 9.02C22.4166 9.07183 22.4166 9.17551 22.4166 9.22734C22.4166 9.27918 22.4166 9.38285 22.4166 9.48653H13.1414V8.39796H21.6437L21.0769 8.81265C21.0769 8.0351 20.9223 7.36123 20.5616 6.73919C20.2524 6.11715 19.7887 5.65061 19.2218 5.33959C18.655 4.97674 17.9851 4.82123 17.2637 4.82123C16.5423 4.82123 15.8725 4.97674 15.3056 5.33959C14.7388 5.70245 14.2751 6.16898 13.9659 6.79102C13.6567 7.41306 13.5021 8.08694 13.5021 8.91632V9.12367C13.5021 9.95306 13.6567 10.6788 14.0174 11.3008C14.3781 11.9229 14.8934 12.3894 15.5118 12.7522C16.1301 13.1151 16.903 13.2706 17.7275 13.2706C18.3974 13.2706 18.9642 13.1669 19.531 12.9077C20.0978 12.7004 20.5616 12.3375 20.9738 11.871L21.7983 12.8041C21.3345 13.3743 20.7162 13.789 20.0463 14.1C19.2734 14.3073 18.5004 14.4628 17.6244 14.4628Z" fill="#FAFBFC"/>
<path d="M28.9589 14.4628C27.9283 14.4628 26.9493 14.2037 26.1248 13.7371C25.3003 13.2706 24.6305 12.5967 24.1667 11.8192C23.703 10.9898 23.4453 10.0567 23.4453 9.02C23.4453 7.93143 23.703 6.99837 24.1667 6.16898C24.6305 5.33959 25.3003 4.71755 26.1248 4.25102C26.9493 3.78449 27.8768 3.57715 28.9589 3.57715C29.8864 3.57715 30.6593 3.73266 31.4323 4.09552C32.1537 4.45837 32.7205 4.97674 33.1327 5.70245L32.0506 6.42816C31.6899 5.9098 31.2262 5.4951 30.7109 5.23592C30.1956 4.97674 29.5772 4.87307 28.9589 4.87307C28.186 4.87307 27.5161 5.02858 26.8977 5.39143C26.2794 5.75429 25.8156 6.22082 25.4549 6.84286C25.0942 7.4649 24.9396 8.19061 24.9396 9.02C24.9396 9.84938 25.0942 10.5751 25.4549 11.1971C25.8156 11.8192 26.2794 12.2857 26.8977 12.6486C27.5161 13.0114 28.186 13.1669 28.9589 13.1669C29.5772 13.1669 30.1956 13.0633 30.7109 12.8041C31.2262 12.5449 31.6899 12.1302 32.0506 11.6118L33.1327 12.3375C32.7205 13.0114 32.1537 13.5816 31.4323 13.8926C30.7109 14.3073 29.8864 14.4628 28.9589 14.4628Z" fill="#FAFBFC"/>
<path d="M39.5221 14.4628C38.5945 14.4628 37.8216 14.3073 37.1517 13.9444C36.4819 13.5815 35.9666 13.115 35.6059 12.3893C35.2452 11.7154 35.0391 10.8342 35.0391 9.84931V3.62891H36.4819V9.69379C36.4819 10.8342 36.7395 11.7154 37.3063 12.2856C37.8731 12.8558 38.6461 13.1669 39.6766 13.1669C40.3981 13.1669 41.0679 13.0113 41.6347 12.7003C42.2016 12.3893 42.6138 11.9746 42.8714 11.3526C43.1806 10.7824 43.2837 10.0567 43.2837 9.22726V3.68074H44.7265V14.4109H43.3352V11.4562L43.5413 11.9746C43.1806 12.7522 42.6653 13.3742 41.9954 13.8407C41.3256 14.2554 40.5011 14.4628 39.5221 14.4628Z" fill="#FAFBFC"/>
<path d="M47.5625 14.3592V3.68082H48.9538V6.58367L48.7992 6.06531C49.1084 5.23592 49.5721 4.61388 50.2935 4.19919C51.0149 3.78449 51.8909 3.57715 52.9215 3.57715V4.97674C52.87 4.97674 52.8184 4.97674 52.7669 4.97674C52.7154 4.97674 52.6638 4.97674 52.6123 4.97674C51.4787 4.97674 50.6027 5.33959 49.9843 6.01347C49.366 6.68735 49.0568 7.67224 49.0568 8.91632V14.3592H47.5625Z" fill="#FAFBFC"/>
<path d="M59.4096 14.4628C58.276 14.4628 57.3485 14.2037 56.4725 13.7371C55.648 13.2706 54.9781 12.5967 54.5144 11.8192C54.0506 10.9898 53.793 10.0567 53.793 9.02C53.793 7.98326 53.9991 6.99837 54.4628 6.22082C54.9266 5.39143 55.545 4.76939 56.3179 4.30286C57.0908 3.83633 58.0183 3.57715 58.9974 3.57715C59.9764 3.57715 60.9039 3.78449 61.6769 4.25102C62.4498 4.71755 63.0681 5.33959 63.5319 6.16898C63.9957 6.99837 64.2018 7.93143 64.2018 9.02C64.2018 9.07183 64.2018 9.17551 64.2018 9.22734C64.2018 9.27918 64.2018 9.38285 64.2018 9.48653H54.9266V8.39796H63.4289L62.862 8.81265C62.862 8.0351 62.7074 7.36123 62.3467 6.73919C62.0376 6.11715 61.5738 5.65061 61.007 5.33959C60.4402 4.97674 59.7703 4.82123 59.0489 4.82123C58.3275 4.82123 57.6576 4.97674 57.0908 5.33959C56.524 5.70245 56.0602 6.16898 55.7511 6.79102C55.4419 7.41306 55.2873 8.08694 55.2873 8.91632V9.12367C55.2873 9.95306 55.4419 10.6788 55.8026 11.3008C56.1633 11.9229 56.6786 12.3894 57.2969 12.7522C57.9153 13.1151 58.6882 13.2706 59.5127 13.2706C60.1825 13.2706 60.7494 13.1669 61.3162 12.9077C61.883 12.7004 62.3467 12.3375 62.759 11.871L63.5834 12.8041C63.1197 13.3743 62.5013 13.789 61.8315 14.1C61.007 14.3073 60.2341 14.4628 59.4096 14.4628Z" fill="#FAFBFC"/>
<path d="M79.4588 14.7734V4.97632L74.8728 13.1147H73.7391L69.1531 5.13183V14.7734H66.6797V0H68.7924L74.3575 9.79713L79.8195 0H81.9322V14.7734H79.4588Z" fill="#FAFBFC"/>
<path d="M93.9882 8.18987V14.7731H91.6179V13.4254C90.9995 14.4103 89.8659 14.9286 88.2685 14.9286C85.8466 14.9286 84.3008 13.529 84.3008 11.5593C84.3008 9.69314 85.4859 8.18987 88.7322 8.18987H91.4633V8.03436C91.4633 6.47926 90.5873 5.59804 88.8353 5.59804C87.6501 5.59804 86.4135 6.01273 85.589 6.73845L84.6099 4.82049C85.7436 3.88743 87.3925 3.4209 89.0929 3.4209C92.1847 3.4209 93.9882 4.92416 93.9882 8.18987ZM91.4633 11.2482V9.95232H88.8868C87.1864 9.95232 86.7226 10.6262 86.7226 11.4556C86.7226 12.3886 87.4956 13.0107 88.7322 13.0107C90.0205 13.0107 91.051 12.4405 91.4633 11.2482Z" fill="#FAFBFC"/>
<path d="M107.228 3.52457V13.0625C107.228 17.1576 105.219 19.0237 101.509 19.0237C99.4991 19.0237 97.541 18.4535 96.3043 17.4168L97.438 15.447C98.3655 16.2764 99.9114 16.7948 101.354 16.7948C103.724 16.7948 104.755 15.6544 104.755 13.3735V12.8033C103.879 13.8401 102.642 14.3066 101.2 14.3066C98.1594 14.3066 95.7891 12.1295 95.7891 8.86375C95.7891 5.59804 98.1079 3.4209 101.2 3.4209C102.694 3.4209 104.034 3.93927 104.91 5.02784V3.52457H107.228ZM104.807 8.81191C104.807 6.89396 103.467 5.64988 101.56 5.64988C99.6537 5.64988 98.314 6.94579 98.314 8.81191C98.314 10.7299 99.6537 12.0258 101.56 12.0258C103.415 12.0258 104.807 10.7299 104.807 8.81191Z" fill="#FAFBFC"/>
<path d="M119.753 8.34546V14.7732H117.28V8.65648C117.28 6.63485 116.352 5.70179 114.755 5.70179C113.003 5.70179 111.766 6.8422 111.766 9.07117V14.7732H109.293V3.52465H111.663V4.97608C112.488 3.93934 113.776 3.36914 115.322 3.36914C117.847 3.42098 119.753 4.92424 119.753 8.34546Z" fill="#FAFBFC"/>
<path d="M131.862 3.52539V14.7739H129.492V13.3225C128.719 14.3593 127.43 14.9295 126.039 14.9295C123.308 14.9295 121.453 13.3225 121.453 9.95314V3.52539H123.926V9.59028C123.926 11.6119 124.854 12.5968 126.4 12.5968C128.152 12.5968 129.337 11.4564 129.337 9.22742V3.52539H131.862Z" fill="#FAFBFC"/>
<path d="M133.305 13.6846L134.284 11.6629C135.211 12.3368 136.654 12.8033 137.994 12.8033C139.591 12.8033 140.21 12.3368 140.21 11.5593C140.21 9.43395 133.614 11.4556 133.614 6.94579C133.614 4.82049 135.417 3.4209 138.303 3.4209C139.694 3.4209 141.343 3.78376 142.271 4.4058L141.292 6.42743C140.261 5.80539 139.282 5.59804 138.251 5.59804C136.757 5.59804 136.036 6.11641 136.036 6.84212C136.036 9.12293 142.631 7.1013 142.631 11.5074C142.631 13.6327 140.776 14.9805 137.788 14.9805C136.036 14.9286 134.284 14.3584 133.305 13.6846Z" fill="#FAFBFC"/>
</svg>
