<svg width="24" height="24" viewBox="0 0 24 24" fill="none" xmlns="http://www.w3.org/2000/svg">
<path d="M19.6812 5.79688V12.5063" stroke="#00CCC4" stroke-width="1.5" stroke-linecap="round" stroke-linejoin="round"/>
<path d="M20.6409 18.2671H14.8809" stroke="#00CCC4" stroke-width="1.5" stroke-linecap="round" stroke-linejoin="round"/>
<path d="M18.7207 16.3477L20.6407 18.2677L18.7207 20.1877" stroke="#00CCC4" stroke-width="1.5" stroke-linecap="round" stroke-linejoin="round"/>
<path d="M11.0413 16.3463H5.28133C4.22053 16.3463 3.36133 15.4871 3.36133 14.4263V5.79688" stroke="#00CCC4" stroke-width="1.5" stroke-linecap="round" stroke-linejoin="round"/>
<path fill-rule="evenodd" clip-rule="evenodd" d="M5.29189 3.86719H17.7517C18.8173 3.86719 19.6823 4.73119 19.6823 5.79775V5.79775C19.6823 6.43807 19.3645 7.03615 18.8346 7.39519L13.6919 10.8809C12.3815 11.7689 10.6612 11.7689 9.35077 10.8809L4.20901 7.39615C3.67909 7.03711 3.36133 6.43807 3.36133 5.79871V5.79775C3.36133 4.73119 4.22533 3.86719 5.29189 3.86719Z" stroke="#00CCC4" stroke-width="1.5" stroke-linecap="round" stroke-linejoin="round"/>
</svg>
