<svg width="32" height="32" viewBox="0 0 32 32" fill="none" xmlns="http://www.w3.org/2000/svg">
<path d="M10.5337 26.6669C13.0784 27.9723 16.0058 28.3259 18.7882 27.6639C21.5706 27.002 24.0251 25.368 25.7093 23.0565C27.3936 20.7449 28.1969 17.9078 27.9744 15.0564C27.752 12.205 26.5184 9.52685 24.4961 7.50448C22.4737 5.48211 19.7955 4.24856 16.9441 4.02611C14.0927 3.80367 11.2556 4.60695 8.94409 6.29122C6.63255 7.97549 4.99858 10.43 4.33662 13.2124C3.67466 15.9948 4.02825 18.9221 5.33366 21.4669L2.66699 29.3336L10.5337 26.6669Z" stroke="#00CCC4" stroke-width="2" stroke-linecap="round" stroke-linejoin="round"/>
<path d="M12.1201 11.9998C12.4336 11.1087 13.0523 10.3573 13.8667 9.87863C14.6811 9.39999 15.6386 9.22503 16.5697 9.38473C17.5007 9.54443 18.3452 10.0285 18.9536 10.7512C19.5619 11.4738 19.8949 12.3885 19.8935 13.3331C19.8935 15.9998 15.8935 17.3331 15.8935 17.3331" stroke="#00CCC4" stroke-width="2" stroke-linecap="round" stroke-linejoin="round"/>
<path d="M16 22.6665H16.0133" stroke="#00CCC4" stroke-width="2" stroke-linecap="round" stroke-linejoin="round"/>
</svg>
