<svg width="19" height="19" viewBox="0 0 19 19" fill="none" xmlns="http://www.w3.org/2000/svg">
<path d="M12.4675 7.6582L8.07644 12.0493C7.94754 12.1782 7.7727 12.2507 7.59038 12.2507H6.5C6.1203 12.2507 5.8125 11.9429 5.8125 11.5632V10.4728C5.81256 10.2903 5.88414 10.1151 6.01188 9.9847L10.845 5.04158C11.3438 4.53139 12.026 4.24203 12.7394 4.23802C13.4529 4.23402 14.1383 4.51571 14.6428 5.02027L14.6923 5.06977C15.2075 5.58089 15.4963 6.27718 15.4943 7.00291C15.4922 7.72864 15.1994 8.42327 14.6813 8.93145C13.0601 10.5189 10.8395 12.7285 9.56763 13.9976C8.92312 14.6402 8.05013 15.0009 7.14006 15.0007H5.125C3.98591 15.0007 3.0625 14.0773 3.0625 12.9382V10.9245C3.0625 10.013 3.42455 9.13882 4.069 8.4942L8.3425 4.2207" stroke="#FCA0CB" stroke-linecap="round" stroke-linejoin="round"/>
</svg>
