<svg width="34" height="34" viewBox="0 0 34 34" fill="none" xmlns="http://www.w3.org/2000/svg">
<rect width="34" height="34" rx="17" fill="#BEC3C7"/>
<path d="M15.5 21.5H18.5" stroke="white" stroke-linecap="round" stroke-linejoin="round"/>
<path fill-rule="evenodd" clip-rule="evenodd" d="M20.7341 10.25H13.2656C12.8516 10.25 12.5156 10.586 12.5156 11V12.7835C12.5156 13.0993 12.6154 13.4075 12.8006 13.6633L15.2156 17L12.8006 20.3368C12.6154 20.5925 12.5156 20.9007 12.5156 21.2165V23C12.5156 23.414 12.8516 23.75 13.2656 23.75H20.7334C21.1474 23.75 21.4834 23.414 21.4834 23V21.2435C21.4834 20.9105 21.3724 20.5873 21.1684 20.324L18.5906 17L21.1691 13.6752C21.3731 13.412 21.4841 13.0888 21.4841 12.7558V11C21.4841 10.586 21.1481 10.25 20.7341 10.25Z" stroke="white" stroke-linecap="round" stroke-linejoin="round"/>
</svg>
