<svg width="292" height="45" viewBox="0 0 292 45" fill="none" xmlns="http://www.w3.org/2000/svg">
<g clip-path="url(#clip0_712_9871)">
<path d="M5.51291 1.55965C5.39255 1.42283 5.31478 1.25501 5.28886 1.07613C5.26294 0.897247 5.28996 0.714829 5.3667 0.550562C5.44343 0.386295 5.56667 0.247089 5.72174 0.149494C5.87682 0.0518987 6.05722 1.92078e-05 6.24149 2.31941e-05H39.0555C39.2403 -0.00125095 39.4215 0.0499953 39.5773 0.147566C39.733 0.245137 39.8566 0.384854 39.9331 0.549826C40.0095 0.714798 40.0357 0.89796 40.0082 1.07717C39.9808 1.25638 39.901 1.42395 39.7785 1.55965L23.3604 19.9697C23.2696 20.0698 23.1582 20.1499 23.0336 20.2047C22.909 20.2595 22.774 20.2879 22.6374 20.2879C22.5008 20.2879 22.3657 20.2595 22.2411 20.2047C22.1165 20.1499 22.0051 20.0698 21.9143 19.9697L5.51291 1.55965Z" fill="url(#paint0_linear_712_9871)"/>
<path d="M62.6426 33.2648V9.14521H71.8527C73.6958 9.0997 75.528 9.43411 77.2309 10.1268C78.6446 10.7105 79.849 11.6939 80.6903 12.9516C81.5307 14.2922 81.9522 15.8448 81.9027 17.4177C81.9478 18.9678 81.5261 20.4966 80.6903 21.813C79.8493 23.0762 78.6455 24.0667 77.2309 24.6596C75.5288 25.354 73.6954 25.6849 71.8527 25.6303H64.0664L65.2232 24.4251V33.2648H62.6426ZM65.2455 24.6542L64.0886 23.4108H71.7804C74.2461 23.4108 76.1149 22.8891 77.3866 21.8458C78.0305 21.3007 78.5383 20.6181 78.871 19.8504C79.2036 19.0828 79.3522 18.2506 79.3054 17.4177C79.3542 16.5767 79.2067 15.7359 78.8742 14.9591C78.5417 14.1824 78.033 13.4902 77.3866 12.9352C76.1111 11.8773 74.2424 11.3483 71.7804 11.3483H64.0886L65.2455 10.1431V24.6542Z" fill="#051226"/>
<path d="M96.774 15.0021C98.1417 14.9738 99.4967 15.2635 100.728 15.8473C101.87 16.411 102.805 17.3085 103.404 18.4158C104.093 19.7675 104.424 21.268 104.366 22.7784V33.2649H101.874V22.9965C101.874 21.0933 101.385 19.6482 100.411 18.6721C99.438 17.696 98.0754 17.2106 96.3179 17.2106C95.1229 17.1832 93.9403 17.4534 92.8808 17.9959C91.926 18.5063 91.1506 19.2875 90.6561 20.2372C90.0995 21.3313 89.8263 22.5431 89.8608 23.7654V33.2649H87.3691V7.7002H89.8608V20.139L89.3714 19.2065C89.945 17.9082 90.9324 16.8271 92.1856 16.1254C93.583 15.3502 95.1689 14.962 96.774 15.0021Z" fill="#051226"/>
<path d="M112.375 11.1792C112.134 11.1846 111.894 11.1414 111.67 11.0523C111.446 10.9632 111.243 10.83 111.074 10.6611C110.899 10.5032 110.76 10.3119 110.664 10.0989C110.569 9.88595 110.519 9.65596 110.518 9.42325C110.517 9.19179 110.566 8.96274 110.661 8.75124C110.757 8.53973 110.898 8.35057 111.074 8.19627C111.246 8.03257 111.45 7.90432 111.673 7.81909C111.897 7.73386 112.135 7.69338 112.375 7.70003C112.857 7.68586 113.324 7.85828 113.677 8.17991C113.852 8.32975 113.993 8.51498 114.089 8.72296C114.185 8.93095 114.234 9.15679 114.233 9.38507C114.239 9.62047 114.196 9.85462 114.108 10.0738C114.02 10.2929 113.889 10.4926 113.721 10.6611C113.547 10.8361 113.337 10.9728 113.105 11.0622C112.873 11.1515 112.624 11.1914 112.375 11.1792ZM111.113 33.2647V15.1764H113.604V33.2647H111.113Z" fill="#051226"/>
<path d="M125.517 33.4391C124.052 33.4474 122.594 33.2322 121.196 32.8011C120.034 32.4758 118.947 31.9312 117.998 31.1979L119.11 29.2674C119.991 29.8866 120.962 30.3703 121.991 30.7016C123.183 31.1044 124.435 31.3072 125.695 31.3015C127.453 31.3015 128.717 31.0324 129.489 30.4944C129.856 30.2582 130.156 29.9338 130.359 29.552C130.563 29.1702 130.663 28.7437 130.651 28.3131C130.666 28.0206 130.616 27.7283 130.504 27.4569C130.391 27.1856 130.219 26.9417 130 26.7426C129.506 26.3342 128.924 26.0397 128.298 25.881C127.522 25.6733 126.735 25.5076 125.94 25.3847C125.073 25.2429 124.216 25.0848 123.36 24.8994C122.548 24.7332 121.762 24.4618 121.024 24.0923C120.338 23.7513 119.751 23.2469 119.316 22.6254C118.855 21.8914 118.628 21.0385 118.665 20.1769C118.654 19.228 118.95 18.3 119.511 17.5266C120.14 16.6921 120.998 16.0508 121.986 15.678C123.259 15.1985 124.616 14.9706 125.979 15.0072C127.189 15.0106 128.393 15.1682 129.561 15.4762C130.608 15.7199 131.606 16.1327 132.514 16.6977L131.402 18.6609C130.608 18.1122 129.724 17.7026 128.788 17.4503C127.871 17.2129 126.927 17.0919 125.979 17.0904C124.311 17.0904 123.087 17.3685 122.303 17.9356C121.94 18.1702 121.642 18.4902 121.437 18.8664C121.232 19.2426 121.126 19.6631 121.129 20.0896C121.11 20.3918 121.157 20.6946 121.269 20.977C121.38 21.2595 121.553 21.5149 121.774 21.7256C122.275 22.1484 122.863 22.4592 123.499 22.6363C124.269 22.8712 125.055 23.0534 125.851 23.1816C126.708 23.3179 127.564 23.487 128.421 23.6833C129.232 23.8617 130.021 24.1269 130.773 24.474C131.466 24.7862 132.061 25.2737 132.497 25.8864C132.961 26.5995 133.188 27.4357 133.148 28.2804C133.166 29.2615 132.851 30.2207 132.253 31.007C131.573 31.8305 130.671 32.4502 129.65 32.7957C128.323 33.2537 126.923 33.4717 125.517 33.4391Z" fill="#051226"/>
<path d="M147.136 15.0021C148.503 14.975 149.858 15.2646 151.09 15.8473C152.229 16.4128 153.161 17.31 153.76 18.4158C154.454 19.7661 154.787 21.2673 154.727 22.7784V33.2649H152.23V22.9965C152.23 21.0933 151.741 19.6482 150.773 18.6721C150.229 18.1664 149.585 17.7757 148.881 17.5243C148.177 17.2729 147.428 17.1661 146.68 17.2106C145.487 17.1851 144.306 17.4552 143.248 17.9959C142.295 18.5093 141.521 19.2897 141.023 20.2372C140.469 21.3318 140.197 22.5436 140.234 23.7654V33.2649H137.736V7.7002H140.234V20.139L139.739 19.2065C140.316 17.9103 141.302 16.8302 142.553 16.1254C143.949 15.3515 145.532 14.9632 147.136 15.0021Z" fill="#051226"/>
<path d="M161.684 33.2646V9.14502H164.565L175.599 27.3751H174.081L184.976 9.14502H187.857L187.868 33.2646H184.492L184.459 14.3474H185.265L175.566 30.3362H173.947L164.175 14.3474H165.054V33.2646H161.684Z" fill="#051226"/>
<path d="M198.798 33.4717C197.549 33.4982 196.309 33.264 195.16 32.7846C194.189 32.3833 193.354 31.7195 192.752 30.8705C192.189 30.0534 191.893 29.0867 191.907 28.1003C191.894 27.1563 192.144 26.2268 192.63 25.4119C193.185 24.5398 194.009 23.8637 194.982 23.4814C196.385 22.9416 197.887 22.6945 199.393 22.7561H205.299V25.1338H199.532C197.848 25.1338 196.714 25.41 196.128 25.9626C195.846 26.2155 195.622 26.5241 195.47 26.8682C195.319 27.2122 195.244 27.5838 195.249 27.9585C195.237 28.3766 195.328 28.7913 195.516 29.1667C195.704 29.5421 195.983 29.8668 196.328 30.1125C197.219 30.7001 198.282 30.9854 199.354 30.9251C200.522 30.9524 201.676 30.6658 202.691 30.0962C203.639 29.5488 204.366 28.6975 204.749 27.6859L205.416 29.9599C204.956 31.0573 204.123 31.9649 203.058 32.5283C201.747 33.2037 200.278 33.5291 198.798 33.4717ZM204.916 33.2645V29.4091L204.743 28.6838V22.1018C204.783 21.5006 204.692 20.898 204.476 20.334C204.26 19.7699 203.925 19.2572 203.492 18.8298C202.663 18.0609 201.412 17.6737 199.749 17.6737C198.648 17.6782 197.556 17.8625 196.517 18.2191C195.546 18.5319 194.641 19.0161 193.848 19.6478L192.435 17.172C193.464 16.3805 194.638 15.79 195.894 15.4325C197.269 15.0297 198.697 14.8276 200.132 14.8326C202.687 14.8326 204.656 15.4416 206.039 16.6594C207.422 17.8773 208.112 19.7369 208.108 22.2381V33.2645H204.916Z" fill="#051226"/>
<path d="M220.694 32.5069C219.015 32.5466 217.353 32.1715 215.861 31.4163C214.468 30.696 213.301 29.6178 212.485 28.297C211.634 26.903 211.203 25.302 211.239 23.6782C211.199 22.0504 211.631 20.445 212.485 19.0484C213.302 17.7371 214.469 16.6698 215.861 15.9618C217.355 15.2125 219.016 14.8378 220.694 14.8712C222.2 14.8537 223.69 15.1765 225.049 15.8146C226.371 16.4553 227.467 17.4695 228.196 18.7266C229.031 20.2487 229.437 21.962 229.37 23.6891C229.432 25.3983 229.026 27.0926 228.196 28.597C227.462 29.8582 226.368 30.8817 225.049 31.5417C223.696 32.1997 222.203 32.5307 220.694 32.5069ZM221.111 40.1414C219.427 40.1448 217.752 39.9078 216.139 39.438C214.708 39.0473 213.38 38.3592 212.246 37.4203L213.858 34.8736C214.802 35.6474 215.887 36.2378 217.056 36.6132C218.335 37.0377 219.677 37.2532 221.027 37.2512C223.23 37.2512 224.846 36.7441 225.877 35.7298C226.908 34.7155 227.425 33.1777 227.429 31.1164V27.2664L227.779 23.6454L227.601 19.9972V15.0021H230.799V30.7837C230.799 34.0011 229.98 36.3642 228.341 37.8729C226.702 39.3816 224.292 40.1433 221.111 40.1578V40.1414ZM221.077 29.6004C222.226 29.62 223.361 29.3595 224.381 28.8424C225.319 28.3567 226.104 27.6288 226.65 26.7374C227.209 25.8024 227.494 24.7344 227.473 23.6509C227.496 22.5637 227.211 21.4915 226.65 20.5535C226.108 19.6631 225.322 18.9396 224.381 18.4649C223.357 17.9599 222.223 17.7072 221.077 17.7287C219.921 17.7061 218.776 17.9587 217.74 18.4649C216.793 18.9358 216.001 19.6599 215.455 20.5535C214.894 21.4915 214.609 22.5637 214.631 23.6509C214.608 24.7399 214.893 25.814 215.455 26.7538C216.004 27.6484 216.795 28.3768 217.74 28.8587C218.772 29.3773 219.918 29.6377 221.077 29.6167V29.6004Z" fill="#051226"/>
<path d="M245.048 14.8327C246.439 14.8024 247.817 15.0978 249.069 15.6943C250.232 16.2686 251.184 17.1833 251.794 18.3118C252.498 19.6887 252.836 21.2172 252.778 22.7562V33.2646H249.402V23.1379C249.402 21.3675 248.963 20.035 248.084 19.1407C247.597 18.6756 247.015 18.3155 246.377 18.0836C245.739 17.8516 245.059 17.7529 244.38 17.7938C243.294 17.7678 242.218 18.0058 241.249 18.4863C240.366 18.9371 239.649 19.6461 239.197 20.5149C238.681 21.5547 238.433 22.7023 238.474 23.8578V33.2646H235.098V15.0017H238.335V19.9096L237.806 18.6009C238.418 17.4042 239.402 16.4286 240.615 15.8143C241.986 15.1307 243.51 14.7933 245.048 14.8327Z" fill="#051226"/>
<path d="M264.058 33.472C262.609 33.5041 261.173 33.2093 259.859 32.6104C258.664 32.0504 257.681 31.1341 257.05 29.9929C256.337 28.613 255.992 27.0781 256.049 25.5321V15.002H259.419V25.134C259.419 26.93 259.859 28.2733 260.737 29.164C261.224 29.6344 261.805 29.9998 262.444 30.2364C263.083 30.4731 263.765 30.5759 264.447 30.5382C265.512 30.5646 266.566 30.3204 267.506 29.8293C268.374 29.3581 269.073 28.6366 269.508 27.7625C270 26.7407 270.24 25.62 270.209 24.4906V15.002H273.585V33.2648H270.387V28.3569L270.915 29.6657C270.323 30.8637 269.365 31.851 268.173 32.4904C266.911 33.1593 265.493 33.4974 264.058 33.472Z" fill="#051226"/>
<path d="M283.953 33.472C282.46 33.4785 280.974 33.2709 279.543 32.8558C278.365 32.5432 277.252 32.0301 276.256 31.3398L277.663 28.7168C278.578 29.3 279.572 29.7535 280.616 30.0638C281.774 30.4265 282.982 30.6105 284.198 30.6091C285.766 30.6091 286.901 30.391 287.591 29.9547C287.918 29.7722 288.189 29.5068 288.376 29.1865C288.563 28.8661 288.658 28.5024 288.653 28.1333C288.664 27.8762 288.612 27.6202 288.503 27.3861C288.394 27.1521 288.23 26.9466 288.024 26.7864C287.526 26.434 286.958 26.1887 286.356 26.0666C285.661 25.903 284.893 25.7612 284.053 25.6358C283.214 25.5103 282.385 25.3467 281.523 25.1504C280.716 24.9725 279.935 24.6959 279.198 24.327C278.52 23.9827 277.945 23.4715 277.529 22.8437C277.073 22.0763 276.855 21.1951 276.901 20.308C276.879 19.2681 277.211 18.2508 277.847 17.4177C278.542 16.5438 279.475 15.8803 280.538 15.5037C281.859 15.0291 283.259 14.8016 284.665 14.8329C285.914 14.8357 287.159 14.9803 288.375 15.2637C289.461 15.4862 290.498 15.9 291.434 16.4852L289.965 19.0864C289.161 18.5707 288.268 18.2012 287.329 17.9958C286.43 17.7906 285.51 17.6863 284.587 17.685C283.44 17.6079 282.295 17.8518 281.284 18.3884C280.952 18.5672 280.674 18.8289 280.479 19.1468C280.284 19.4648 280.177 19.8278 280.171 20.1989C280.165 20.4698 280.225 20.7383 280.346 20.982C280.467 21.2257 280.645 21.4377 280.867 21.6004C281.366 21.9593 281.933 22.217 282.535 22.3584C283.293 22.554 284.062 22.7088 284.838 22.8219C285.683 22.9473 286.506 23.1109 287.368 23.3018C288.166 23.4821 288.939 23.7549 289.671 24.1143C290.342 24.4512 290.915 24.9481 291.339 25.5594C291.811 26.3093 292.038 27.1826 291.99 28.0624C292.012 29.1 291.664 30.1126 291.005 30.9254C290.267 31.7846 289.307 32.4326 288.225 32.8013C286.854 33.2759 285.407 33.5031 283.953 33.472Z" fill="#051226"/>
<path d="M45.2948 18.2684C45.2948 18.3611 45.2948 18.4538 45.2948 18.5465C43.0701 42.0771 22.6142 45.0001 22.6142 45.0001C0.000343702 37.6273 0.000344163 16.3216 0.000344163 16.3216C0.000344163 16.3216 0.000344163 9.03061 0.000344163 5.31151C-0.00335649 5.21872 0.0228637 5.12714 0.0752787 5.0498C0.127694 4.97245 0.203637 4.91327 0.292317 4.88066C0.380997 4.84806 0.477902 4.84368 0.569262 4.86817C0.660622 4.89265 0.741788 4.94474 0.801228 5.01704L21.6353 28.3896C21.7617 28.5309 21.9173 28.6441 22.0919 28.7217C22.2664 28.7993 22.4559 28.8394 22.6476 28.8394C22.8392 28.8394 23.0287 28.7993 23.2032 28.7217C23.3778 28.6441 23.5335 28.5309 23.6598 28.3896L44.4939 5.01704C44.5536 4.94736 44.6339 4.89747 44.7236 4.87421C44.8134 4.85095 44.9082 4.85544 44.9953 4.88707C45.0823 4.91871 45.1573 4.97594 45.2099 5.05094C45.2625 5.12593 45.2902 5.21504 45.2892 5.30606C45.2892 8.98153 45.2948 18.2684 45.2948 18.2684Z" fill="url(#paint1_linear_712_9871)"/>
</g>
<defs>
<linearGradient id="paint0_linear_712_9871" x1="44.7896" y1="37.1474" x2="20.6316" y2="-3.94249" gradientUnits="userSpaceOnUse">
<stop stop-color="#004D97"/>
<stop offset="0.23" stop-color="#0075A2"/>
<stop offset="0.5" stop-color="#00B2BE"/>
<stop offset="0.74" stop-color="#00CDC5"/>
<stop offset="1" stop-color="#00F1BE"/>
</linearGradient>
<linearGradient id="paint1_linear_712_9871" x1="38.1869" y1="39.8795" x2="15.3146" y2="0.976884" gradientUnits="userSpaceOnUse">
<stop stop-color="#004D97"/>
<stop offset="0.23" stop-color="#0075A2"/>
<stop offset="0.5" stop-color="#00B2BE"/>
<stop offset="0.74" stop-color="#00CDC5"/>
<stop offset="1" stop-color="#00F1BE"/>
</linearGradient>
<clipPath id="clip0_712_9871">
<rect width="292" height="45" fill="white"/>
</clipPath>
</defs>
</svg>
