<svg width="254" height="36" viewBox="0 0 254 36" fill="none" xmlns="http://www.w3.org/2000/svg">
<path d="M49.4248 28.2992V6.85959H57.6256C59.2667 6.81915 60.8981 7.1164 62.4144 7.73211C63.6732 8.25093 64.7456 9.12508 65.4947 10.243C66.243 11.4347 66.6183 12.8148 66.5742 14.213C66.6144 15.5908 66.2389 16.9497 65.4947 18.1199C64.7458 19.2427 63.674 20.1231 62.4144 20.6502C60.8989 21.2674 59.2664 21.5615 57.6256 21.513H50.6926L51.7226 20.4418V28.2992H49.4248ZM51.7424 20.6453L50.7124 19.5402H57.5613C59.7567 19.5402 61.4207 19.0764 62.5531 18.149C63.1264 17.6645 63.5786 17.0577 63.8747 16.3754C64.1709 15.693 64.3033 14.9532 64.2616 14.213C64.305 13.4654 64.1737 12.7179 63.8776 12.0275C63.5816 11.3371 63.1286 10.7218 62.5531 10.2285C61.4174 9.2881 59.7534 8.81791 57.5613 8.81791H50.7124L51.7424 7.74665V20.6453Z" fill="#051226"/>
<path d="M79.8156 12.0653C81.0334 12.0401 82.24 12.2976 83.3366 12.8166C84.3531 13.3176 85.1854 14.1154 85.7186 15.0997C86.3328 16.3012 86.6274 17.635 86.5753 18.9775V28.2989H84.3567V19.1714C84.3567 17.4797 83.9209 16.1952 83.0543 15.3275C82.1877 14.4598 80.9744 14.0284 79.4095 14.0284C78.3454 14.0041 77.2925 14.2442 76.349 14.7264C75.4989 15.1801 74.8085 15.8745 74.3682 16.7187C73.8725 17.6913 73.6293 18.7684 73.66 19.8549V28.2989H71.4414V5.57471H73.66V16.6314L73.2242 15.8025C73.735 14.6485 74.6142 13.6875 75.73 13.0638C76.9743 12.3748 78.3864 12.0296 79.8156 12.0653Z" fill="#051226"/>
<path d="M93.7068 8.66752C93.4917 8.6723 93.278 8.6339 93.0787 8.5547C92.8794 8.4755 92.6988 8.35718 92.548 8.20703C92.3927 8.06669 92.2686 7.89658 92.1834 7.70728C92.0982 7.51798 92.0538 7.31354 92.0528 7.10669C92.0518 6.90095 92.0954 6.69735 92.1808 6.50935C92.2661 6.32134 92.3913 6.1532 92.548 6.01604C92.7013 5.87053 92.8828 5.75653 93.0818 5.68077C93.2808 5.60501 93.4933 5.56903 93.7068 5.57494C94.1353 5.56234 94.5517 5.71561 94.8656 6.0015C95.022 6.13469 95.1472 6.29934 95.2327 6.48421C95.3181 6.66909 95.3618 6.86984 95.3608 7.07276C95.3659 7.282 95.3282 7.49013 95.25 7.68492C95.1718 7.8797 95.0545 8.05722 94.9052 8.20703C94.7502 8.36259 94.5632 8.4841 94.3566 8.5635C94.15 8.64289 93.9285 8.67835 93.7068 8.66752ZM92.5826 28.2991V12.2206H94.8012V28.2991H92.5826Z" fill="#051226"/>
<path d="M105.409 28.4542C104.104 28.4616 102.806 28.2703 101.561 27.8871C100.527 27.5979 99.5593 27.1138 98.7139 26.462L99.7043 24.746C100.488 25.2964 101.353 25.7263 102.27 26.0208C103.33 26.3788 104.446 26.5591 105.568 26.5541C107.133 26.5541 108.258 26.3149 108.945 25.8366C109.272 25.6267 109.539 25.3384 109.72 24.999C109.901 24.6596 109.991 24.2805 109.98 23.8977C109.994 23.6377 109.949 23.3779 109.849 23.1367C109.749 22.8955 109.596 22.6787 109.401 22.5017C108.96 22.1387 108.443 21.877 107.885 21.7358C107.194 21.5512 106.493 21.404 105.786 21.2947C105.013 21.1687 104.25 21.0281 103.488 20.8633C102.765 20.7156 102.066 20.4743 101.408 20.1459C100.798 19.8428 100.275 19.3944 99.8875 18.842C99.4765 18.1895 99.2747 17.4314 99.3081 16.6655C99.298 15.8221 99.5615 14.9972 100.061 14.3097C100.621 13.5679 101.385 12.9979 102.265 12.6665C103.398 12.2403 104.606 12.0377 105.82 12.0703C106.897 12.0732 107.969 12.2134 109.009 12.4872C109.941 12.7038 110.83 13.0707 111.639 13.573L110.649 15.318C109.942 14.8303 109.155 14.4662 108.321 14.2419C107.505 14.0308 106.664 13.9233 105.82 13.922C104.335 13.922 103.245 14.1692 102.547 14.6733C102.223 14.8818 101.958 15.1663 101.776 15.5007C101.593 15.8351 101.499 16.2089 101.502 16.588C101.485 16.8566 101.527 17.1257 101.626 17.3768C101.725 17.6278 101.879 17.8549 102.076 18.0422C102.522 18.418 103.046 18.6943 103.612 18.8517C104.298 19.0604 104.997 19.2224 105.706 19.3364C106.469 19.4576 107.232 19.6079 107.994 19.7824C108.717 19.9409 109.419 20.1766 110.089 20.4852C110.706 20.7627 111.236 21.1961 111.624 21.7407C112.037 22.3746 112.239 23.1178 112.204 23.8686C112.22 24.7407 111.939 25.5934 111.406 26.2923C110.801 27.0243 109.998 27.5752 109.089 27.8822C107.908 28.2894 106.661 28.4832 105.409 28.4542Z" fill="#051226"/>
<path d="M124.658 12.0653C125.876 12.0412 127.082 12.2986 128.179 12.8166C129.193 13.3192 130.024 14.1167 130.556 15.0997C131.174 16.3 131.471 17.6343 131.418 18.9775V28.2989H129.194V19.1714C129.194 17.4797 128.759 16.1952 127.897 15.3275C127.413 14.878 126.84 14.5307 126.213 14.3073C125.585 14.0838 124.918 13.9889 124.252 14.0284C123.19 14.0057 122.139 14.2458 121.197 14.7264C120.349 15.1828 119.659 15.8765 119.216 16.7187C118.722 17.6917 118.48 18.7688 118.513 19.8549V28.2989H116.289V5.57471H118.513V16.6314L118.072 15.8025C118.586 14.6504 119.464 13.6903 120.578 13.0638C121.821 12.3758 123.231 12.0307 124.658 12.0653Z" fill="#051226"/>
<path d="M137.613 28.299V6.85938H140.179L150.004 23.0639H148.652L158.353 6.85938H160.918L160.928 28.299H157.922L157.893 11.4837H158.611L149.974 25.696H148.533L139.832 11.4837H140.614V28.299H137.613Z" fill="#051226"/>
<path d="M170.659 28.4832C169.547 28.5068 168.443 28.2986 167.42 27.8725C166.555 27.5157 165.811 26.9257 165.276 26.1711C164.774 25.4447 164.511 24.5854 164.523 23.7086C164.511 22.8695 164.734 22.0433 165.167 21.3189C165.661 20.5438 166.395 19.9428 167.261 19.603C168.51 19.1231 169.848 18.9035 171.189 18.9583H176.448V21.0717H171.312C169.813 21.0717 168.803 21.3173 168.282 21.8085C168.03 22.0332 167.831 22.3076 167.696 22.6134C167.561 22.9192 167.494 23.2495 167.499 23.5826C167.488 23.9542 167.57 24.3228 167.737 24.6565C167.904 24.9902 168.153 25.2788 168.46 25.4973C169.253 26.0195 170.199 26.2732 171.154 26.2195C172.194 26.2439 173.222 25.9891 174.125 25.4827C174.97 24.9962 175.617 24.2395 175.958 23.3402L176.552 25.3616C176.142 26.3371 175.4 27.1438 174.452 27.6446C173.285 28.245 171.976 28.5342 170.659 28.4832ZM176.106 28.299V24.872L175.953 24.2273V18.3766C175.988 17.8422 175.907 17.3066 175.715 16.8052C175.523 16.3038 175.224 15.8481 174.838 15.4682C174.1 14.7847 172.986 14.4406 171.505 14.4406C170.526 14.4446 169.553 14.6084 168.628 14.9253C167.764 15.2034 166.958 15.6338 166.251 16.1953L164.993 13.9946C165.91 13.2911 166.955 12.7661 168.074 12.4483C169.298 12.0903 170.569 11.9106 171.847 11.9151C174.122 11.9151 175.875 12.4564 177.106 13.539C178.338 14.6215 178.952 16.2745 178.949 18.4978V28.299H176.106Z" fill="#051226"/>
<path d="M190.155 27.6253C188.66 27.6606 187.181 27.3272 185.852 26.6558C184.612 26.0156 183.572 25.0571 182.846 23.8832C182.089 22.644 181.704 21.221 181.737 19.7775C181.701 18.3306 182.086 16.9036 182.846 15.6621C183.574 14.4965 184.613 13.5478 185.852 12.9186C187.183 12.2524 188.661 11.9194 190.155 11.9491C191.497 11.9335 192.823 12.2205 194.033 12.7877C195.21 13.3572 196.187 14.2587 196.836 15.3761C197.579 16.7291 197.94 18.252 197.881 19.7872C197.936 21.3065 197.575 22.8126 196.836 24.1498C196.182 25.2709 195.208 26.1807 194.033 26.7673C192.829 27.3522 191.499 27.6464 190.155 27.6253ZM190.527 34.4115C189.028 34.4145 187.536 34.2039 186.1 33.7862C184.826 33.439 183.643 32.8273 182.633 31.9927L184.069 29.729C184.909 30.4168 185.876 30.9416 186.917 31.2753C188.056 31.6526 189.25 31.8442 190.452 31.8425C192.414 31.8425 193.853 31.3917 194.771 30.4901C195.689 29.5885 196.149 28.2215 196.152 26.3892V22.967L196.464 19.7484L196.306 16.5056V12.0654H199.153V26.0935C199.153 28.9535 198.424 31.054 196.965 32.395C195.505 33.7361 193.359 34.4131 190.527 34.4261V34.4115ZM190.497 25.0417C191.519 25.0591 192.53 24.8276 193.439 24.3679C194.274 23.9362 194.973 23.2892 195.459 22.4968C195.957 21.6657 196.21 20.7164 196.192 19.7533C196.212 18.7868 195.959 17.8338 195.459 17C194.976 16.2086 194.276 15.5654 193.439 15.1435C192.527 14.6946 191.517 14.47 190.497 14.4891C189.467 14.469 188.448 14.6935 187.526 15.1435C186.682 15.5621 185.976 16.2057 185.49 17C184.991 17.8338 184.737 18.7868 184.757 19.7533C184.736 20.7213 184.99 21.676 185.49 22.5114C185.98 23.3066 186.684 23.9541 187.526 24.3824C188.444 24.8434 189.465 25.0749 190.497 25.0562V25.0417Z" fill="#051226"/>
<path d="M211.841 11.9153C213.08 11.8885 214.307 12.151 215.421 12.6812C216.457 13.1917 217.305 14.0048 217.848 15.0079C218.475 16.2318 218.776 17.5905 218.724 18.9585V28.2992H215.718V19.2978C215.718 17.724 215.327 16.5397 214.545 15.7447C214.111 15.3313 213.593 15.0112 213.025 14.805C212.457 14.5988 211.851 14.5111 211.247 14.5474C210.28 14.5244 209.322 14.7359 208.459 15.163C207.673 15.5637 207.034 16.1939 206.631 16.9662C206.172 17.8905 205.951 18.9106 205.987 19.9376V28.2992H202.981V12.0656H205.864V16.4282L205.393 15.2648C205.938 14.2011 206.814 13.3339 207.894 12.7879C209.115 12.1803 210.472 11.8804 211.841 11.9153Z" fill="#051226"/>
<path d="M228.768 28.4833C227.479 28.5118 226.199 28.2497 225.029 27.7174C223.966 27.2196 223.09 26.4051 222.529 25.3907C221.893 24.1641 221.587 22.7998 221.637 21.4256V12.0654H224.638V21.0717C224.638 22.6681 225.029 23.8622 225.812 24.6539C226.245 25.0721 226.762 25.3968 227.331 25.6072C227.9 25.8176 228.508 25.909 229.115 25.8754C230.063 25.8989 231.002 25.6818 231.839 25.2453C232.612 24.8265 233.234 24.1851 233.621 23.4081C234.059 22.4999 234.273 21.5037 234.245 20.4997V12.0654H237.251V28.2991H234.404V23.9365L234.874 25.0998C234.347 26.1648 233.494 27.0424 232.433 27.6108C231.308 28.2053 230.046 28.5059 228.768 28.4833Z" fill="#051226"/>
<path d="M246.482 28.4832C245.152 28.489 243.829 28.3044 242.555 27.9355C241.506 27.6576 240.515 27.2015 239.628 26.5879L240.881 24.2564C241.695 24.7747 242.581 25.1778 243.51 25.4537C244.541 25.7761 245.617 25.9396 246.7 25.9384C248.096 25.9384 249.106 25.7445 249.721 25.3567C250.012 25.1945 250.253 24.9586 250.42 24.6738C250.586 24.389 250.671 24.0657 250.666 23.7377C250.676 23.5091 250.63 23.2816 250.533 23.0735C250.436 22.8655 250.29 22.6828 250.107 22.5404C249.663 22.2272 249.157 22.0092 248.621 21.9006C248.002 21.7552 247.319 21.6291 246.571 21.5176C245.823 21.4062 245.085 21.2607 244.318 21.0862C243.599 20.9281 242.904 20.6822 242.248 20.3543C241.644 20.0482 241.132 19.5939 240.762 19.0358C240.356 18.3537 240.161 17.5704 240.202 16.7818C240.182 15.8575 240.479 14.9532 241.044 14.2128C241.664 13.4359 242.494 12.8462 243.441 12.5113C244.617 12.0895 245.863 11.8873 247.116 11.9151C248.228 11.9176 249.336 12.0461 250.419 12.2981C251.386 12.4958 252.309 12.8637 253.142 13.3839L251.835 15.696C251.118 15.2376 250.323 14.9092 249.488 14.7266C248.687 14.5441 247.868 14.4514 247.046 14.4503C246.025 14.3817 245.005 14.5986 244.105 15.0756C243.809 15.2345 243.562 15.4671 243.388 15.7497C243.214 16.0324 243.12 16.355 243.114 16.6849C243.109 16.9257 243.162 17.1643 243.27 17.3809C243.378 17.5976 243.536 17.786 243.733 17.9306C244.178 18.2497 244.683 18.4787 245.219 18.6044C245.894 18.7783 246.579 18.9159 247.269 19.0164C248.022 19.1279 248.755 19.2733 249.522 19.443C250.233 19.6033 250.921 19.8457 251.573 20.1652C252.17 20.4647 252.681 20.9064 253.058 21.4498C253.478 22.1163 253.681 22.8926 253.638 23.6747C253.657 24.597 253.347 25.4971 252.761 26.2195C252.104 26.9832 251.249 27.5593 250.285 27.887C249.064 28.3088 247.776 28.5108 246.482 28.4832Z" fill="#051226"/>
<path d="M4.34138 2.02225C4.24801 1.91631 4.18768 1.78634 4.16758 1.64782C4.14747 1.50929 4.16843 1.36802 4.22795 1.24081C4.28748 1.1136 4.38308 1.0058 4.50338 0.930222C4.62368 0.854644 4.76362 0.814468 4.90656 0.814471H30.3615C30.5048 0.813484 30.6454 0.85317 30.7662 0.928729C30.887 1.00429 30.9829 1.11249 31.0422 1.24024C31.1016 1.368 31.1218 1.50984 31.1005 1.64862C31.0793 1.7874 31.0174 1.91717 30.9223 2.02225L18.1863 16.2792C18.1158 16.3566 18.0294 16.4187 17.9328 16.4611C17.8361 16.5036 17.7313 16.5255 17.6254 16.5255C17.5194 16.5255 17.4147 16.5036 17.318 16.4611C17.2213 16.4187 17.1349 16.3566 17.0645 16.2792L4.34138 2.02225Z" fill="url(#paint0_linear_716_23497)"/>
<path d="M35.2011 14.9621C35.2011 15.0339 35.2011 15.1056 35.2011 15.1774C33.4753 33.3998 17.607 35.6633 17.607 35.6633C0.0647197 29.9538 0.0647201 13.4545 0.0647201 13.4545C0.0647201 13.4545 0.0647201 7.80828 0.0647201 4.92818C0.0618494 4.85632 0.0821893 4.78541 0.122849 4.72551C0.163509 4.66561 0.222421 4.61978 0.291213 4.59453C0.360005 4.56928 0.435178 4.5659 0.506049 4.58485C0.576919 4.60381 0.639883 4.64415 0.685992 4.70014L16.8477 22.8C16.9457 22.9094 17.0664 22.9971 17.2018 23.0572C17.3373 23.1173 17.4842 23.1484 17.6329 23.1484C17.7816 23.1484 17.9286 23.1173 18.064 23.0572C18.1994 22.9971 18.3201 22.9094 18.4181 22.8L34.5798 4.70014C34.6262 4.64618 34.6884 4.60755 34.758 4.58954C34.8277 4.57152 34.9013 4.575 34.9688 4.5995C35.0363 4.624 35.0945 4.66831 35.1353 4.72639C35.1761 4.78447 35.1976 4.85347 35.1968 4.92396C35.1968 7.77027 35.2011 14.9621 35.2011 14.9621Z" fill="url(#paint1_linear_716_23497)"/>
<defs>
<linearGradient id="paint0_linear_716_23497" x1="34.8096" y1="29.5816" x2="16.1171" y2="-2.26659" gradientUnits="userSpaceOnUse">
<stop stop-color="#004D97"/>
<stop offset="0.23" stop-color="#0075A2"/>
<stop offset="0.5" stop-color="#00B2BE"/>
<stop offset="0.74" stop-color="#00CDC5"/>
<stop offset="1" stop-color="#00F1BE"/>
</linearGradient>
<linearGradient id="paint1_linear_716_23497" x1="29.6873" y1="31.6979" x2="11.9896" y2="1.54496" gradientUnits="userSpaceOnUse">
<stop stop-color="#004D97"/>
<stop offset="0.23" stop-color="#0075A2"/>
<stop offset="0.5" stop-color="#00B2BE"/>
<stop offset="0.74" stop-color="#00CDC5"/>
<stop offset="1" stop-color="#00F1BE"/>
</linearGradient>
</defs>
</svg>
