<svg width="24" height="24" viewBox="0 0 24 24" fill="none" xmlns="http://www.w3.org/2000/svg">
<path d="M2.83095 0.801201C2.76911 0.730921 2.72917 0.644709 2.71585 0.552816C2.70254 0.460922 2.71641 0.367213 2.75584 0.282828C2.79526 0.198443 2.85856 0.126932 2.93823 0.0767962C3.01789 0.0266608 3.11056 9.86719e-06 3.20522 1.1915e-05H20.062C20.157 -0.000642622 20.2501 0.0256829 20.3301 0.0758058C20.4101 0.125929 20.4736 0.197702 20.5128 0.28245C20.5521 0.367197 20.5655 0.461289 20.5514 0.553349C20.5374 0.645409 20.4964 0.731496 20.4334 0.801201L11.9993 10.2586C11.9527 10.31 11.8955 10.3511 11.8315 10.3793C11.7674 10.4075 11.6981 10.422 11.6279 10.422C11.5577 10.422 11.4884 10.4075 11.4243 10.3793C11.3603 10.3511 11.3031 10.31 11.2565 10.2586L2.83095 0.801201Z" fill="url(#paint0_linear_1048_15146)"/>
<path d="M23.2683 9.38498C23.2683 9.4326 23.2683 9.48022 23.2683 9.52784C22.1254 21.6157 11.6171 23.1172 11.6171 23.1172C0.000176562 19.3298 0.000176799 8.38489 0.000176799 8.38489C0.000176799 8.38489 0.000176799 4.63947 0.000176799 2.72894C-0.00172426 2.68127 0.0117453 2.63423 0.0386713 2.5945C0.0655973 2.55476 0.10461 2.52436 0.150166 2.50761C0.195721 2.49086 0.245502 2.48861 0.292434 2.50119C0.339367 2.51377 0.381063 2.54053 0.411597 2.57767L11.1142 14.5843C11.1791 14.6569 11.2591 14.7151 11.3488 14.7549C11.4384 14.7948 11.5358 14.8154 11.6342 14.8154C11.7327 14.8154 11.83 14.7948 11.9197 14.7549C12.0094 14.7151 12.0893 14.6569 12.1542 14.5843L22.8569 2.57767C22.8875 2.54187 22.9288 2.51625 22.9749 2.5043C23.021 2.49235 23.0697 2.49465 23.1144 2.5109C23.1592 2.52716 23.1977 2.55655 23.2247 2.59508C23.2517 2.63361 23.2659 2.67938 23.2654 2.72614C23.2654 4.61426 23.2683 9.38498 23.2683 9.38498Z" fill="url(#paint1_linear_1048_15146)"/>
<defs>
<linearGradient id="paint0_linear_1048_15146" x1="23.0077" y1="19.0829" x2="10.5975" y2="-2.02529" gradientUnits="userSpaceOnUse">
<stop stop-color="#004D97"/>
<stop offset="0.23" stop-color="#0075A2"/>
<stop offset="0.5" stop-color="#00B2BE"/>
<stop offset="0.74" stop-color="#00CDC5"/>
<stop offset="1" stop-color="#00F1BE"/>
</linearGradient>
<linearGradient id="paint1_linear_1048_15146" x1="19.6169" y1="20.4868" x2="7.86726" y2="0.502202" gradientUnits="userSpaceOnUse">
<stop stop-color="#004D97"/>
<stop offset="0.23" stop-color="#0075A2"/>
<stop offset="0.5" stop-color="#00B2BE"/>
<stop offset="0.74" stop-color="#00CDC5"/>
<stop offset="1" stop-color="#00F1BE"/>
</linearGradient>
</defs>
</svg>
