<svg width="118" height="18" viewBox="0 0 118 18" fill="none" xmlns="http://www.w3.org/2000/svg">
<path d="M0.179688 14.0878V1.69741H4.91101C5.85779 1.67404 6.79902 1.84583 7.67381 2.20166C8.40006 2.5015 9.01874 3.00668 9.45091 3.65276C9.88266 4.34146 10.0992 5.13907 10.0738 5.94708C10.0969 6.74337 9.88029 7.5287 9.45091 8.20497C9.01889 8.85384 8.40051 9.36269 7.67381 9.66728C6.79944 10.024 5.85761 10.194 4.91101 10.1659H0.911101L1.50537 9.54682V14.0878H0.179688ZM1.5168 9.66448L0.92253 9.02577H4.87387C6.14051 9.02577 7.10049 8.75777 7.75381 8.22178C8.08458 7.94178 8.34545 7.59112 8.51633 7.19677C8.68721 6.80242 8.76356 6.37489 8.7395 5.94708C8.76455 5.51503 8.68879 5.08308 8.51799 4.68406C8.34719 4.28504 8.08583 3.92946 7.75381 3.64436C7.09858 3.1009 6.1386 2.82916 4.87387 2.82916H0.92253L1.5168 2.21006V9.66448Z" fill="#051226"/>
<path d="M17.7141 4.7061C18.4167 4.69159 19.1128 4.84038 19.7455 5.14031C20.332 5.42988 20.8122 5.89095 21.1198 6.45975C21.4741 7.15414 21.6441 7.92495 21.6141 8.70084V14.0879H20.3341V8.8129C20.3341 7.83522 20.0827 7.09286 19.5827 6.59142C19.0827 6.08997 18.3827 5.84065 17.4799 5.84065C16.866 5.82658 16.2585 5.96537 15.7142 6.24405C15.2237 6.50626 14.8254 6.90755 14.5713 7.39541C14.2854 7.9575 14.1451 8.58 14.1628 9.20789V14.0879H12.8828V0.955078H14.1628V7.34498L13.9114 6.86595C14.2061 6.19899 14.7133 5.64365 15.357 5.28318C16.0749 4.88497 16.8896 4.6855 17.7141 4.7061Z" fill="#051226"/>
<path d="M25.7277 2.74276C25.6036 2.74552 25.4803 2.72333 25.3653 2.67756C25.2503 2.63179 25.1461 2.56341 25.0592 2.47663C24.9696 2.39553 24.898 2.29722 24.8488 2.18782C24.7997 2.07842 24.774 1.96027 24.7734 1.84072C24.7729 1.72182 24.7981 1.60416 24.8473 1.49551C24.8966 1.38685 24.9688 1.28968 25.0592 1.21042C25.1476 1.12632 25.2523 1.06044 25.3671 1.01666C25.482 0.972875 25.6046 0.952078 25.7277 0.955494C25.975 0.948213 26.2152 1.03679 26.3963 1.20201C26.4865 1.27898 26.5587 1.37414 26.6081 1.48098C26.6574 1.58783 26.6826 1.70384 26.682 1.82111C26.6849 1.94204 26.6632 2.06232 26.618 2.17489C26.5729 2.28747 26.5053 2.39005 26.4191 2.47663C26.3297 2.56654 26.2218 2.63676 26.1026 2.68264C25.9834 2.72853 25.8556 2.74902 25.7277 2.74276ZM25.0792 14.0883V4.79616H26.3591V14.0883H25.0792Z" fill="#051226"/>
<path d="M32.478 14.1776C31.7252 14.1819 30.9762 14.0713 30.2581 13.8498C29.661 13.6827 29.103 13.403 28.6152 13.0262L29.1867 12.0346C29.6388 12.3527 30.1379 12.6011 30.6666 12.7713C31.2787 12.9782 31.922 13.0824 32.5694 13.0795C33.4723 13.0795 34.1218 12.9413 34.518 12.6649C34.7067 12.5435 34.8607 12.3769 34.9652 12.1808C35.0697 11.9846 35.1213 11.7655 35.1151 11.5443C35.123 11.394 35.0971 11.2439 35.0394 11.1045C34.9816 10.9651 34.8934 10.8398 34.7808 10.7375C34.5268 10.5277 34.2281 10.3765 33.9065 10.2949C33.5078 10.1882 33.1034 10.1031 32.6951 10.04C32.2494 9.96715 31.8095 9.88591 31.3695 9.79066C30.9525 9.70528 30.5489 9.56586 30.1695 9.37606C29.8174 9.20087 29.5157 8.94175 29.2924 8.62249C29.0552 8.24541 28.9388 7.80729 28.9581 7.36468C28.9522 6.87723 29.1043 6.40053 29.3924 6.00322C29.7154 5.57452 30.1564 5.24507 30.6638 5.05356C31.3177 4.80725 32.0149 4.69015 32.7151 4.70899C33.3365 4.7107 33.955 4.79169 34.5551 4.94991C35.0928 5.07509 35.6055 5.28715 36.0722 5.57741L35.5008 6.5859C35.0932 6.30406 34.6389 6.09364 34.158 5.964C33.6871 5.84203 33.2022 5.7799 32.7151 5.77911C31.858 5.77911 31.2295 5.92198 30.8266 6.21332C30.64 6.33385 30.4871 6.49822 30.3818 6.69149C30.2765 6.88475 30.2222 7.10076 30.2238 7.31986C30.2138 7.47511 30.2382 7.63064 30.2954 7.77573C30.3526 7.92082 30.4413 8.05201 30.5552 8.16027C30.8122 8.37748 31.1145 8.53713 31.4409 8.6281C31.8367 8.74875 32.2405 8.84236 32.6494 8.90823C33.0894 8.97827 33.5294 9.06511 33.9694 9.16596C34.3862 9.25759 34.7915 9.39381 35.178 9.57216C35.5337 9.73253 35.8394 9.98298 36.0636 10.2977C36.3017 10.664 36.4185 11.0936 36.3979 11.5275C36.4073 12.0315 36.2455 12.5243 35.9379 12.9282C35.5888 13.3512 35.1255 13.6696 34.6008 13.847C33.9195 14.0823 33.2002 14.1943 32.478 14.1776Z" fill="#051226"/>
<path d="M43.5843 4.7061C44.2869 4.69222 44.9828 4.84098 45.6157 5.14031C46.2008 5.43081 46.6798 5.8917 46.9871 6.45975C47.3437 7.15344 47.5148 7.92459 47.4843 8.70084V14.0879H46.2014V8.8129C46.2014 7.83522 45.95 7.09286 45.4529 6.59142C45.1736 6.33165 44.8428 6.13096 44.481 6.00181C44.1193 5.87266 43.7343 5.8178 43.3501 5.84065C42.7372 5.82754 42.1309 5.96629 41.5872 6.24405C41.0979 6.50778 40.7 6.90867 40.4444 7.39541C40.1594 7.95774 40.0201 8.58023 40.0387 9.20789V14.0879H38.7559V0.955078H40.0387V7.34498L39.7844 6.86595C40.0809 6.20008 40.5877 5.64522 41.2301 5.28318C41.9472 4.88559 42.7608 4.68615 43.5843 4.7061Z" fill="#051226"/>
<path d="M51.0586 14.0877V1.69727H52.5386L58.207 11.0622H57.427L63.0241 1.69727H64.504L64.5097 14.0877H62.7755L62.7584 4.36976H63.1726L58.1899 12.5834H57.3585L52.3386 4.36976H52.79V14.0877H51.0586Z" fill="#051226"/>
<path d="M70.1242 14.1942C69.4828 14.2078 68.8459 14.0875 68.2556 13.8413C67.7565 13.6351 67.3275 13.2941 67.0185 12.858C66.729 12.4382 66.5774 11.9416 66.5842 11.4349C66.5775 10.95 66.706 10.4725 66.9557 10.0538C67.2409 9.60586 67.6642 9.25854 68.1642 9.06214C68.8848 8.78481 69.6564 8.65792 70.4299 8.68956H73.4641V9.91096H70.5013C69.6366 9.91096 69.0537 10.0529 68.7528 10.3368C68.6079 10.4667 68.4927 10.6252 68.4149 10.8019C68.3371 10.9787 68.2984 11.1696 68.3013 11.3621C68.2949 11.5768 68.342 11.7899 68.4386 11.9827C68.5352 12.1755 68.6783 12.3423 68.8556 12.4686C69.3133 12.7704 69.8592 12.917 70.4099 12.886C71.0102 12.9001 71.603 12.7528 72.1241 12.4602C72.6113 12.179 72.9846 11.7417 73.1812 11.222L73.5241 12.3902C73.2878 12.9539 72.8598 13.4202 72.3127 13.7096C71.6392 14.0566 70.8844 14.2237 70.1242 14.1942ZM73.2669 14.0878V12.1072L73.1784 11.7346V8.3534C73.1987 8.04458 73.1519 7.73504 73.0411 7.44528C72.9303 7.15551 72.758 6.89214 72.5355 6.67258C72.1098 6.27759 71.467 6.0787 70.6127 6.0787C70.0474 6.08101 69.4864 6.17568 68.9528 6.35883C68.4538 6.51955 67.9891 6.76828 67.5814 7.09279L66.8557 5.82097C67.3843 5.41437 67.9875 5.11101 68.6328 4.92734C69.3391 4.72043 70.0727 4.6166 70.8099 4.61919C72.1222 4.61919 73.1336 4.93201 73.8441 5.55764C74.5545 6.18328 74.9088 7.13854 74.9069 8.42343V14.0878H73.2669Z" fill="#051226"/>
<path d="M81.372 13.6993C80.5096 13.7197 79.6558 13.527 78.8892 13.1391C78.1736 12.769 77.5741 12.2151 77.155 11.5367C76.7182 10.8205 76.4964 9.99813 76.515 9.16392C76.4945 8.32774 76.7164 7.50302 77.155 6.78557C77.5748 6.11194 78.1745 5.56366 78.8892 5.2C79.6569 4.81504 80.5099 4.62255 81.372 4.63973C82.1458 4.63074 82.9112 4.79657 83.6091 5.12436C84.2884 5.4535 84.8516 5.97452 85.2262 6.62029C85.6552 7.40221 85.8633 8.2823 85.8291 9.16953C85.8607 10.0476 85.6526 10.918 85.2262 11.6908C84.849 12.3387 84.2869 12.8645 83.6091 13.2035C82.9145 13.5415 82.1474 13.7115 81.372 13.6993ZM81.5863 17.6212C80.7215 17.623 79.8611 17.5012 79.0321 17.2599C78.2972 17.0592 77.6151 16.7057 77.0321 16.2234L77.8607 14.9151C78.3454 15.3126 78.9029 15.6159 79.5035 15.8088C80.1606 16.0268 80.8497 16.1375 81.5434 16.1365C82.6748 16.1365 83.5053 15.876 84.0348 15.3549C84.5643 14.8339 84.83 14.0439 84.8319 12.985V11.0072L85.0119 9.14712L84.9205 7.27301V4.70696H86.5633V12.8141C86.5633 14.4669 86.1424 15.6808 85.3005 16.4559C84.4586 17.2309 83.2205 17.6222 81.5863 17.6296V17.6212ZM81.5691 12.2062C82.159 12.2163 82.7422 12.0825 83.2663 11.8168C83.7481 11.5673 84.1512 11.1934 84.4319 10.7355C84.719 10.2552 84.8653 9.70652 84.8548 9.14992C84.8665 8.59141 84.7201 8.04063 84.4319 7.55875C84.1532 7.10136 83.7494 6.72967 83.2663 6.48583C82.7403 6.22643 82.1578 6.09662 81.5691 6.10764C80.975 6.09602 80.3867 6.22578 79.8549 6.48583C79.3681 6.72776 78.9611 7.09971 78.6806 7.55875C78.3924 8.04063 78.2461 8.59141 78.2578 9.14992C78.2457 9.70936 78.3921 10.2611 78.6806 10.7439C78.963 11.2035 79.3694 11.5777 79.8549 11.8252C80.3848 12.0916 80.9737 12.2254 81.5691 12.2146V12.2062Z" fill="#051226"/>
<path d="M93.8828 4.62073C94.5975 4.6052 95.3056 4.75693 95.9485 5.06334C96.5461 5.35835 97.0353 5.82826 97.3485 6.40799C97.7099 7.1153 97.8839 7.9005 97.8542 8.6911V14.0893H96.1199V8.8872C96.1199 7.97769 95.8942 7.29322 95.4428 6.8338C95.1923 6.59486 94.8936 6.40989 94.5659 6.29073C94.2382 6.17158 93.8888 6.12087 93.54 6.14186C92.9821 6.12855 92.4295 6.25077 91.9314 6.49764C91.4781 6.72918 91.1096 7.09342 90.8772 7.53974C90.6124 8.0739 90.4849 8.66344 90.5057 9.25698V14.0893H88.7715V4.70757H90.4343V7.22879L90.1629 6.55647C90.4774 5.94173 90.9825 5.44056 91.6057 5.12497C92.3102 4.77383 93.0928 4.60052 93.8828 4.62073Z" fill="#051226"/>
<path d="M103.649 14.1952C102.904 14.2117 102.166 14.0603 101.491 13.7526C100.878 13.4649 100.373 12.9942 100.049 12.408C99.6822 11.6991 99.5052 10.9107 99.5343 10.1165V4.70703H101.266V9.91196C101.266 10.8345 101.491 11.5246 101.943 11.9822C102.193 12.2238 102.491 12.4115 102.819 12.5331C103.148 12.6547 103.498 12.7075 103.849 12.6881C104.396 12.7017 104.937 12.5762 105.42 12.3239C105.866 12.0819 106.225 11.7112 106.448 11.2622C106.701 10.7373 106.824 10.1616 106.808 9.5814V4.70703H108.543V14.0888H106.9V11.5676L107.171 12.2399C106.867 12.8553 106.375 13.3625 105.763 13.691C105.114 14.0346 104.386 14.2083 103.649 14.1952Z" fill="#051226"/>
<path d="M113.868 14.1957C113.101 14.199 112.338 14.0923 111.603 13.8791C110.998 13.7185 110.426 13.4549 109.914 13.1003L110.637 11.7529C111.107 12.0524 111.618 12.2854 112.154 12.4448C112.749 12.6311 113.37 12.7256 113.994 12.7249C114.8 12.7249 115.383 12.6129 115.737 12.3888C115.905 12.295 116.044 12.1587 116.14 11.9941C116.236 11.8295 116.285 11.6427 116.282 11.4531C116.288 11.321 116.262 11.1895 116.206 11.0693C116.149 10.949 116.065 10.8435 115.96 10.7612C115.704 10.5802 115.412 10.4542 115.103 10.3914C114.745 10.3074 114.351 10.2345 113.92 10.1701C113.488 10.1057 113.063 10.0216 112.62 9.92078C112.205 9.82939 111.804 9.68728 111.425 9.49777C111.077 9.3209 110.782 9.05833 110.568 8.7358C110.334 8.34159 110.222 7.88892 110.245 7.43317C110.234 6.899 110.405 6.37638 110.731 5.94845C111.088 5.49952 111.568 5.15867 112.114 4.96517C112.792 4.72139 113.512 4.60452 114.234 4.6206C114.876 4.62205 115.515 4.69632 116.14 4.84191C116.698 4.95617 117.23 5.16878 117.711 5.46941L116.957 6.80566C116.543 6.54071 116.085 6.35093 115.603 6.24539C115.141 6.13996 114.668 6.08639 114.194 6.08571C113.605 6.0461 113.016 6.17143 112.497 6.44709C112.326 6.53895 112.184 6.67336 112.083 6.8367C111.983 7.00003 111.929 7.18648 111.925 7.37714C111.922 7.51633 111.953 7.65422 112.015 7.77941C112.077 7.90461 112.169 8.0135 112.283 8.09709C112.539 8.28148 112.83 8.41386 113.14 8.48648C113.529 8.587 113.924 8.66649 114.323 8.7246C114.757 8.78903 115.18 8.87307 115.623 8.97112C116.032 9.06375 116.429 9.20387 116.805 9.38852C117.15 9.56157 117.445 9.81685 117.662 10.1309C117.905 10.5161 118.022 10.9647 117.997 11.4167C118.008 11.9497 117.829 12.4699 117.491 12.8874C117.112 13.3288 116.618 13.6617 116.062 13.8511C115.358 14.0949 114.615 14.2116 113.868 14.1957Z" fill="#051226"/>
</svg>
