<svg width="34" height="35" viewBox="0 0 34 35" fill="none" xmlns="http://www.w3.org/2000/svg">
<rect y="0.75" width="34" height="34" rx="17" fill="#FCA0CB"/>
<path d="M20.2175 16.9082L15.8264 21.2993C15.6975 21.4282 15.5227 21.5007 15.3404 21.5007H14.25C13.8703 21.5007 13.5625 21.1929 13.5625 20.8132V19.7228C13.5626 19.5403 13.6341 19.3651 13.7619 19.2347L18.595 14.2916C19.0938 13.7814 19.776 13.492 20.4894 13.488C21.2029 13.484 21.8883 13.7657 22.3928 14.2703L22.4423 14.3198C22.9575 14.8309 23.2463 15.5272 23.2443 16.2529C23.2422 16.9786 22.9494 17.6733 22.4313 18.1815C20.8101 19.7689 18.5895 21.9785 17.3176 23.2476C16.6731 23.8902 15.8001 24.2509 14.8901 24.2507H12.875C11.7359 24.2507 10.8125 23.3273 10.8125 22.1882V20.1745C10.8125 19.263 11.1746 18.3888 11.819 17.7442L16.0925 13.4707" stroke="white" stroke-linecap="round" stroke-linejoin="round"/>
</svg>
