<svg width="24" height="24" viewBox="0 0 24 24" fill="none" xmlns="http://www.w3.org/2000/svg">
<path fill-rule="evenodd" clip-rule="evenodd" d="M6.19531 6.19531H9.99931V9.99931H6.19531V6.19531Z" stroke="#00CCC4" stroke-width="1.5" stroke-linecap="round" stroke-linejoin="round"/>
<path fill-rule="evenodd" clip-rule="evenodd" d="M6.11914 14.1191H9.99914V17.9991H6.11914V14.1191Z" stroke="#00CCC4" stroke-width="1.5" stroke-linecap="round" stroke-linejoin="round"/>
<path d="M14 16V14" stroke="#00CCC4" stroke-width="1.5" stroke-linecap="round" stroke-linejoin="round"/>
<path d="M17.8008 17.8008H15.8008" stroke="#00CCC4" stroke-width="1.5" stroke-linecap="round" stroke-linejoin="round"/>
<path fill-rule="evenodd" clip-rule="evenodd" d="M17.8789 9.87891H13.9989V5.99891H17.8789V9.87891Z" stroke="#00CCC4" stroke-width="1.5" stroke-linecap="round" stroke-linejoin="round"/>
<path d="M21.4995 7.978V4.5C21.4995 3.395 20.6045 2.5 19.4995 2.5H16.0215" stroke="#00CCC4" stroke-width="1.5" stroke-linecap="round" stroke-linejoin="round"/>
<path d="M16.3008 14H17.8008" stroke="#00CCC4" stroke-width="1.5" stroke-linecap="round" stroke-linejoin="round"/>
<path d="M7.978 2.5H4.5C3.395 2.5 2.5 3.395 2.5 4.5V7.978" stroke="#00CCC4" stroke-width="1.5" stroke-linecap="round" stroke-linejoin="round"/>
<path d="M2.5 16.0215V19.4995C2.5 20.6045 3.395 21.4995 4.5 21.4995H7.978" stroke="#00CCC4" stroke-width="1.5" stroke-linecap="round" stroke-linejoin="round"/>
<path d="M16.0215 21.4995H19.4995C20.6045 21.4995 21.4995 20.6045 21.4995 19.4995V16.0215" stroke="#00CCC4" stroke-width="1.5" stroke-linecap="round" stroke-linejoin="round"/>
</svg>
