<svg width="24" height="24" viewBox="0 0 24 24" fill="none" xmlns="http://www.w3.org/2000/svg">
<path d="M5.58203 9.25V6.5C5.58203 4.98122 6.81325 3.75 8.33203 3.75H18.4154C19.9341 3.75 21.1654 4.98122 21.1654 6.5V17.5C21.1654 19.0188 19.9341 20.25 18.4154 20.25H15.6654" stroke="#00CCC4" stroke-width="1.5" stroke-linecap="round" stroke-linejoin="round"/>
<path d="M17.5013 12.0013H15.668" stroke="#00CCC4" stroke-width="1.5" stroke-linecap="round" stroke-linejoin="round"/>
<path d="M17.5 8.33333H9.25" stroke="#00CCC4" stroke-width="1.5" stroke-linecap="round" stroke-linejoin="round"/>
<path d="M17.5013 15.6654H15.668" stroke="#00CCC4" stroke-width="1.5" stroke-linecap="round" stroke-linejoin="round"/>
<path fill-rule="evenodd" clip-rule="evenodd" d="M2.83203 14.0167V18.2333C2.83203 19.3471 3.73492 20.25 4.8487 20.25H10.8987C12.0125 20.25 12.9154 19.3471 12.9154 18.2333V14.0167C12.9154 13.4818 12.7029 12.9689 12.3247 12.5907C11.9465 12.2125 11.4336 12 10.8987 12H4.8487C3.73492 12 2.83203 12.9029 2.83203 14.0167Z" stroke="#00CCC4" stroke-width="1.5" stroke-linecap="round" stroke-linejoin="round"/>
<path d="M5.58203 15.207L7.29854 15.9976C7.66358 16.1657 8.08391 16.1657 8.44895 15.9976L10.1654 15.207" stroke="#00CCC4" stroke-width="1.5" stroke-linecap="round" stroke-linejoin="round"/>
</svg>
