<svg width="13" height="15" viewBox="0 0 13 15" fill="none" xmlns="http://www.w3.org/2000/svg">
<g clip-path="url(#clip0_1285_849)">
<path d="M12.1909 12.2539C12.1284 12.693 12.0108 13.1223 11.841 13.5318L7.4375 14.504C7.50048 14.0652 7.61821 13.636 7.78791 13.2266L12.1909 12.2539Z" fill="#051226"/>
<path d="M12.3628 12.2788C12.2982 12.7326 12.1769 13.1767 12.0014 13.5999L11.9667 13.6836L11.8786 13.7032L7.47507 14.6748L7.23047 14.7295L7.26602 14.4791C7.33109 14.0257 7.45292 13.5819 7.62826 13.1589L7.66296 13.0752L7.75098 13.0555L12.3983 12.0293L12.3628 12.2788ZM7.78822 13.2264L7.67057 13.5375C7.56298 13.8513 7.48506 14.1749 7.43783 14.5039L11.8414 13.5323C12.0112 13.1229 12.1284 12.6931 12.1909 12.254L7.78822 13.2264Z" fill="#051226"/>
<path d="M8.52598 9.93227L12.1875 9.12364C12.1243 9.56298 12.0064 9.99264 11.8366 10.4026L7.40416 11.3819V8.2508L5.57289 8.65537V10.5356C5.57334 10.6528 5.53963 10.7675 5.47589 10.8657L4.70956 12.0458C4.54549 12.2984 4.28903 12.4761 3.99553 12.5406L0.0546875 13.4109C0.117601 12.9718 0.23533 12.5425 0.405098 12.133L4.4536 11.2392V8.90199L0.751445 9.71724C0.814079 9.27821 0.931641 8.84885 1.10135 8.43933L4.4531 7.69948V1.53105C4.77378 1.13453 5.15233 0.788897 5.57593 0.505859V7.4544L7.40771 7.04982V2.2979C7.72714 1.90058 8.10468 1.55407 8.5275 1.27016V6.80117L12.189 5.99305C12.1261 6.43208 12.0084 6.86143 11.8386 7.27096L8.52699 8.00215L8.52598 9.93227Z" fill="#051226"/>
<path d="M5.74928 7.23804L7.23464 6.90991V2.23755L7.27357 2.18884C7.60401 1.77784 7.99492 1.41949 8.43223 1.12585L8.70137 0.944702V6.58435L12.152 5.82385L12.3965 5.76917L12.361 6.01953C12.296 6.47313 12.1741 6.91663 11.9988 7.33972L11.9641 7.42346L11.876 7.44312L8.69967 8.1438V9.71606L12.3957 8.90002L12.3593 9.15039C12.294 9.60419 12.1724 10.0481 11.9971 10.4714L11.9624 10.5552L11.8743 10.5748L7.44115 11.5541L7.23125 11.6011V8.46936L5.74674 8.79663V10.5364L5.73913 10.6492C5.72852 10.7237 5.70703 10.7962 5.67565 10.8645L5.62148 10.9628L4.85469 12.1428C4.68923 12.3975 4.44264 12.5866 4.15729 12.6794L4.03288 12.7128L-0.152344 13.6373L-0.116797 13.387C-0.0517861 12.9334 0.0700688 12.4898 0.245443 12.0668L0.280143 11.983L0.368164 11.9634L4.28086 11.0995V9.12048L0.544206 9.94336L0.580599 9.69385C0.645324 9.24016 0.766636 8.79596 0.941992 8.3728L0.976693 8.28906L1.06471 8.26941L4.28001 7.56018V1.47021L4.31895 1.42151C4.65068 1.01132 5.04287 0.653823 5.48099 0.361084L5.74928 0.181641V7.23804ZM4.45352 7.70117L1.10195 8.44031L0.98431 8.75134C0.876705 9.06546 0.798541 9.38933 0.751563 9.71863L4.45352 8.90344V11.2405L0.405404 12.1343L0.28776 12.4453C0.180136 12.7593 0.102183 13.0834 0.055013 13.4126L3.99564 12.5419C4.25235 12.4855 4.48095 12.3425 4.64395 12.1385L4.70996 12.0471L5.47591 10.8671C5.52367 10.7935 5.55502 10.7106 5.56732 10.6244L5.57324 10.5372V8.65649L7.40475 8.25232V11.3832L11.8371 10.4039C12.0069 9.99402 12.1243 9.56409 12.1875 9.12476L8.52617 9.93396L8.52702 8.00366L11.8388 7.27222C12.0085 6.8628 12.1263 6.43364 12.1892 5.99475L8.52786 6.80225V1.27112C8.1051 1.55499 7.72754 1.90182 7.40814 2.29907V7.0509L5.57663 7.45593V0.507202C5.15302 0.79024 4.7742 1.13607 4.45352 1.53259V7.70117Z" fill="#051226"/>
</g>
<defs>
<clipPath id="clip0_1285_849">
<rect width="12.1333" height="14" fill="white" transform="translate(0 0.5)"/>
</clipPath>
</defs>
</svg>
