<svg width="18" height="18" viewBox="0 0 18 18" fill="none" xmlns="http://www.w3.org/2000/svg">
<g clip-path="url(#clip0_2394_20185)">
<path d="M13.9358 1.60567L9.237 0.0389189C9.08316 -0.0123219 8.91685 -0.0123219 8.763 0.0389189L4.06425 1.60567C3.31718 1.85383 2.66731 2.33111 2.20698 2.9697C1.74666 3.60829 1.49928 4.37571 1.5 5.16292V9.00067C1.5 14.6729 8.4 17.8057 8.6955 17.9362C8.79137 17.9788 8.8951 18.0008 9 18.0008C9.1049 18.0008 9.20864 17.9788 9.3045 17.9362C9.6 17.8057 16.5 14.6729 16.5 9.00067V5.16292C16.5007 4.37571 16.2533 3.60829 15.793 2.9697C15.3327 2.33111 14.6828 1.85383 13.9358 1.60567V1.60567ZM12.5385 7.28842L9.3345 10.4924C9.20339 10.6244 9.04736 10.729 8.87548 10.8002C8.7036 10.8714 8.51929 10.9078 8.33325 10.9072H8.3085C8.11867 10.9043 7.9314 10.8629 7.75801 10.7855C7.58463 10.7082 7.42873 10.5965 7.29975 10.4572L5.57025 8.65717C5.49535 8.58768 5.43544 8.50361 5.39419 8.41013C5.35294 8.31666 5.33123 8.21574 5.33039 8.11357C5.32954 8.01139 5.34958 7.91013 5.38928 7.81598C5.42897 7.72183 5.48749 7.63679 5.56123 7.56607C5.63497 7.49535 5.72238 7.44044 5.81811 7.40471C5.91383 7.36898 6.01585 7.35319 6.11789 7.3583C6.21994 7.36342 6.31986 7.38933 6.41154 7.43444C6.50321 7.47956 6.5847 7.54293 6.651 7.62067L8.334 9.37567L11.475 6.22567C11.6165 6.08905 11.8059 6.01346 12.0026 6.01516C12.1992 6.01687 12.3873 6.09575 12.5264 6.23481C12.6654 6.37386 12.7443 6.56197 12.746 6.75862C12.7477 6.95527 12.6721 7.14472 12.5355 7.28617L12.5385 7.28842Z" fill="#051226"/>
</g>
<defs>
<clipPath id="clip0_2394_20185">
<rect width="18" height="18" fill="white"/>
</clipPath>
</defs>
</svg>
