<svg width="32" height="32" viewBox="0 0 32 32" fill="none" xmlns="http://www.w3.org/2000/svg">
<path d="M2.66699 25.3333C2.66699 22.4 5.06699 20 8.00033 20H13.3337C16.267 20 18.667 22.4 18.667 25.3333" stroke="#051226" stroke-width="2" stroke-linecap="round" stroke-linejoin="round"/>
<path d="M13.9996 8.00036C15.8662 9.86703 15.8662 12.8004 13.9996 14.5337C12.1329 16.267 9.19958 16.4004 7.46624 14.5337C5.73291 12.667 5.59958 9.86703 7.33291 8.00036C9.06624 6.1337 12.1329 6.26703 13.9996 8.00036" stroke="#051226" stroke-width="2" stroke-linecap="round" stroke-linejoin="round"/>
<path d="M21.333 18.667H25.333C27.5997 18.667 29.333 20.4003 29.333 22.667" stroke="#051226" stroke-width="2" stroke-linecap="round" stroke-linejoin="round"/>
<path d="M25.7335 8.93369C27.0669 10.267 27.0669 12.4004 25.7335 13.6004C24.4002 14.8004 22.2669 14.9337 21.0669 13.6004C19.8669 12.267 19.7335 10.1337 21.0669 8.93369C22.2669 7.73369 24.4002 7.73369 25.7335 8.93369" stroke="#051226" stroke-width="2" stroke-linecap="round" stroke-linejoin="round"/>
</svg>
