<svg width="36" height="36" viewBox="0 0 36 36" fill="none" xmlns="http://www.w3.org/2000/svg">
<rect width="36" height="36" rx="18" fill="#433957"/>
<path d="M13.8333 14.1667C13.5572 14.1667 13.3333 14.3905 13.3333 14.6667C13.3333 14.9428 13.5572 15.1667 13.8333 15.1667V14.6667V14.1667ZM22.1667 15.1667C22.4428 15.1667 22.6667 14.9428 22.6667 14.6667C22.6667 14.3905 22.4428 14.1667 22.1667 14.1667V14.6667V15.1667ZM13.8333 17.5C13.5572 17.5 13.3333 17.7239 13.3333 18C13.3333 18.2761 13.5572 18.5 13.8333 18.5V18V17.5ZM20.5 18.5C20.7761 18.5 21 18.2761 21 18C21 17.7239 20.7761 17.5 20.5 17.5V18V18.5ZM13.8333 20.8333C13.5572 20.8333 13.3333 21.0572 13.3333 21.3333C13.3333 21.6095 13.5572 21.8333 13.8333 21.8333V21.3333V20.8333ZM15.5 21.8333C15.7761 21.8333 16 21.6095 16 21.3333C16 21.0572 15.7761 20.8333 15.5 20.8333V21.3333V21.8333ZM20.1464 23.3535C20.3417 23.5488 20.6583 23.5488 20.8536 23.3535C21.0488 23.1583 21.0488 22.8417 20.8536 22.6464L20.5 23L20.1464 23.3535ZM19.1869 20.9798C18.9916 20.7845 18.675 20.7845 18.4798 20.9798C18.2845 21.175 18.2845 21.4916 18.4798 21.6869L18.8333 21.3333L19.1869 20.9798ZM23.3536 20.8536C23.5488 20.6583 23.5488 20.3417 23.3536 20.1464C23.1583 19.9512 22.8417 19.9512 22.6464 20.1464L23 20.5L23.3536 20.8536ZM20.1464 22.6464C19.9512 22.8417 19.9512 23.1583 20.1464 23.3536C20.3417 23.5488 20.6583 23.5488 20.8536 23.3536L20.5 23L20.1464 22.6464ZM13.8333 14.6667V15.1667H22.1667V14.6667V14.1667H13.8333V14.6667ZM13.8333 18V18.5H20.5V18V17.5H13.8333V18ZM13.8333 21.3333V21.8333H15.5V21.3333V20.8333H13.8333V21.3333ZM23.8333 25.5V25H12.1667V25.5V26H23.8333V25.5ZM12.1667 25.5V25C11.522 25 11 24.478 11 23.8333H10.5H10C10 25.0303 10.9697 26 12.1667 26V25.5ZM10.5 23.8333H11V12.1667H10.5H10V23.8333H10.5ZM10.5 12.1667H11C11 11.522 11.522 11 12.1667 11V10.5V10C10.9697 10 10 10.9697 10 12.1667H10.5ZM12.1667 10.5V11H23.8333V10.5V10H12.1667V10.5ZM23.8333 10.5V11C24.478 11 25 11.522 25 12.1667H25.5H26C26 10.9697 25.0303 10 23.8333 10V10.5ZM25.5 12.1667H25V23.8333H25.5H26V12.1667H25.5ZM25.5 23.8333H25C25 24.478 24.478 25 23.8333 25V25.5V26C25.0303 26 26 25.0303 26 23.8333H25.5ZM20.5 23L20.8536 22.6464L19.1869 20.9798L18.8333 21.3333L18.4798 21.6869L20.1464 23.3535L20.5 23ZM23 20.5L22.6464 20.1464L20.1464 22.6464L20.5 23L20.8536 23.3536L23.3536 20.8536L23 20.5Z" fill="white"/>
</svg>
