<svg width="34" height="34" viewBox="0 0 34 34" fill="none" xmlns="http://www.w3.org/2000/svg">
<rect width="34" height="34" rx="17" fill="#CBCBCB"/>
<path d="M21.6693 22.9993H12.3359" stroke="white" stroke-linecap="round" stroke-linejoin="round"/>
<path d="M17 17L14.0667 19.2C13.3952 19.7036 13 20.494 13 21.3333V22.3333C13 22.7015 13.2985 23 13.6667 23H20.3333C20.7015 23 21 22.7015 21 22.3333V21.3333C21 20.494 20.6048 19.7036 19.9333 19.2L17 17" stroke="white" stroke-linecap="round" stroke-linejoin="round"/>
<path d="M12.3359 10.9993H21.6693" stroke="white" stroke-linecap="round" stroke-linejoin="round"/>
<path d="M17 17L19.9333 14.8C20.6048 14.2964 21 13.506 21 12.6667V11.6667C21 11.2985 20.7015 11 20.3333 11H13.6667C13.2985 11 13 11.2985 13 11.6667V12.6667C13 13.506 13.3952 14.2964 14.0667 14.8L17 17" stroke="white" stroke-linecap="round" stroke-linejoin="round"/>
</svg>
