<svg width="44" height="44" viewBox="0 0 44 44" fill="none" xmlns="http://www.w3.org/2000/svg">
<rect x="-0.000976562" width="44.0006" height="44" rx="22" fill="white"/>
<path d="M18.6658 12H13.1102C12.4965 12 11.999 12.4975 11.999 13.1111V30.8889C11.999 31.5025 12.4965 32 13.1102 32H18.6658C19.2795 32 19.7769 31.5025 19.7769 30.8889V13.1111C19.7769 12.4975 19.2795 12 18.6658 12Z" stroke="#051226" stroke-width="2" stroke-linecap="round" stroke-linejoin="round"/>
<path d="M30.8885 12H25.3328C24.7191 12 24.2217 12.4975 24.2217 13.1111V18.6667C24.2217 19.2803 24.7191 19.7778 25.3328 19.7778H30.8885C31.5021 19.7778 31.9996 19.2803 31.9996 18.6667V13.1111C31.9996 12.4975 31.5021 12 30.8885 12Z" stroke="#051226" stroke-width="2" stroke-linecap="round" stroke-linejoin="round"/>
<path d="M30.8885 24.2212H25.3328C24.7191 24.2212 24.2217 24.7187 24.2217 25.3323V30.8879C24.2217 31.5015 24.7191 31.999 25.3328 31.999H30.8885C31.5021 31.999 31.9996 31.5015 31.9996 30.8879V25.3323C31.9996 24.7187 31.5021 24.2212 30.8885 24.2212Z" stroke="#051226" stroke-width="2" stroke-linecap="round" stroke-linejoin="round"/>
</svg>
