<svg width="52" height="56" viewBox="0 0 52 56" fill="none" xmlns="http://www.w3.org/2000/svg">
<rect y="4" width="52" height="52" rx="26" fill="#F2F2F2"/>
<path fill-rule="evenodd" clip-rule="evenodd" d="M19.7355 28.5075C19.0732 22.5625 22.5417 18.3812 29.0463 16C25.0635 21.1748 32.442 26.7803 32.8494 32.1533C33.803 30.5241 34.3447 28.3503 34.4517 25.4427C39.329 33.1035 35.2847 45.6247 24.5514 43.8245C23.5659 43.6605 22.6168 43.3483 21.752 42.8835C17.8374 40.7917 15.5 36.2321 15.5 31.8776C15.5 29.1022 16.6858 26.6253 18.2197 24.6566C18.4246 26.5843 18.8615 28.0221 19.7355 28.5075Z" fill="#CDCDCD"/>
<path fill-rule="evenodd" clip-rule="evenodd" d="M23.2086 37.0957C22.1025 34.236 22.2549 29.6172 25.3525 27.9971C25.3752 33.3063 30.5985 33.9831 29.6312 39.6501C30.5234 38.6383 30.974 37.0205 31.0537 35.7422C32.4693 38.987 31.3587 41.5824 29.3399 42.904C23.2017 46.9235 17.917 38.7751 21.4311 34.3089C21.538 35.307 22.7579 36.8473 23.2086 37.0957Z" fill="#E3E3E2"/>
</svg>
