<svg width="34" height="34" viewBox="0 0 34 34" fill="none" xmlns="http://www.w3.org/2000/svg">
<rect width="34" height="34" rx="17" fill="#F98585"/>
<path fill-rule="evenodd" clip-rule="evenodd" d="M18.5 23.75H11.75C10.9212 23.75 10.25 23.0788 10.25 22.25V15.5C10.25 14.6712 10.9212 14 11.75 14H18.5C19.3288 14 20 14.6712 20 15.5V22.25C20 23.0788 19.3288 23.75 18.5 23.75Z" stroke="white" stroke-linecap="round" stroke-linejoin="round"/>
<path d="M13.3438 19.1819L14.5317 20.3699L17.1245 17.7764" stroke="white" stroke-linecap="round" stroke-linejoin="round"/>
<path d="M13.25 14V11.75C13.25 10.9212 13.9212 10.25 14.75 10.25H22.25C23.0788 10.25 23.75 10.9212 23.75 11.75V19.25C23.75 20.0788 23.0788 20.75 22.25 20.75H20" stroke="white" stroke-linecap="round" stroke-linejoin="round"/>
</svg>
