<svg width="34" height="34" viewBox="0 0 34 34" fill="none" xmlns="http://www.w3.org/2000/svg">
<rect width="34" height="34" rx="17" fill="#BEC3C7"/>
<path d="M15.5 21.5H18.5" stroke="white" stroke-linecap="round" stroke-linejoin="round"/>
<path fill-rule="evenodd" clip-rule="evenodd" d="M20.7342 10.25H13.2657C12.8517 10.25 12.5157 10.586 12.5157 11V12.7835C12.5157 13.0993 12.6155 13.4075 12.8007 13.6633L15.2157 17L12.8007 20.3368C12.6155 20.5925 12.5157 20.9007 12.5157 21.2165V23C12.5157 23.414 12.8517 23.75 13.2657 23.75H20.7335C21.1475 23.75 21.4835 23.414 21.4835 23V21.2435C21.4835 20.9105 21.3725 20.5873 21.1685 20.324L18.5907 17L21.1692 13.6752C21.3732 13.412 21.4842 13.0888 21.4842 12.7558V11C21.4842 10.586 21.1482 10.25 20.7342 10.25Z" stroke="white" stroke-linecap="round" stroke-linejoin="round"/>
</svg>
