<svg width="32" height="32" viewBox="0 0 32 32" fill="none" xmlns="http://www.w3.org/2000/svg">
<rect width="32" height="32" rx="16" fill="#F68C8E"/>
<path d="M23.85 15.1018C23.9991 15.036 24.1257 14.9279 24.2141 14.7908C24.3024 14.6538 24.3486 14.4938 24.3469 14.3307C24.3452 14.1677 24.2957 14.0087 24.2046 13.8735C24.1134 13.7383 23.9846 13.6328 23.8341 13.5701L16.6916 10.3168C16.4745 10.2178 16.2386 10.1665 16 10.1665C15.7613 10.1665 15.5254 10.2178 15.3083 10.3168L8.16662 13.5668C8.01826 13.6318 7.89205 13.7386 7.80343 13.8741C7.7148 14.0097 7.6676 14.1682 7.6676 14.3301C7.6676 14.4921 7.7148 14.6506 7.80343 14.7861C7.89205 14.9217 8.01826 15.0285 8.16662 15.0935L15.3083 18.3501C15.5254 18.4492 15.7613 18.5004 16 18.5004C16.2386 18.5004 16.4745 18.4492 16.6916 18.3501L23.85 15.1018Z" stroke="white" stroke-width="1.5" stroke-linecap="round" stroke-linejoin="round"/>
<path d="M24.3334 14.3335V19.3335" stroke="white" stroke-width="1.5" stroke-linecap="round" stroke-linejoin="round"/>
<path d="M11 16.4165V19.3332C11 19.9962 11.5268 20.6321 12.4645 21.1009C13.4021 21.5698 14.6739 21.8332 16 21.8332C17.3261 21.8332 18.5979 21.5698 19.5355 21.1009C20.4732 20.6321 21 19.9962 21 19.3332V16.4165" stroke="white" stroke-width="1.5" stroke-linecap="round" stroke-linejoin="round"/>
</svg>
