<svg width="18" height="18" viewBox="0 0 18 18" fill="none" xmlns="http://www.w3.org/2000/svg">
<path d="M6.08333 0.75H1.63889C1.14797 0.75 0.75 1.14797 0.75 1.63889V6.08333C0.75 6.57425 1.14797 6.97222 1.63889 6.97222H6.08333C6.57425 6.97222 6.97222 6.57425 6.97222 6.08333V1.63889C6.97222 1.14797 6.57425 0.75 6.08333 0.75Z" stroke="#BEC3C7" stroke-width="1.5" stroke-linecap="round" stroke-linejoin="round"/>
<path d="M15.8607 0.75H11.4162C10.9253 0.75 10.5273 1.14797 10.5273 1.63889V6.08333C10.5273 6.57425 10.9253 6.97222 11.4162 6.97222H15.8607C16.3516 6.97222 16.7496 6.57425 16.7496 6.08333V1.63889C16.7496 1.14797 16.3516 0.75 15.8607 0.75Z" stroke="#BEC3C7" stroke-width="1.5" stroke-linecap="round" stroke-linejoin="round"/>
<path d="M15.8607 10.5271H11.4162C10.9253 10.5271 10.5273 10.9251 10.5273 11.416V15.8604C10.5273 16.3514 10.9253 16.7493 11.4162 16.7493H15.8607C16.3516 16.7493 16.7496 16.3514 16.7496 15.8604V11.416C16.7496 10.9251 16.3516 10.5271 15.8607 10.5271Z" stroke="#BEC3C7" stroke-width="1.5" stroke-linecap="round" stroke-linejoin="round"/>
<path d="M6.08333 10.5271H1.63889C1.14797 10.5271 0.75 10.9251 0.75 11.416V15.8604C0.75 16.3514 1.14797 16.7493 1.63889 16.7493H6.08333C6.57425 16.7493 6.97222 16.3514 6.97222 15.8604V11.416C6.97222 10.9251 6.57425 10.5271 6.08333 10.5271Z" stroke="#BEC3C7" stroke-width="1.5" stroke-linecap="round" stroke-linejoin="round"/>
</svg>
