<svg width="33" height="33" viewBox="0 0 33 33" fill="none" xmlns="http://www.w3.org/2000/svg">
<path d="M4.10156 14.2246L13.7016 21.4246C15.1238 22.4913 17.0793 22.4913 18.5016 21.4246L28.1016 14.2246" stroke="#FAFBFC" stroke-width="1.5" stroke-linecap="round" stroke-linejoin="round"/>
<path fill-rule="evenodd" clip-rule="evenodd" d="M27.0562 12.2423L18.5336 5.7158C17.0985 4.61687 15.1048 4.61687 13.6697 5.7158L5.1469 12.2423C4.48796 12.7469 4.10155 13.5295 4.10156 14.3595V24.8916C4.10156 27.1007 5.89242 28.8916 8.10156 28.8916H24.1016C26.3107 28.8916 28.1016 27.1007 28.1016 24.8916V14.3594C28.1016 13.5295 27.7151 12.7469 27.0562 12.2423Z" stroke="#FAFBFC" stroke-width="1.5" stroke-linecap="round" stroke-linejoin="round"/>
<path d="M13.4349 12.8916L16.1016 10.8916" stroke="#FAFBFC" stroke-width="1.5" stroke-linecap="round" stroke-linejoin="round"/>
<path d="M18.7682 12.8916L16.1016 10.8916" stroke="#FAFBFC" stroke-width="1.5" stroke-linecap="round" stroke-linejoin="round"/>
<path d="M16.1016 16.2249V10.8916" stroke="#FAFBFC" stroke-width="1.5" stroke-linecap="round" stroke-linejoin="round"/>
</svg>
