<svg width="33" height="33" viewBox="0 0 33 33" fill="none" xmlns="http://www.w3.org/2000/svg">
<path d="M12.1012 2.70898H20.1012C23.704 2.70898 26.2401 3.47872 27.8776 5.11621C29.5149 6.75366 30.2847 9.28911 30.2848 12.8916V20.8916C30.2848 24.4944 29.5151 27.0305 27.8776 28.668C26.2401 30.3055 23.704 31.0752 20.1012 31.0752H12.1012C8.49871 31.0751 5.96326 30.3053 4.32581 28.668C2.68831 27.0305 1.91858 24.4944 1.91858 20.8916V12.8916C1.91863 9.28899 2.68836 6.75366 4.32581 5.11621C5.96325 3.47877 8.49859 2.70903 12.1012 2.70898ZM12.1012 4.4082C9.01746 4.40824 6.88261 4.95589 5.52405 6.31445C4.16548 7.67302 3.61784 9.80786 3.6178 12.8916V20.8916C3.6178 23.9755 4.16543 26.1111 5.52405 27.4697C6.88262 28.8282 9.01758 29.375 12.1012 29.375H20.1012C23.1851 29.375 25.3207 28.8283 26.6793 27.4697C28.0379 26.1111 28.5846 23.9755 28.5846 20.8916V12.8916C28.5846 9.80798 28.0378 7.67303 26.6793 6.31445C25.3207 4.95584 23.1851 4.4082 20.1012 4.4082H12.1012Z" fill="#FAFBFC" stroke="#051226" stroke-width="0.3"/>
<path d="M8.29883 12.833C8.53771 12.4237 9.05878 12.2903 9.45215 12.5264L9.4541 12.5273L16.0137 16.3271L16.0889 16.3711L16.1641 16.3271L22.6846 12.5537C23.092 12.3161 23.6132 12.4637 23.8389 12.8584C24.0659 13.2557 23.9264 13.7895 23.5342 14.0137V14.0146L16.5234 18.0654C16.3945 18.1357 16.2461 18.1806 16.1025 18.1807C15.9527 18.1807 15.8054 18.1468 15.6709 18.0684V18.0674L8.60352 13.9873C8.195 13.7482 8.06209 13.228 8.29785 12.835L8.29883 12.833Z" fill="#FAFBFC" stroke="#051226" stroke-width="0.3"/>
<path d="M16.1016 16.4824C16.5654 16.4824 16.9512 16.8682 16.9512 17.332V24.585C16.9512 25.0488 16.5654 25.4355 16.1016 25.4355C15.6377 25.4355 15.252 25.0488 15.252 24.585V17.332C15.252 16.8682 15.6377 16.4824 16.1016 16.4824Z" fill="#FAFBFC" stroke="#051226" stroke-width="0.3"/>
<path d="M14.0283 8.5166C15.2097 7.86171 16.9944 7.86169 18.1758 8.5166V8.51562L22.4424 10.8896C23.0539 11.2273 23.6029 11.8055 23.999 12.4824C24.3951 13.1593 24.6318 13.9234 24.6318 14.625V19.1445C24.6318 19.8388 24.3922 20.5999 23.9941 21.2773C23.6458 21.8701 23.1816 22.3898 22.665 22.7412L22.4414 22.8809L18.1758 25.2539L18.1748 25.2549C17.5894 25.5857 16.8559 25.7412 16.1016 25.7412C15.3493 25.7412 14.6143 25.5725 14.0264 25.2529L9.76172 22.8809L9.76074 22.8799C9.14938 22.5422 8.60109 21.9639 8.20508 21.2871C7.80907 20.6103 7.57227 19.846 7.57227 19.1445V14.625C7.57227 13.9307 7.81196 13.1696 8.20996 12.4922C8.60758 11.8156 9.15555 11.2331 9.76074 10.8887L9.76172 10.8896L14.0283 8.5166ZM16.1016 9.74121C15.648 9.74124 15.1929 9.82326 14.8555 10.0137L10.5898 12.3867C10.2318 12.584 9.9037 12.9512 9.66699 13.3555C9.43028 13.7598 9.27148 14.2232 9.27148 14.625V19.1445C9.27148 19.5528 9.43101 20.0159 9.66797 20.4189C9.90472 20.8216 10.2316 21.1846 10.5889 21.3818V21.3828L14.8545 23.7549V23.7559C15.191 23.946 15.6525 24.0351 16.1016 24.0352C16.5506 24.0352 17.0121 23.9459 17.3486 23.7559L17.3477 23.7549L21.6143 21.3818C21.9721 21.1845 22.2995 20.8181 22.5361 20.4141C22.7729 20.0098 22.9316 19.5464 22.9316 19.1445V14.625C22.9316 14.2167 22.7732 13.7537 22.5361 13.3506C22.2991 12.9476 21.9709 12.5838 21.6133 12.3867L17.3477 10.0137H17.3467C17.0093 9.82369 16.5547 9.74121 16.1016 9.74121Z" fill="#FAFBFC" stroke="#051226" stroke-width="0.3"/>
</svg>
