<svg width="32" height="32" viewBox="0 0 32 32" fill="none" xmlns="http://www.w3.org/2000/svg">
<rect width="32" height="32" rx="12" fill="#F68C8E"/>
<path d="M24.3332 14.7497V10.9997C24.3332 10.5576 24.1576 10.1337 23.845 9.82116C23.5325 9.5086 23.1085 9.33301 22.6665 9.33301H9.33317C8.89114 9.33301 8.46722 9.5086 8.15466 9.82116C7.8421 10.1337 7.6665 10.5576 7.6665 10.9997V20.9997C7.6665 21.9163 8.4165 22.6663 9.33317 22.6663H19.7498" stroke="white" stroke-width="1.5" stroke-linecap="round" stroke-linejoin="round"/>
<path d="M24.3332 11.833L16.8582 16.583C16.6009 16.7442 16.3034 16.8297 15.9998 16.8297C15.6962 16.8297 15.3988 16.7442 15.1415 16.583L7.6665 11.833" stroke="white" stroke-width="1.5" stroke-linecap="round" stroke-linejoin="round"/>
<path d="M22.6665 17.667V21.0003" stroke="white" stroke-width="1.5" stroke-linecap="round" stroke-linejoin="round"/>
<path d="M22.6665 24.333V24.3413" stroke="white" stroke-width="1.5" stroke-linecap="round" stroke-linejoin="round"/>
</svg>
