<svg width="32" height="32" viewBox="0 0 32 32" fill="none" xmlns="http://www.w3.org/2000/svg">
<rect width="32" height="32" rx="12" fill="#7CC5FA"/>
<path d="M22.6668 16.8331C22.6668 20.9997 19.7502 23.0831 16.2835 24.2914C16.102 24.3529 15.9048 24.35 15.7252 24.2831C12.2502 23.0831 9.3335 20.9997 9.3335 16.8331V10.9997C9.3335 10.7787 9.42129 10.5667 9.57757 10.4105C9.73385 10.2542 9.94582 10.1664 10.1668 10.1664C11.8335 10.1664 13.9168 9.16639 15.3668 7.89972C15.5434 7.74889 15.768 7.66602 16.0002 7.66602C16.2324 7.66602 16.457 7.74889 16.6335 7.89972C18.0918 9.17472 20.1668 10.1664 21.8335 10.1664C22.0545 10.1664 22.2665 10.2542 22.4228 10.4105C22.579 10.5667 22.6668 10.7787 22.6668 10.9997V16.8331Z" stroke="white" stroke-linecap="round" stroke-linejoin="round"/>
<path d="M11.3135 21.7587C11.6691 20.8022 12.3088 19.9774 13.1468 19.395C13.9848 18.8127 14.981 18.5007 16.0014 18.501C17.0219 18.5012 18.0179 18.8138 18.8556 19.3965C19.6932 19.9793 20.3326 20.8045 20.6876 21.7612" stroke="white" stroke-linecap="round" stroke-linejoin="round"/>
<path d="M15.9998 18.4997C17.8408 18.4997 19.3332 17.0073 19.3332 15.1663C19.3332 13.3254 17.8408 11.833 15.9998 11.833C14.1589 11.833 12.6665 13.3254 12.6665 15.1663C12.6665 17.0073 14.1589 18.4997 15.9998 18.4997Z" stroke="white" stroke-linecap="round" stroke-linejoin="round"/>
</svg>
