<svg width="24" height="24" viewBox="0 0 24 24" fill="none" xmlns="http://www.w3.org/2000/svg">
<path d="M11.2549 2.32324C11.2517 2.35142 11.25 2.38014 11.25 2.40918V12.0557C11.25 12.0654 11.2507 12.0753 11.251 12.085C11.2505 12.096 11.25 12.1071 11.25 12.1182C11.25 12.333 11.3416 12.5254 11.4863 12.6621C11.4955 12.6721 11.504 12.6828 11.5137 12.6924L17.9424 19.1211L18.2305 19.4414C16.5441 20.8549 14.3725 21.7089 12 21.709C6.63808 21.709 2.29102 17.3619 2.29102 12C2.29102 6.88875 6.24107 2.70373 11.2549 2.32324ZM21.668 12.8682C21.4809 14.9783 20.6187 16.8928 19.2988 18.3975L19.0029 18.0605L13.8105 12.8682H21.668ZM12.7441 2.32324C17.5498 2.68781 21.3758 6.5474 21.6855 11.3682H12.75V2.40918C12.75 2.3801 12.7474 2.35146 12.7441 2.32324Z" fill="#3FBDFF"/>
</svg>
