<svg width="50" height="50" viewBox="0 0 50 50" fill="none" xmlns="http://www.w3.org/2000/svg">
<rect width="50" height="50" rx="25" fill="#3FBDFF"/>
<g clip-path="url(#clip0_1_2074)">
<path d="M32.5833 14.1673H17.4167C15.9806 14.169 14.6039 14.7403 13.5884 15.7557C12.573 16.7712 12.0017 18.1479 12 19.584L12 30.4173C12.0017 31.8534 12.573 33.2301 13.5884 34.2456C14.6039 35.261 15.9806 35.8323 17.4167 35.834H32.5833C34.0194 35.8323 35.3961 35.261 36.4116 34.2456C37.427 33.2301 37.9983 31.8534 38 30.4173V19.584C37.9983 18.1479 37.427 16.7712 36.4116 15.7557C35.3961 14.7403 34.0194 14.169 32.5833 14.1673ZM17.4167 23.9173H19.5833C19.8707 23.9173 20.1462 24.0315 20.3494 24.2346C20.5525 24.4378 20.6667 24.7133 20.6667 25.0007C20.6667 25.288 20.5525 25.5635 20.3494 25.7667C20.1462 25.9699 19.8707 26.084 19.5833 26.084H17.4167C17.1293 26.084 16.8538 25.9699 16.6506 25.7667C16.4475 25.5635 16.3333 25.288 16.3333 25.0007C16.3333 24.7133 16.4475 24.4378 16.6506 24.2346C16.8538 24.0315 17.1293 23.9173 17.4167 23.9173ZM26.0833 31.5007H17.4167C17.1293 31.5007 16.8538 31.3865 16.6506 31.1834C16.4475 30.9802 16.3333 30.7046 16.3333 30.4173C16.3333 30.13 16.4475 29.8545 16.6506 29.6513C16.8538 29.4481 17.1293 29.334 17.4167 29.334H26.0833C26.3707 29.334 26.6462 29.4481 26.8494 29.6513C27.0525 29.8545 27.1667 30.13 27.1667 30.4173C27.1667 30.7046 27.0525 30.9802 26.8494 31.1834C26.6462 31.3865 26.3707 31.5007 26.0833 31.5007ZM32.5833 31.5007H30.4167C30.1293 31.5007 29.8538 31.3865 29.6506 31.1834C29.4475 30.9802 29.3333 30.7046 29.3333 30.4173C29.3333 30.13 29.4475 29.8545 29.6506 29.6513C29.8538 29.4481 30.1293 29.334 30.4167 29.334H32.5833C32.8707 29.334 33.1462 29.4481 33.3494 29.6513C33.5525 29.8545 33.6667 30.13 33.6667 30.4173C33.6667 30.7046 33.5525 30.9802 33.3494 31.1834C33.1462 31.3865 32.8707 31.5007 32.5833 31.5007ZM32.5833 26.084H23.9167C23.6293 26.084 23.3538 25.9699 23.1506 25.7667C22.9475 25.5635 22.8333 25.288 22.8333 25.0007C22.8333 24.7133 22.9475 24.4378 23.1506 24.2346C23.3538 24.0315 23.6293 23.9173 23.9167 23.9173H32.5833C32.8707 23.9173 33.1462 24.0315 33.3494 24.2346C33.5525 24.4378 33.6667 24.7133 33.6667 25.0007C33.6667 25.288 33.5525 25.5635 33.3494 25.7667C33.1462 25.9699 32.8707 26.084 32.5833 26.084Z" fill="white"/>
</g>
<defs>
<clipPath id="clip0_1_2074">
<rect width="26" height="26" fill="white" transform="translate(12 12)"/>
</clipPath>
</defs>
</svg>
