<svg width="33" height="33" viewBox="0 0 33 33" fill="none" xmlns="http://www.w3.org/2000/svg">
<path d="M2.76819 26.2249C2.76819 23.2916 5.16819 20.8916 8.10152 20.8916H13.4349C16.3682 20.8916 18.7682 23.2916 18.7682 26.2249" stroke="#FAFBFC" stroke-width="1.5" stroke-linecap="round" stroke-linejoin="round"/>
<path d="M14.1015 8.89148C15.9682 10.7581 15.9682 13.6915 14.1015 15.4248C12.2348 17.1581 9.30151 17.2915 7.56817 15.4248C5.83484 13.5581 5.70151 10.7581 7.43484 8.89148C9.16817 7.02481 12.2348 7.15814 14.1015 8.89148" stroke="#FAFBFC" stroke-width="1.5" stroke-linecap="round" stroke-linejoin="round"/>
<path d="M21.4349 19.5586H25.4349C27.7016 19.5586 29.4349 21.2919 29.4349 23.5586" stroke="#FAFBFC" stroke-width="1.5" stroke-linecap="round" stroke-linejoin="round"/>
<path d="M25.8349 9.8248C27.1682 11.1581 27.1682 13.2915 25.8349 14.4915C24.5015 15.6915 22.3682 15.8248 21.1682 14.4915C19.9682 13.1581 19.8349 11.0248 21.1682 9.8248C22.3682 8.6248 24.5015 8.6248 25.8349 9.8248" stroke="#FAFBFC" stroke-width="1.5" stroke-linecap="round" stroke-linejoin="round"/>
</svg>
