<svg width="15" height="15" viewBox="0 0 15 15" fill="none" xmlns="http://www.w3.org/2000/svg">
<g clip-path="url(#clip0_399_15553)">
<path d="M7.80589 2.593C7.80589 2.08242 7.39339 1.66992 6.88281 1.66992C6.37224 1.66992 5.95974 2.08242 5.95974 2.593V6.74684H1.80589C1.29531 6.74684 0.882812 7.15935 0.882812 7.66992C0.882812 8.1805 1.29531 8.593 1.80589 8.593H5.95974V12.7468C5.95974 13.2574 6.37224 13.6699 6.88281 13.6699C7.39339 13.6699 7.80589 13.2574 7.80589 12.7468V8.593H11.9597C12.4703 8.593 12.8828 8.1805 12.8828 7.66992C12.8828 7.15935 12.4703 6.74684 11.9597 6.74684H7.80589V2.593Z" fill="#FAFBFC"/>
</g>
<defs>
<clipPath id="clip0_399_15553">
<rect width="14" height="14" fill="white" transform="translate(0.101562 0.891602)"/>
</clipPath>
</defs>
</svg>
