<svg width="41" height="41" viewBox="0 0 41 41" fill="none" xmlns="http://www.w3.org/2000/svg">
<rect x="0.890625" y="0.891602" width="40" height="40" rx="20" fill="#E7FBFA"/>
<path d="M25.5725 18.2111L19.1829 24.6007C18.9953 24.7884 18.7409 24.8938 18.4756 24.8939H16.8889C16.3364 24.8939 15.8885 24.4459 15.8885 23.8934V22.3068C15.8886 22.0412 15.9927 21.7862 16.1786 21.5965L23.2116 14.4035C23.9373 13.6611 24.93 13.24 25.9682 13.2342C27.0064 13.2284 28.0038 13.6383 28.7379 14.3725L28.8099 14.4445C29.5596 15.1883 29.9799 16.2015 29.977 17.2575C29.9739 18.3136 29.5478 19.3244 28.7939 20.0638C26.4349 22.3738 23.2036 25.5891 21.3528 27.4359C20.4149 28.3709 19.1446 28.8958 17.8203 28.8955H14.8881C13.2305 28.8955 11.8868 27.5518 11.8868 25.8943V22.964C11.8868 21.6377 12.4137 20.3656 13.3515 19.4276L19.57 13.209" stroke="#00CCC4" stroke-width="1.5" stroke-linecap="round" stroke-linejoin="round"/>
</svg>
