<svg width="25" height="25" viewBox="0 0 25 25" fill="none" xmlns="http://www.w3.org/2000/svg">
<path d="M9.80957 19.2354V19.6004C9.80957 20.8654 10.8356 21.8914 12.1016 21.8914V21.8914C13.3676 21.8914 14.3936 20.8654 14.3936 19.5994V19.2344" stroke="#051226" stroke-width="1.5" stroke-linecap="round" stroke-linejoin="round"/>
<path d="M13.9346 6.6426V5.7246C13.9346 4.7126 13.1146 3.8916 12.1016 3.8916V3.8916C11.0886 3.8916 10.2686 4.7126 10.2686 5.7246V6.6426" stroke="#051226" stroke-width="1.5" stroke-linecap="round" stroke-linejoin="round"/>
<path fill-rule="evenodd" clip-rule="evenodd" d="M6.66456 11.0798V11.0798C6.66456 8.57683 8.69356 6.54883 11.1956 6.54883H13.0086C15.5116 6.54883 17.5396 8.57783 17.5396 11.0798V11.0798V13.8768C17.5396 14.4068 17.7506 14.9158 18.1256 15.2908L18.7666 15.9318C19.1416 16.3068 19.3526 16.8158 19.3526 17.3458V17.3458C19.3526 18.3898 18.5066 19.2358 17.4626 19.2358H6.74156C5.69756 19.2358 4.85156 18.3898 4.85156 17.3458V17.3458C4.85156 16.8158 5.06256 16.3068 5.43756 15.9318L6.07856 15.2908C6.45356 14.9158 6.66456 14.4068 6.66456 13.8768V11.0798Z" stroke="#051226" stroke-width="1.5" stroke-linecap="round" stroke-linejoin="round"/>
</svg>
