<svg width="28" height="29" viewBox="0 0 28 29" fill="none" xmlns="http://www.w3.org/2000/svg">
<rect y="0.839844" width="28" height="28" rx="14" fill="#F0F9FF"/>
<path fill-rule="evenodd" clip-rule="evenodd" d="M16.2493 15.3182L19.2533 13.2815C19.7207 12.9655 20 12.4382 20 11.8742V11.8742C20 10.9342 19.2387 10.1729 18.2993 10.1729H9.71068C8.77134 10.1729 8.01001 10.9342 8.01001 11.8735V11.8735C8.01001 12.4375 8.28934 12.9649 8.75668 13.2815L11.7607 15.3182C13.116 16.2369 14.894 16.2369 16.2493 15.3182V15.3182Z" stroke="#0095FF" stroke-linecap="round" stroke-linejoin="round"/>
<path d="M8 11.874V18.1734C8 19.278 8.89533 20.1734 10 20.1734H18C19.1047 20.1734 20 19.278 20 18.1734V11.8747" stroke="#0095FF" stroke-linecap="round" stroke-linejoin="round"/>
</svg>
