<svg width="30" height="31" viewBox="0 0 30 31" fill="none" xmlns="http://www.w3.org/2000/svg">
<rect y="0.839844" width="30" height="30" rx="15" fill="#E6F6FA"/>
<rect x="8.25" y="9.08984" width="13.5" height="13.5" rx="5" stroke="#47C7E4" stroke-linecap="round" stroke-linejoin="round"/>
<rect x="16.125" y="12.0898" width="2.625" height="2.625" rx="0.5" stroke="#47C7E4" stroke-linecap="round" stroke-linejoin="round"/>
<rect x="11.25" y="12.0898" width="2.625" height="2.625" rx="0.5" stroke="#47C7E4" stroke-linecap="round" stroke-linejoin="round"/>
<rect x="11.25" y="16.9648" width="2.625" height="2.625" rx="0.5" stroke="#47C7E4" stroke-linecap="round" stroke-linejoin="round"/>
<path d="M17.4412 18.2773L17.4375 18.2811L17.4338 18.2773L17.4375 18.2736L17.4412 18.2773" stroke="#47C7E4" stroke-linecap="round" stroke-linejoin="round"/>
<path d="M18.7162 17.002L18.7124 17.0057L18.7087 17.002L18.7124 16.9982L18.7162 17.002" stroke="#47C7E4" stroke-linecap="round" stroke-linejoin="round"/>
<path d="M16.1663 17.002L16.1626 17.0057L16.1588 17.002L16.1626 16.9982L16.1663 17.002" stroke="#47C7E4" stroke-linecap="round" stroke-linejoin="round"/>
<path d="M18.7162 19.627L18.7124 19.6307L18.7087 19.627L18.7124 19.6232L18.7162 19.627" stroke="#47C7E4" stroke-linecap="round" stroke-linejoin="round"/>
<path d="M16.1663 19.627L16.1626 19.6307L16.1588 19.627L16.1626 19.6232L16.1663 19.627" stroke="#47C7E4" stroke-linecap="round" stroke-linejoin="round"/>
</svg>
