<svg width="28" height="29" viewBox="0 0 28 29" fill="none" xmlns="http://www.w3.org/2000/svg">
<rect y="0.839844" width="28" height="28" rx="14" fill="#F4AAFF" fill-opacity="0.15"/>
<path fill-rule="evenodd" clip-rule="evenodd" d="M19.3355 20.8428H16.6677C16.2994 20.8428 16.0008 20.5442 16.0008 20.1758V18.175C16.0008 17.4383 16.598 16.8411 17.3347 16.8411H18.6686C19.4052 16.8411 20.0024 17.4383 20.0024 18.175V20.1758C20.0024 20.5442 19.7038 20.8428 19.3355 20.8428Z" stroke="#DB57EF" stroke-linecap="round" stroke-linejoin="round"/>
<path fill-rule="evenodd" clip-rule="evenodd" d="M8.33103 10.8379H11.6658C11.8499 10.8379 11.9992 10.9872 11.9992 11.1714V13.5057C11.9992 14.2424 11.402 14.8396 10.6653 14.8396H9.33145C8.59476 14.8396 7.99756 14.2424 7.99756 13.5057V11.1714C7.99756 10.9872 8.14686 10.8379 8.33103 10.8379Z" stroke="#DB57EF" stroke-linecap="round" stroke-linejoin="round"/>
<path d="M8.66431 10.8387V9.17136C8.66431 8.98719 8.81361 8.83789 8.99778 8.83789H10.9986C11.1828 8.83789 11.3321 8.98719 11.3321 9.17136V10.8387" stroke="#DB57EF" stroke-linecap="round" stroke-linejoin="round"/>
<path d="M18.0016 16.8412V10.8387C18.0016 9.73369 17.1058 8.83789 16.0008 8.83789V8.83789C14.8958 8.83789 14 9.73369 14 10.8387V18.8421C14 19.9471 13.1042 20.8429 11.9991 20.8429V20.8429C10.8941 20.8429 9.99829 19.9471 9.99829 18.8421V14.8404" stroke="#DB57EF" stroke-linecap="round" stroke-linejoin="round"/>
</svg>
