<svg width="19" height="19" viewBox="0 0 19 19" fill="none" xmlns="http://www.w3.org/2000/svg">
<path d="M12.1016 2.3916V5.3916" stroke="#051226" stroke-linecap="round" stroke-linejoin="round"/>
<path d="M6.10156 2.3916V5.3916" stroke="#051226" stroke-linecap="round" stroke-linejoin="round"/>
<path d="M2.35156 7.6416H15.8516" stroke="#051226" stroke-linecap="round" stroke-linejoin="round"/>
<path fill-rule="evenodd" clip-rule="evenodd" d="M14.3516 3.8916H3.85156C3.02281 3.8916 2.35156 4.56285 2.35156 5.3916V15.1416C2.35156 15.9704 3.02281 16.6416 3.85156 16.6416H14.3516C15.1803 16.6416 15.8516 15.9704 15.8516 15.1416V5.3916C15.8516 4.56285 15.1803 3.8916 14.3516 3.8916Z" stroke="#051226" stroke-linecap="round" stroke-linejoin="round"/>
<path d="M9.11131 10.4385C9.00781 10.4385 8.92381 10.5225 8.92456 10.626C8.92456 10.7295 9.00856 10.8135 9.11206 10.8135C9.21556 10.8135 9.29956 10.7295 9.29956 10.626C9.29956 10.5225 9.21556 10.4385 9.11131 10.4385" stroke="#051226" stroke-linecap="round" stroke-linejoin="round"/>
<path d="M12.8613 10.4385C12.7578 10.4385 12.6738 10.5225 12.6746 10.626C12.6746 10.7295 12.7586 10.8135 12.8621 10.8135C12.9656 10.8135 13.0496 10.7295 13.0496 10.626C13.0496 10.5225 12.9656 10.4385 12.8613 10.4385" stroke="#051226" stroke-linecap="round" stroke-linejoin="round"/>
<path d="M5.36131 13.4385C5.25781 13.4385 5.17381 13.5225 5.17456 13.626C5.17456 13.7295 5.25856 13.8135 5.36206 13.8135C5.46556 13.8135 5.54956 13.7295 5.54956 13.626C5.54956 13.5225 5.46556 13.4385 5.36131 13.4385" stroke="#051226" stroke-linecap="round" stroke-linejoin="round"/>
<path d="M9.11131 13.4385C9.00781 13.4385 8.92381 13.5225 8.92456 13.626C8.92456 13.7295 9.00856 13.8135 9.11206 13.8135C9.21556 13.8135 9.29956 13.7295 9.29956 13.626C9.29956 13.5225 9.21556 13.4385 9.11131 13.4385" stroke="#051226" stroke-linecap="round" stroke-linejoin="round"/>
</svg>
