<svg width="41" height="41" viewBox="0 0 41 41" fill="none" xmlns="http://www.w3.org/2000/svg">
<rect x="0.03125" y="0.891602" width="40" height="40" rx="20" fill="#E7FBFA"/>
<path d="M22.1533 18.7714C23.3243 19.9424 23.3243 21.8434 22.1533 23.0164C20.9823 24.1874 19.0813 24.1874 17.9083 23.0164C16.7373 21.8454 16.7373 19.9444 17.9083 18.7714C19.0813 17.5984 20.9813 17.5984 22.1533 18.7714" stroke="#00CCC4" stroke-width="1.5" stroke-linecap="round" stroke-linejoin="round"/>
<path d="M29.0312 24.8916L26.0312 27.8916L24.0312 25.8916" stroke="#00CCC4" stroke-width="1.5" stroke-linecap="round" stroke-linejoin="round"/>
<path d="M20.0312 27.8916C16.3403 27.8916 12.9922 25.9006 11.4773 22.8036V22.8036C11.1833 22.2026 11.0312 21.5506 11.0312 20.8916C11.0312 20.2326 11.1833 19.5806 11.4773 18.9796V18.9796C12.9922 15.8826 16.3403 13.8916 20.0312 13.8916C23.7222 13.8916 27.0703 15.8826 28.5853 18.9796V18.9796C28.8793 19.5806 29.0312 20.2326 29.0312 20.8916" stroke="#00CCC4" stroke-width="1.5" stroke-linecap="round" stroke-linejoin="round"/>
</svg>
