<svg width="41" height="41" viewBox="0 0 41 41" fill="none" xmlns="http://www.w3.org/2000/svg">
<rect x="0.101562" y="0.891602" width="40" height="40" rx="20" fill="#E7FBFA"/>
<path fill-rule="evenodd" clip-rule="evenodd" d="M25.1157 26.1861L23.8031 29.2483C23.6337 29.6431 23.2442 29.8979 22.8146 29.8949C22.385 29.8918 21.9991 29.6315 21.8353 29.2343L18.1838 20.3676C18.0196 19.9691 18.1112 19.511 18.4159 19.2062C18.7207 18.9015 19.1789 18.8099 19.5774 18.9741L28.4441 22.6256C28.8412 22.7893 29.1015 23.1752 29.1046 23.6048C29.1076 24.0344 28.8529 24.424 28.4581 24.5934L25.3958 25.906C25.2698 25.9598 25.1695 26.0601 25.1157 26.1861V26.1861Z" stroke="#00CCC4" stroke-width="1.5" stroke-linecap="round" stroke-linejoin="round"/>
<path d="M14.4622 24.2256L13.3407 25.3471" stroke="#00CCC4" stroke-width="1.5" stroke-linecap="round" stroke-linejoin="round"/>
<path d="M18.9491 11.8877V13.4734" stroke="#00CCC4" stroke-width="1.5" stroke-linecap="round" stroke-linejoin="round"/>
<path d="M13.3407 14.1309L14.4622 15.2523" stroke="#00CCC4" stroke-width="1.5" stroke-linecap="round" stroke-linejoin="round"/>
<path d="M11.0978 19.7395H12.6834" stroke="#00CCC4" stroke-width="1.5" stroke-linecap="round" stroke-linejoin="round"/>
<path d="M24.5564 14.1309L23.4349 15.2523" stroke="#00CCC4" stroke-width="1.5" stroke-linecap="round" stroke-linejoin="round"/>
</svg>
